RecursiveMonoVar-CasualLightItalic.ufo
<glyph name="exclam" format="1">
  <advance width="600"/>
  <unicode hex="0021"/>
  <outline>
    <contour>
      <point x="320" y="243" type="line"/>
      <point x="347" y="320"/>
      <point x="370" y="397"/>
      <point x="390" y="473" type="curve"/>
      <point x="438" y="668" type="line" smooth="yes"/>
      <point x="446" y="700"/>
      <point x="434" y="710"/>
      <point x="390" y="710" type="curve" smooth="yes"/>
      <point x="380" y="710"/>
      <point x="372" y="709"/>
      <point x="365" y="707" type="curve"/>
      <point x="362" y="672"/>
      <point x="354" y="637"/>
      <point x="345" y="599" type="curve" smooth="yes"/>
      <point x="313" y="473" type="line"/>
      <point x="284" y="354"/>
      <point x="267" y="269"/>
      <point x="278" y="255" type="curve" smooth="yes"/>
      <point x="285" y="245"/>
      <point x="299" y="243"/>
      <point x="315" y="243" type="curve"/>
    </contour>
    <contour>
      <point x="301" y="8" type="curve"/>
      <point x="317" y="74" type="line" smooth="yes"/>
      <point x="326" y="109"/>
      <point x="305" y="129"/>
      <point x="255" y="129" type="curve" smooth="yes"/>
      <point x="233" y="129"/>
      <point x="215" y="125"/>
      <point x="199" y="116" type="curve"/>
      <point x="182" y="51" type="line" smooth="yes"/>
      <point x="174" y="15"/>
      <point x="194" y="-5"/>
      <point x="245" y="-5" type="curve" smooth="yes"/>
      <point x="267" y="-5"/>
      <point x="285" y="0"/>
    </contour>
  </outline>
</glyph>
<glyph name="numbersign" format="1">
  <advance width="600"/>
  <unicode hex="0023"/>
  <outline>
    <contour>
      <point x="328" y="715" type="curve"/>
      <point x="278" y="513"/>
      <point x="179" y="239"/>
      <point x="8" y="-14" type="curve"/>
      <point x="15" y="-17"/>
      <point x="19" y="-20"/>
      <point x="28" y="-20" type="curve"/>
      <point x="47" y="-20"/>
      <point x="60" y="-16"/>
      <point x="75" y="5" type="curve" smooth="yes"/>
      <point x="234" y="251"/>
      <point x="333" y="530"/>
      <point x="375" y="699" type="curve" smooth="yes"/>
      <point x="380" y="718"/>
      <point x="365" y="720"/>
      <point x="354" y="720" type="curve" smooth="yes"/>
      <point x="345" y="720"/>
      <point x="336" y="718"/>
    </contour>
    <contour>
      <point x="525" y="715" type="curve"/>
      <point x="476" y="517"/>
      <point x="376" y="239"/>
      <point x="205" y="-14" type="curve"/>
      <point x="212" y="-17"/>
      <point x="216" y="-20"/>
      <point x="225" y="-20" type="curve"/>
      <point x="244" y="-20"/>
      <point x="257" y="-16"/>
      <point x="272" y="5" type="curve" smooth="yes"/>
      <point x="431" y="251"/>
      <point x="530" y="530"/>
      <point x="572" y="699" type="curve" smooth="yes"/>
      <point x="577" y="718"/>
      <point x="562" y="720"/>
      <point x="551" y="720" type="curve" smooth="yes"/>
      <point x="542" y="720"/>
      <point x="533" y="718"/>
    </contour>
    <contour>
      <point x="608" y="448" type="line"/>
      <point x="609" y="452"/>
      <point x="610" y="456"/>
      <point x="611" y="459" type="curve" smooth="yes"/>
      <point x="615" y="477"/>
      <point x="615" y="488"/>
      <point x="608" y="497" type="curve" smooth="yes"/>
      <point x="605" y="501"/>
      <point x="601" y="503"/>
      <point x="594" y="503" type="curve"/>
      <point x="138" y="503" type="line"/>
      <point x="137" y="499"/>
      <point x="135" y="494"/>
      <point x="134" y="490" type="curve" smooth="yes"/>
      <point x="129" y="466"/>
      <point x="130" y="448"/>
      <point x="150" y="448" type="curve"/>
    </contour>
    <contour>
      <point x="35" y="252" type="line"/>
      <point x="35" y="248"/>
      <point x="34" y="244"/>
      <point x="33" y="241" type="curve" smooth="yes"/>
      <point x="28" y="223"/>
      <point x="29" y="212"/>
      <point x="35" y="203" type="curve" smooth="yes"/>
      <point x="38" y="199"/>
      <point x="42" y="197"/>
      <point x="49" y="197" type="curve"/>
      <point x="505" y="197" type="line"/>
      <point x="506" y="201"/>
      <point x="508" y="206"/>
      <point x="509" y="210" type="curve" smooth="yes"/>
      <point x="515" y="234"/>
      <point x="514" y="252"/>
      <point x="494" y="252" type="curve"/>
    </contour>
  </outline>
</glyph>
<glyph name="percent" format="1">
  <advance width="600"/>
  <unicode hex="0025"/>
  <outline>
    <contour>
      <point x="250" y="670" type="curve"/>
      <point x="342" y="670"/>
      <point x="377" y="636"/>
      <point x="354" y="541" type="curve" smooth="yes"/>
      <point x="352" y="535" type="line" smooth="yes"/>
      <point x="333" y="459"/>
      <point x="283" y="413"/>
      <point x="206" y="413" type="curve" smooth="yes"/>
      <point x="171" y="413"/>
      <point x="154" y="422"/>
      <point x="135" y="449" type="curve"/>
      <point x="80" y="405"/>
      <point x="152" y="356"/>
      <point x="202" y="356" type="curve" smooth="yes"/>
      <point x="299" y="356"/>
      <point x="378" y="422"/>
      <point x="404" y="527" type="curve" smooth="yes"/>
      <point x="405" y="533" type="line" smooth="yes"/>
      <point x="432" y="639"/>
      <point x="388" y="710"/>
      <point x="298" y="710" type="curve" smooth="yes"/>
      <point x="276" y="710"/>
      <point x="255" y="692"/>
    </contour>
    <contour>
      <point x="243" y="397" type="curve"/>
      <point x="163" y="397"/>
      <point x="127" y="448"/>
      <point x="145" y="519" type="curve" smooth="yes"/>
      <point x="147" y="525" type="line" smooth="yes"/>
      <point x="167" y="605"/>
      <point x="224" y="659"/>
      <point x="290" y="659" type="curve" smooth="yes"/>
      <point x="323" y="659"/>
      <point x="343" y="655"/>
      <point x="364" y="630" type="curve"/>
      <point x="400" y="658"/>
      <point x="350" y="710"/>
      <point x="298" y="710" type="curve" smooth="yes"/>
      <point x="204" y="710"/>
      <point x="122" y="637"/>
      <point x="95" y="529" type="curve" smooth="yes"/>
      <point x="94" y="523" type="line" smooth="yes"/>
      <point x="68" y="420"/>
      <point x="109" y="356"/>
      <point x="202" y="356" type="curve" smooth="yes"/>
      <point x="218" y="356"/>
      <point x="238" y="378"/>
    </contour>
    <contour>
      <point x="392" y="304" type="curve"/>
      <point x="483" y="304"/>
      <point x="519" y="270"/>
      <point x="495" y="175" type="curve" smooth="yes"/>
      <point x="494" y="169" type="line" smooth="yes"/>
      <point x="475" y="93"/>
      <point x="425" y="47"/>
      <point x="348" y="47" type="curve" smooth="yes"/>
      <point x="313" y="47"/>
      <point x="296" y="56"/>
      <point x="277" y="83" type="curve"/>
      <point x="222" y="39"/>
      <point x="294" y="-10"/>
      <point x="344" y="-10" type="curve" smooth="yes"/>
      <point x="441" y="-10"/>
      <point x="519" y="56"/>
      <point x="545" y="161" type="curve" smooth="yes"/>
      <point x="547" y="167" type="line" smooth="yes"/>
      <point x="574" y="273"/>
      <point x="530" y="344"/>
      <point x="439" y="344" type="curve" smooth="yes"/>
      <point x="418" y="344"/>
      <point x="397" y="326"/>
    </contour>
    <contour>
      <point x="384" y="31" type="curve"/>
      <point x="305" y="31"/>
      <point x="269" y="82"/>
      <point x="287" y="153" type="curve" smooth="yes"/>
      <point x="288" y="159" type="line" smooth="yes"/>
      <point x="308" y="239"/>
      <point x="366" y="293"/>
      <point x="431" y="293" type="curve" smooth="yes"/>
      <point x="465" y="293"/>
      <point x="485" y="289"/>
      <point x="506" y="264" type="curve"/>
      <point x="542" y="292"/>
      <point x="492" y="344"/>
      <point x="439" y="344" type="curve" smooth="yes"/>
      <point x="345" y="344"/>
      <point x="264" y="271"/>
      <point x="237" y="163" type="curve" smooth="yes"/>
      <point x="236" y="157" type="line" smooth="yes"/>
      <point x="210" y="54"/>
      <point x="251" y="-10"/>
      <point x="344" y="-10" type="curve" smooth="yes"/>
      <point x="360" y="-10"/>
      <point x="380" y="12"/>
    </contour>
    <contour>
      <point x="406" y="417" type="curve"/>
      <point x="418" y="409"/>
      <point x="427" y="406"/>
      <point x="443" y="406" type="curve" smooth="yes"/>
      <point x="455" y="406"/>
      <point x="462" y="409"/>
      <point x="471" y="416" type="curve" smooth="yes"/>
      <point x="553" y="481"/>
      <point x="631" y="582"/>
      <point x="654" y="674" type="curve" smooth="yes"/>
      <point x="659" y="693"/>
      <point x="645" y="706"/>
      <point x="619" y="706" type="curve" smooth="yes"/>
      <point x="606" y="706"/>
      <point x="596" y="704"/>
      <point x="583" y="699" type="curve"/>
      <point x="547" y="585"/>
      <point x="504" y="511"/>
    </contour>
    <contour>
      <point x="237" y="282" type="curve"/>
      <point x="225" y="290"/>
      <point x="216" y="294"/>
      <point x="200" y="294" type="curve" smooth="yes"/>
      <point x="188" y="294"/>
      <point x="181" y="290"/>
      <point x="172" y="283" type="curve" smooth="yes"/>
      <point x="91" y="218"/>
      <point x="12" y="117"/>
      <point x="-11" y="25" type="curve" smooth="yes"/>
      <point x="-16" y="6"/>
      <point x="-2" y="-7"/>
      <point x="25" y="-7" type="curve" smooth="yes"/>
      <point x="37" y="-7"/>
      <point x="47" y="-5"/>
      <point x="60" y="0" type="curve"/>
      <point x="96" y="114"/>
      <point x="139" y="188"/>
    </contour>
  </outline>
</glyph>
<glyph name="ampersand" format="1">
  <advance width="600"/>
  <unicode hex="0026"/>
  <outline>
    <contour>
      <point x="428" y="710" type="curve" smooth="yes"/>
      <point x="314" y="710"/>
      <point x="216" y="644"/>
      <point x="190" y="541" type="curve" smooth="yes"/>
      <point x="185" y="518"/>
      <point x="188" y="482"/>
      <point x="224" y="482" type="curve"/>
      <point x="225" y="495"/>
      <point x="227" y="504"/>
      <point x="231" y="520" type="curve" smooth="yes"/>
      <point x="249" y="591"/>
      <point x="320" y="654"/>
      <point x="413" y="654" type="curve" smooth="yes"/>
      <point x="481" y="654"/>
      <point x="518" y="636"/>
      <point x="540" y="610" type="curve"/>
      <point x="544" y="610" type="line"/>
      <point x="548" y="618"/>
      <point x="551" y="625"/>
      <point x="553" y="633" type="curve"/>
      <point x="558" y="653"/>
      <point x="559" y="668"/>
      <point x="551" y="679" type="curve" smooth="yes"/>
      <point x="538" y="696"/>
      <point x="498" y="710"/>
    </contour>
    <contour>
      <point x="255" y="355" type="curve" smooth="yes"/>
      <point x="236" y="424"/>
      <point x="232" y="490"/>
      <point x="244" y="537" type="curve" smooth="yes"/>
      <point x="252" y="568"/>
      <point x="263" y="591"/>
      <point x="289" y="622" type="curve"/>
      <point x="253" y="636"/>
      <point x="202" y="588"/>
      <point x="190" y="541" type="curve" smooth="yes"/>
      <point x="190" y="538" type="line" smooth="yes"/>
      <point x="174" y="477"/>
      <point x="182" y="408"/>
      <point x="200" y="338" type="curve" smooth="yes"/>
      <point x="227" y="237"/>
      <point x="279" y="136"/>
      <point x="332" y="66" type="curve" smooth="yes"/>
      <point x="370" y="14"/>
      <point x="404" y="-10"/>
      <point x="448" y="-10" type="curve" smooth="yes"/>
      <point x="451" y="-10" type="line" smooth="yes"/>
      <point x="485" y="-10"/>
      <point x="503" y="8"/>
      <point x="510" y="35" type="curve" smooth="yes"/>
      <point x="513" y="46"/>
      <point x="514" y="57"/>
      <point x="514" y="65" type="curve"/>
      <point x="510" y="65" type="line"/>
      <point x="498" y="52"/>
      <point x="483" y="46"/>
      <point x="463" y="46" type="curve" smooth="yes"/>
      <point x="436" y="46"/>
      <point x="405" y="70"/>
      <point x="378" y="107" type="curve" smooth="yes"/>
      <point x="321" y="183"/>
      <point x="277" y="272"/>
    </contour>
    <contour>
      <point x="146" y="-10" type="curve" smooth="yes"/>
      <point x="233" y="-10"/>
      <point x="294" y="22"/>
      <point x="341" y="68" type="curve" smooth="yes"/>
      <point x="350" y="78"/>
      <point x="344" y="98"/>
      <point x="327" y="111" type="curve"/>
      <point x="276" y="63"/>
      <point x="231" y="43"/>
      <point x="162" y="43" type="curve" smooth="yes"/>
      <point x="83" y="43"/>
      <point x="54" y="98"/>
      <point x="71" y="165" type="curve" smooth="yes"/>
      <point x="72" y="168" type="line" smooth="yes"/>
      <point x="92" y="250"/>
      <point x="156" y="289"/>
      <point x="233" y="308" type="curve"/>
      <point x="235" y="321"/>
      <point x="233" y="355"/>
      <point x="207" y="349" type="curve" smooth="yes"/>
      <point x="138" y="329"/>
      <point x="44" y="277"/>
      <point x="16" y="164" type="curve" smooth="yes"/>
      <point x="15" y="160" type="line" smooth="yes"/>
      <point x="-9" y="63"/>
      <point x="31" y="-10"/>
    </contour>
    <contour>
      <point x="481" y="381" type="curve" smooth="yes"/>
      <point x="478" y="381"/>
      <point x="475" y="381"/>
      <point x="472" y="380" type="curve"/>
      <point x="470" y="369"/>
      <point x="467" y="359"/>
      <point x="464" y="348" type="curve" smooth="yes"/>
      <point x="442" y="259"/>
      <point x="408" y="196"/>
      <point x="346" y="130" type="curve" smooth="yes"/>
      <point x="333" y="117"/>
      <point x="353" y="99"/>
      <point x="368" y="91" type="curve"/>
      <point x="453" y="179"/>
      <point x="498" y="259"/>
      <point x="518" y="340" type="curve" smooth="yes"/>
      <point x="521" y="352" type="line" smooth="yes"/>
      <point x="526" y="373"/>
      <point x="515" y="381"/>
    </contour>
  </outline>
</glyph>
<glyph name="quotesingle" format="1">
  <advance width="600"/>
  <unicode hex="0027"/>
  <outline>
    <contour>
      <point x="376" y="438" type="curve"/>
      <point x="446" y="678" type="line" smooth="yes"/>
      <point x="462" y="732"/>
      <point x="447" y="754"/>
      <point x="396" y="754" type="curve" smooth="yes"/>
      <point x="386" y="754"/>
      <point x="375" y="752"/>
      <point x="368" y="750" type="curve"/>
      <point x="370" y="727"/>
      <point x="370" y="719"/>
      <point x="357" y="662" type="curve" smooth="yes"/>
      <point x="320" y="473" type="line" smooth="yes"/>
      <point x="315" y="448"/>
      <point x="327" y="438"/>
      <point x="364" y="438" type="curve" smooth="yes"/>
      <point x="368" y="438"/>
      <point x="372" y="438"/>
    </contour>
  </outline>
</glyph>
<glyph name="parenleft" format="1">
  <advance width="600"/>
  <unicode hex="0028"/>
  <outline>
    <contour>
      <point x="530" y="754" type="curve" smooth="yes"/>
      <point x="385" y="638"/>
      <point x="280" y="482"/>
      <point x="234" y="301" type="curve" smooth="yes"/>
      <point x="233" y="297" type="line" smooth="yes"/>
      <point x="188" y="116"/>
      <point x="215" y="-40"/>
      <point x="303" y="-156" type="curve" smooth="yes"/>
      <point x="311" y="-167"/>
      <point x="319" y="-172"/>
      <point x="332" y="-172" type="curve" smooth="yes"/>
      <point x="351" y="-172"/>
      <point x="365" y="-166"/>
      <point x="378" y="-160" type="curve"/>
      <point x="379" y="-156" type="line"/>
      <point x="275" y="-28"/>
      <point x="251" y="122"/>
      <point x="294" y="297" type="curve" smooth="yes"/>
      <point x="296" y="301" type="line" smooth="yes"/>
      <point x="339" y="475"/>
      <point x="439" y="626"/>
      <point x="606" y="754" type="curve"/>
      <point x="607" y="758" type="line"/>
      <point x="598" y="764"/>
      <point x="587" y="770"/>
      <point x="567" y="770" type="curve" smooth="yes"/>
      <point x="555" y="770"/>
      <point x="544" y="765"/>
    </contour>
  </outline>
</glyph>
<glyph name="parenright" format="1">
  <advance width="600"/>
  <unicode hex="0029"/>
  <outline>
    <contour>
      <point x="87" y="-156" type="curve" smooth="yes"/>
      <point x="233" y="-40"/>
      <point x="338" y="116"/>
      <point x="384" y="297" type="curve" smooth="yes"/>
      <point x="385" y="301" type="line" smooth="yes"/>
      <point x="430" y="482"/>
      <point x="403" y="638"/>
      <point x="315" y="754" type="curve" smooth="yes"/>
      <point x="307" y="765"/>
      <point x="299" y="770"/>
      <point x="286" y="770" type="curve" smooth="yes"/>
      <point x="267" y="770"/>
      <point x="252" y="764"/>
      <point x="240" y="758" type="curve"/>
      <point x="239" y="754" type="line"/>
      <point x="342" y="626"/>
      <point x="367" y="476"/>
      <point x="323" y="301" type="curve" smooth="yes"/>
      <point x="322" y="297" type="line" smooth="yes"/>
      <point x="279" y="123"/>
      <point x="179" y="-28"/>
      <point x="12" y="-156" type="curve"/>
      <point x="11" y="-160" type="line"/>
      <point x="20" y="-166"/>
      <point x="31" y="-172"/>
      <point x="51" y="-172" type="curve" smooth="yes"/>
      <point x="63" y="-172"/>
      <point x="73" y="-167"/>
    </contour>
  </outline>
</glyph>
<glyph name="asterisk" format="1">
  <advance width="600"/>
  <unicode hex="002A"/>
  <outline>
    <contour>
      <point x="340" y="571" type="curve"/>
      <point x="341" y="554"/>
      <point x="342" y="539"/>
      <point x="337" y="516" type="curve" smooth="yes"/>
      <point x="295" y="309" type="line"/>
      <point x="228" y="106" type="line" smooth="yes"/>
      <point x="214" y="65"/>
      <point x="218" y="44"/>
      <point x="258" y="44" type="curve"/>
      <point x="267" y="44"/>
      <point x="276" y="45"/>
      <point x="287" y="48" type="curve"/>
      <point x="285" y="65"/>
      <point x="286" y="80"/>
      <point x="290" y="102" type="curve" smooth="yes"/>
      <point x="332" y="309" type="line"/>
      <point x="399" y="512" type="line" smooth="yes"/>
      <point x="413" y="554"/>
      <point x="409" y="576"/>
      <point x="369" y="576" type="curve" smooth="yes"/>
      <point x="360" y="575"/>
      <point x="351" y="573"/>
    </contour>
    <contour>
      <point x="565" y="471" type="curve"/>
      <point x="305" y="326" type="line"/>
      <point x="74" y="224" type="line" smooth="yes"/>
      <point x="53" y="215"/>
      <point x="44" y="192"/>
      <point x="52" y="171" type="curve"/>
      <point x="55" y="161"/>
      <point x="59" y="156"/>
      <point x="63" y="150" type="curve"/>
      <point x="322" y="295" type="line"/>
      <point x="555" y="398" type="line" smooth="yes"/>
      <point x="575" y="407"/>
      <point x="581" y="426"/>
      <point x="575" y="449" type="curve" smooth="yes"/>
      <point x="574" y="457"/>
      <point x="571" y="464"/>
    </contour>
    <contour>
      <point x="532" y="210" type="curve"/>
      <point x="330" y="326" type="line"/>
      <point x="165" y="453" type="line" smooth="yes"/>
      <point x="150" y="466"/>
      <point x="130" y="460"/>
      <point x="110" y="437" type="curve"/>
      <point x="104" y="430"/>
      <point x="100" y="421"/>
      <point x="94" y="413" type="curve"/>
      <point x="296" y="294" type="line"/>
      <point x="461" y="165" type="line" smooth="yes"/>
      <point x="476" y="154"/>
      <point x="496" y="161"/>
      <point x="516" y="184" type="curve"/>
      <point x="524" y="194"/>
      <point x="528" y="201"/>
    </contour>
  </outline>
</glyph>
<glyph name="plus" format="1">
  <advance width="600"/>
  <unicode hex="002B"/>
  <outline>
    <contour>
      <point x="75" y="328" type="line"/>
      <point x="75" y="325"/>
      <point x="74" y="320"/>
      <point x="73" y="317" type="curve" smooth="yes"/>
      <point x="68" y="299"/>
      <point x="68" y="287"/>
      <point x="75" y="278" type="curve" smooth="yes"/>
      <point x="78" y="274"/>
      <point x="82" y="272"/>
      <point x="89" y="272" type="curve"/>
      <point x="543" y="272" type="line"/>
      <point x="544" y="276"/>
      <point x="546" y="281"/>
      <point x="547" y="285" type="curve" smooth="yes"/>
      <point x="553" y="310"/>
      <point x="552" y="328"/>
      <point x="532" y="328" type="curve"/>
    </contour>
    <contour>
      <point x="277" y="60" type="curve"/>
      <point x="378" y="465" type="line" smooth="yes"/>
      <point x="385" y="494"/>
      <point x="388" y="515"/>
      <point x="379" y="528" type="curve" smooth="yes"/>
      <point x="371" y="538"/>
      <point x="359" y="541"/>
      <point x="348" y="541" type="curve" smooth="yes"/>
      <point x="342" y="541"/>
      <point x="336" y="540"/>
      <point x="330" y="537" type="curve"/>
      <point x="332" y="510"/>
      <point x="330" y="496"/>
      <point x="319" y="449" type="curve" smooth="yes"/>
      <point x="228" y="85" type="line" smooth="yes"/>
      <point x="223" y="65"/>
      <point x="240" y="59"/>
      <point x="264" y="59" type="curve" smooth="yes"/>
      <point x="268" y="59"/>
      <point x="273" y="60"/>
    </contour>
  </outline>
</glyph>
<glyph name="hyphen" format="1">
  <advance width="600"/>
  <unicode hex="002D"/>
  <outline>
    <contour>
      <point x="126" y="328" type="line"/>
      <point x="125" y="325"/>
      <point x="124" y="320"/>
      <point x="123" y="317" type="curve" smooth="yes"/>
      <point x="118" y="299"/>
      <point x="119" y="287"/>
      <point x="125" y="278" type="curve" smooth="yes"/>
      <point x="128" y="274"/>
      <point x="132" y="272"/>
      <point x="139" y="272" type="curve"/>
      <point x="493" y="272" type="line"/>
      <point x="494" y="276"/>
      <point x="496" y="281"/>
      <point x="497" y="285" type="curve" smooth="yes"/>
      <point x="503" y="310"/>
      <point x="502" y="328"/>
      <point x="482" y="328" type="curve"/>
    </contour>
  </outline>
</glyph>
<glyph name="period" format="1">
  <advance width="600"/>
  <unicode hex="002E"/>
  <outline>
    <contour>
      <point x="301" y="8" type="curve"/>
      <point x="317" y="74" type="line" smooth="yes"/>
      <point x="326" y="109"/>
      <point x="305" y="129"/>
      <point x="255" y="129" type="curve" smooth="yes"/>
      <point x="233" y="129"/>
      <point x="215" y="125"/>
      <point x="199" y="116" type="curve"/>
      <point x="182" y="51" type="line" smooth="yes"/>
      <point x="174" y="15"/>
      <point x="194" y="-5"/>
      <point x="245" y="-5" type="curve" smooth="yes"/>
      <point x="267" y="-5"/>
      <point x="285" y="0"/>
    </contour>
  </outline>
</glyph>
<glyph name="zero" format="1">
  <advance width="600"/>
  <unicode hex="0030"/>
  <outline>
    <contour>
      <point x="408" y="720" type="curve" smooth="yes"/>
      <point x="281" y="720"/>
      <point x="160" y="617"/>
      <point x="103" y="382" type="curve" smooth="yes"/>
      <point x="92" y="332" type="line" smooth="yes"/>
      <point x="39" y="116"/>
      <point x="99" y="-20"/>
      <point x="234" y="-20" type="curve"/>
      <point x="254" y="-20"/>
      <point x="264" y="-1"/>
      <point x="269" y="14" type="curve"/>
      <point x="103" y="32"/>
      <point x="119" y="211"/>
      <point x="148" y="336" type="curve" smooth="yes"/>
      <point x="158" y="380" type="line" smooth="yes"/>
      <point x="199" y="553"/>
      <point x="282" y="665"/>
      <point x="401" y="665" type="curve" smooth="yes"/>
      <point x="444" y="665"/>
      <point x="479" y="655"/>
      <point x="509" y="637" type="curve"/>
      <point x="519" y="665"/>
      <point x="478" y="720"/>
    </contour>
    <contour>
      <point x="234" y="-20" type="curve" smooth="yes"/>
      <point x="362" y="-20"/>
      <point x="483" y="85"/>
      <point x="540" y="320" type="curve" smooth="yes"/>
      <point x="551" y="369" type="line" smooth="yes"/>
      <point x="604" y="587"/>
      <point x="544" y="720"/>
      <point x="408" y="720" type="curve"/>
      <point x="389" y="720"/>
      <point x="379" y="701"/>
      <point x="375" y="686" type="curve"/>
      <point x="540" y="668"/>
      <point x="527" y="491"/>
      <point x="496" y="365" type="curve" smooth="yes"/>
      <point x="485" y="322" type="line" smooth="yes"/>
      <point x="441" y="151"/>
      <point x="362" y="35"/>
      <point x="243" y="35" type="curve" smooth="yes"/>
      <point x="200" y="35"/>
      <point x="163" y="44"/>
      <point x="132" y="63" type="curve"/>
      <point x="121" y="30"/>
      <point x="168" y="-20"/>
    </contour>
    <contour>
      <point x="100" y="127" type="curve"/>
      <point x="267" y="248"/>
      <point x="399" y="371"/>
      <point x="537" y="523" type="curve"/>
      <point x="559" y="549"/>
      <point x="554" y="583"/>
      <point x="540" y="595" type="curve"/>
      <point x="389" y="420"/>
      <point x="261" y="312"/>
      <point x="105" y="192" type="curve" smooth="yes"/>
      <point x="93" y="184"/>
      <point x="85" y="142"/>
    </contour>
  </outline>
</glyph>
<glyph name="one" format="1">
  <advance width="600"/>
  <unicode hex="0031"/>
  <outline>
    <contour>
      <point x="304" y="28" type="curve"/>
      <point x="359" y="248"/>
      <point x="414" y="468"/>
      <point x="469" y="686" type="curve" smooth="yes"/>
      <point x="473" y="705"/>
      <point x="455" y="710"/>
      <point x="431" y="710" type="curve" smooth="yes"/>
      <point x="420" y="710" type="line"/>
      <point x="369" y="510"/>
      <point x="318" y="306"/>
      <point x="268" y="105" type="curve" smooth="yes"/>
      <point x="255" y="53"/>
      <point x="265" y="28"/>
    </contour>
    <contour>
      <point x="28" y="55" type="line"/>
      <point x="25" y="51"/>
      <point x="22" y="46"/>
      <point x="21" y="39" type="curve" smooth="yes"/>
      <point x="17" y="25"/>
      <point x="17" y="15"/>
      <point x="23" y="8" type="curve" smooth="yes"/>
      <point x="27" y="2"/>
      <point x="32" y="0"/>
      <point x="44" y="0" type="curve" smooth="yes"/>
      <point x="489" y="0" type="line"/>
      <point x="490" y="3"/>
      <point x="491" y="7"/>
      <point x="491" y="10" type="curve" smooth="yes"/>
      <point x="498" y="35"/>
      <point x="420" y="55"/>
      <point x="301" y="55" type="curve" smooth="yes"/>
    </contour>
    <contour>
      <point x="169" y="472" type="curve" smooth="yes"/>
      <point x="194" y="472"/>
      <point x="270" y="519"/>
      <point x="322" y="560" type="curve" smooth="yes"/>
      <point x="370" y="599"/>
      <point x="424" y="657"/>
      <point x="431" y="684" type="curve" smooth="yes"/>
      <point x="435" y="700"/>
      <point x="432" y="710"/>
      <point x="423" y="710" type="curve"/>
      <point x="401" y="710" type="line"/>
      <point x="371" y="675"/>
      <point x="342" y="644"/>
      <point x="301" y="611" type="curve"/>
      <point x="249" y="569"/>
      <point x="207" y="545"/>
      <point x="162" y="527" type="curve"/>
      <point x="160" y="519" type="line" smooth="yes"/>
      <point x="149" y="484"/>
      <point x="161" y="472"/>
    </contour>
  </outline>
</glyph>
<glyph name="two" format="1">
  <advance width="600"/>
  <unicode hex="0032"/>
  <outline>
    <contour>
      <point x="496" y="666" type="curve"/>
      <point x="520" y="625"/>
      <point x="536" y="583"/>
      <point x="522" y="526" type="curve" smooth="yes"/>
      <point x="500" y="439"/>
      <point x="432" y="371"/>
      <point x="274" y="286" type="curve" smooth="yes"/>
      <point x="127" y="210"/>
      <point x="45" y="149"/>
      <point x="19" y="44" type="curve" smooth="yes"/>
      <point x="16" y="33"/>
      <point x="27" y="29"/>
      <point x="70" y="29" type="curve"/>
      <point x="91" y="112"/>
      <point x="137" y="153"/>
      <point x="319" y="250" type="curve" smooth="yes"/>
      <point x="455" y="323"/>
      <point x="545" y="390"/>
      <point x="574" y="505" type="curve" smooth="yes"/>
      <point x="577" y="517" type="line" smooth="yes"/>
      <point x="595" y="589"/>
      <point x="555" y="683"/>
    </contour>
    <contour>
      <point x="460" y="0" type="line"/>
      <point x="461" y="4"/>
      <point x="463" y="9"/>
      <point x="464" y="13" type="curve" smooth="yes"/>
      <point x="470" y="37"/>
      <point x="469" y="55"/>
      <point x="449" y="55" type="curve" smooth="yes"/>
      <point x="78" y="55" type="line" smooth="yes"/>
      <point x="58" y="55"/>
      <point x="39" y="53"/>
      <point x="19" y="44" type="curve"/>
      <point x="19" y="42"/>
      <point x="18" y="41"/>
      <point x="18" y="40" type="curve" smooth="yes"/>
      <point x="13" y="24"/>
      <point x="18" y="0"/>
      <point x="33" y="0" type="curve" smooth="yes"/>
    </contour>
    <contour>
      <point x="412" y="720" type="curve" smooth="yes"/>
      <point x="341" y="720"/>
      <point x="287" y="705"/>
      <point x="241" y="669" type="curve" smooth="yes"/>
      <point x="201" y="638"/>
      <point x="171" y="598"/>
      <point x="161" y="560" type="curve" smooth="yes"/>
      <point x="157" y="541"/>
      <point x="168" y="515"/>
      <point x="179" y="505" type="curve"/>
      <point x="184" y="505" type="line"/>
      <point x="232" y="613"/>
      <point x="303" y="665"/>
      <point x="399" y="665" type="curve" smooth="yes"/>
      <point x="507" y="665"/>
      <point x="554" y="601"/>
      <point x="536" y="529" type="curve" smooth="yes"/>
      <point x="531" y="510"/>
      <point x="525" y="492"/>
      <point x="515" y="472" type="curve"/>
      <point x="539" y="472"/>
      <point x="571" y="492"/>
      <point x="577" y="517" type="curve" smooth="yes"/>
      <point x="606" y="635"/>
      <point x="533" y="720"/>
    </contour>
  </outline>
</glyph>
<glyph name="three" format="1">
  <advance width="600"/>
  <unicode hex="0033"/>
  <outline>
    <contour>
      <point x="389" y="664" type="curve" smooth="yes"/>
      <point x="521" y="664"/>
      <point x="552" y="589"/>
      <point x="527" y="492" type="curve" smooth="yes"/>
      <point x="525" y="482"/>
      <point x="521" y="471"/>
      <point x="515" y="458" type="curve"/>
      <point x="535" y="458"/>
      <point x="569" y="471"/>
      <point x="579" y="508" type="curve" smooth="yes"/>
      <point x="581" y="517" type="line" smooth="yes"/>
      <point x="609" y="629"/>
      <point x="543" y="719"/>
      <point x="401" y="719" type="curve" smooth="yes"/>
      <point x="314" y="719"/>
      <point x="262" y="700"/>
      <point x="216" y="669" type="curve" smooth="yes"/>
      <point x="188" y="647"/>
      <point x="178" y="636"/>
      <point x="172" y="615" type="curve" smooth="yes"/>
      <point x="168" y="601"/>
      <point x="169" y="585"/>
      <point x="171" y="571" type="curve"/>
      <point x="176" y="571" type="line"/>
      <point x="243" y="639"/>
      <point x="298" y="664"/>
    </contour>
    <contour>
      <point x="208" y="302" type="curve" smooth="yes"/>
      <point x="407" y="302"/>
      <point x="542" y="362"/>
      <point x="579" y="508" type="curve" smooth="yes"/>
      <point x="586" y="537"/>
      <point x="562" y="579"/>
      <point x="541" y="582" type="curve"/>
      <point x="540" y="566"/>
      <point x="538" y="554"/>
      <point x="532" y="532" type="curve" smooth="yes"/>
      <point x="500" y="400"/>
      <point x="366" y="343"/>
      <point x="195" y="343" type="curve"/>
      <point x="192" y="337"/>
      <point x="189" y="331"/>
      <point x="188" y="324" type="curve" smooth="yes"/>
      <point x="185" y="313"/>
      <point x="192" y="302"/>
    </contour>
    <contour>
      <point x="201" y="289" type="curve" smooth="yes"/>
      <point x="367" y="289"/>
      <point x="473" y="243"/>
      <point x="447" y="139" type="curve" smooth="yes"/>
      <point x="443" y="122"/>
      <point x="441" y="113"/>
      <point x="434" y="101" type="curve"/>
      <point x="460" y="105"/>
      <point x="492" y="125"/>
      <point x="500" y="152" type="curve" smooth="yes"/>
      <point x="528" y="263"/>
      <point x="433" y="334"/>
      <point x="192" y="334" type="curve"/>
      <point x="189" y="331"/>
      <point x="189" y="328"/>
      <point x="188" y="324" type="curve" smooth="yes"/>
      <point x="183" y="307"/>
      <point x="184" y="289"/>
    </contour>
    <contour>
      <point x="242" y="35" type="curve" smooth="yes"/>
      <point x="140" y="35"/>
      <point x="87" y="69"/>
      <point x="52" y="137" type="curve"/>
      <point x="48" y="137" type="line"/>
      <point x="42" y="126"/>
      <point x="39" y="118"/>
      <point x="35" y="102" type="curve" smooth="yes"/>
      <point x="31" y="84"/>
      <point x="32" y="70"/>
      <point x="45" y="52" type="curve" smooth="yes"/>
      <point x="76" y="11"/>
      <point x="137" y="-20"/>
      <point x="236" y="-20" type="curve" smooth="yes"/>
      <point x="381" y="-20"/>
      <point x="471" y="35"/>
      <point x="498" y="143" type="curve" smooth="yes"/>
      <point x="500" y="152" type="line" smooth="yes"/>
      <point x="509" y="186"/>
      <point x="485" y="212"/>
      <point x="468" y="214" type="curve"/>
      <point x="466" y="206"/>
      <point x="463" y="197"/>
      <point x="461" y="187" type="curve" smooth="yes"/>
      <point x="436" y="89"/>
      <point x="369" y="35"/>
    </contour>
  </outline>
</glyph>
<glyph name="four" format="1">
  <advance width="600"/>
  <unicode hex="0034"/>
  <outline>
    <contour>
      <point x="82" y="183" type="curve"/>
      <point x="168" y="349"/>
      <point x="418" y="601"/>
      <point x="586" y="696" type="curve"/>
      <point x="587" y="700" type="line"/>
      <point x="574" y="710"/>
      <point x="559" y="716"/>
      <point x="536" y="716" type="curve" smooth="yes"/>
      <point x="517" y="716"/>
      <point x="502" y="711"/>
      <point x="433" y="659" type="curve" smooth="yes"/>
      <point x="243" y="514"/>
      <point x="57" y="288"/>
      <point x="36" y="204" type="curve" smooth="yes"/>
      <point x="32" y="188"/>
      <point x="64" y="183"/>
    </contour>
    <contour>
      <point x="537" y="150" type="line"/>
      <point x="537" y="154"/>
      <point x="539" y="159"/>
      <point x="540" y="162" type="curve" smooth="yes"/>
      <point x="546" y="185"/>
      <point x="545" y="205"/>
      <point x="526" y="205" type="curve" smooth="yes"/>
      <point x="278" y="205" type="line"/>
      <point x="200" y="205"/>
      <point x="116" y="205"/>
      <point x="36" y="204" type="curve"/>
      <point x="35" y="199" type="line" smooth="yes"/>
      <point x="31" y="181"/>
      <point x="33" y="164"/>
      <point x="39" y="156" type="curve" smooth="yes"/>
      <point x="42" y="152"/>
      <point x="46" y="150"/>
      <point x="52" y="150" type="curve" smooth="yes"/>
    </contour>
    <contour>
      <point x="416" y="-6" type="curve"/>
      <point x="416" y="28"/>
      <point x="419" y="51"/>
      <point x="430" y="100" type="curve" smooth="yes"/>
      <point x="493" y="350" type="line" smooth="yes"/>
      <point x="495" y="359"/>
      <point x="487" y="376"/>
      <point x="456" y="376" type="curve" smooth="yes"/>
      <point x="446" y="376" type="line"/>
      <point x="430" y="313"/>
      <point x="412" y="249"/>
      <point x="396" y="186" type="curve"/>
      <point x="364" y="60" type="line" smooth="yes"/>
      <point x="350" y="2"/>
      <point x="366" y="-10"/>
      <point x="392" y="-10" type="curve" smooth="yes"/>
      <point x="401" y="-10"/>
      <point x="410" y="-9"/>
    </contour>
  </outline>
</glyph>
<glyph name="five" format="1">
  <advance width="600"/>
  <unicode hex="0035"/>
  <outline>
    <contour>
      <point x="220" y="700" type="line"/>
      <point x="219" y="697"/>
      <point x="218" y="692"/>
      <point x="218" y="689" type="curve" smooth="yes"/>
      <point x="214" y="671"/>
      <point x="214" y="659"/>
      <point x="220" y="651" type="curve" smooth="yes"/>
      <point x="223" y="647"/>
      <point x="228" y="645"/>
      <point x="234" y="645" type="curve" smooth="yes"/>
      <point x="596" y="645" type="line"/>
      <point x="597" y="649"/>
      <point x="598" y="654"/>
      <point x="599" y="658" type="curve" smooth="yes"/>
      <point x="606" y="682"/>
      <point x="604" y="700"/>
      <point x="584" y="700" type="curve" smooth="yes"/>
    </contour>
    <contour>
      <point x="162" y="308" type="line"/>
      <point x="323" y="669" type="line" smooth="yes"/>
      <point x="332" y="690"/>
      <point x="316" y="700"/>
      <point x="289" y="700" type="curve" smooth="yes"/>
      <point x="278" y="700" type="line"/>
      <point x="116" y="335" type="line" smooth="yes"/>
      <point x="106" y="312"/>
      <point x="126" y="308"/>
      <point x="149" y="308" type="curve" smooth="yes"/>
    </contour>
    <contour>
      <point x="143" y="361" type="curve"/>
      <point x="134" y="330"/>
      <point x="142" y="308"/>
      <point x="162" y="308" type="curve"/>
      <point x="164" y="308"/>
      <point x="166" y="308"/>
      <point x="169" y="308" type="curve" smooth="yes"/>
      <point x="364" y="308"/>
      <point x="478" y="276"/>
      <point x="449" y="159" type="curve" smooth="yes"/>
      <point x="444" y="143"/>
      <point x="441" y="132"/>
      <point x="435" y="119" type="curve"/>
      <point x="458" y="119"/>
      <point x="492" y="134"/>
      <point x="501" y="170" type="curve" smooth="yes"/>
      <point x="532" y="292"/>
      <point x="427" y="361"/>
      <point x="184" y="361" type="curve" smooth="yes"/>
      <point x="170" y="361"/>
      <point x="157" y="361"/>
    </contour>
    <contour>
      <point x="237" y="-20" type="curve" smooth="yes"/>
      <point x="374" y="-20"/>
      <point x="469" y="40"/>
      <point x="499" y="162" type="curve" smooth="yes"/>
      <point x="501" y="170" type="line" smooth="yes"/>
      <point x="509" y="203"/>
      <point x="482" y="231"/>
      <point x="464" y="236" type="curve"/>
      <point x="464" y="226"/>
      <point x="462" y="217"/>
      <point x="460" y="207" type="curve" smooth="yes"/>
      <point x="458" y="200" type="line" smooth="yes"/>
      <point x="432" y="96"/>
      <point x="365" y="35"/>
      <point x="240" y="35" type="curve" smooth="yes"/>
      <point x="138" y="35"/>
      <point x="84" y="70"/>
      <point x="50" y="138" type="curve"/>
      <point x="46" y="138" type="line"/>
      <point x="41" y="128"/>
      <point x="37" y="119"/>
      <point x="35" y="108" type="curve" smooth="yes"/>
      <point x="30" y="87"/>
      <point x="31" y="70"/>
      <point x="43" y="53" type="curve" smooth="yes"/>
      <point x="75" y="11"/>
      <point x="143" y="-20"/>
    </contour>
  </outline>
</glyph>
<glyph name="six" format="1">
  <advance width="600"/>
  <unicode hex="0036"/>
  <outline>
    <contour>
      <point x="116" y="113" type="curve"/>
      <point x="102" y="44"/>
      <point x="168" y="-20"/>
      <point x="259" y="-20" type="curve"/>
      <point x="396" y="-20"/>
      <point x="469" y="53"/>
      <point x="501" y="177" type="curve" smooth="yes"/>
      <point x="502" y="182" type="line" smooth="yes"/>
      <point x="524" y="269"/>
      <point x="483" y="340"/>
      <point x="427" y="323" type="curve"/>
      <point x="457" y="280"/>
      <point x="462" y="244"/>
      <point x="448" y="188" type="curve" smooth="yes"/>
      <point x="446" y="182" type="line" smooth="yes"/>
      <point x="424" y="90"/>
      <point x="371" y="32"/>
      <point x="270" y="32" type="curve" smooth="yes"/>
      <point x="203" y="32"/>
      <point x="167" y="51"/>
    </contour>
    <contour>
      <point x="231" y="588" type="curve"/>
      <point x="299" y="639"/>
      <point x="348" y="665"/>
      <point x="428" y="665" type="curve" smooth="yes"/>
      <point x="496" y="665"/>
      <point x="548" y="648"/>
      <point x="575" y="613" type="curve"/>
      <point x="579" y="613" type="line"/>
      <point x="584" y="621"/>
      <point x="587" y="628"/>
      <point x="590" y="638" type="curve" smooth="yes"/>
      <point x="594" y="657"/>
      <point x="592" y="670"/>
      <point x="586" y="678" type="curve" smooth="yes"/>
      <point x="568" y="702"/>
      <point x="511" y="720"/>
      <point x="443" y="720" type="curve" smooth="yes"/>
      <point x="351" y="720"/>
      <point x="223" y="660"/>
    </contour>
    <contour>
      <point x="97" y="359" type="curve" smooth="yes"/>
      <point x="94" y="346" type="line" smooth="yes"/>
      <point x="37" y="103"/>
      <point x="99" y="-20"/>
      <point x="259" y="-20" type="curve" smooth="yes"/>
      <point x="272" y="-20"/>
      <point x="292" y="-5"/>
      <point x="297" y="12" type="curve"/>
      <point x="150" y="13"/>
      <point x="95" y="123"/>
      <point x="151" y="346" type="curve" smooth="yes"/>
      <point x="154" y="358" type="line" smooth="yes"/>
      <point x="213" y="597"/>
      <point x="298" y="686"/>
      <point x="456" y="690" type="curve"/>
      <point x="461" y="705"/>
      <point x="453" y="720"/>
      <point x="443" y="720" type="curve" smooth="yes"/>
      <point x="258" y="719"/>
      <point x="158" y="619"/>
    </contour>
    <contour>
      <point x="331" y="386" type="curve" smooth="yes"/>
      <point x="245" y="386"/>
      <point x="171" y="357"/>
      <point x="123" y="320" type="curve" smooth="yes"/>
      <point x="114" y="312"/>
      <point x="105" y="292"/>
      <point x="97" y="262" type="curve"/>
      <point x="164" y="309"/>
      <point x="239" y="332"/>
      <point x="316" y="332" type="curve" smooth="yes"/>
      <point x="431" y="332"/>
      <point x="488" y="262"/>
      <point x="461" y="154" type="curve" smooth="yes"/>
      <point x="459" y="145"/>
      <point x="455" y="134"/>
      <point x="451" y="126" type="curve"/>
      <point x="471" y="126"/>
      <point x="497" y="162"/>
      <point x="502" y="182" type="curve" smooth="yes"/>
      <point x="534" y="310"/>
      <point x="450" y="386"/>
    </contour>
  </outline>
</glyph>
<glyph name="seven" format="1">
  <advance width="600"/>
  <unicode hex="0037"/>
  <outline>
    <contour>
      <point x="566" y="645" type="line" smooth="yes"/>
      <point x="588" y="645"/>
      <point x="606" y="645"/>
      <point x="619" y="645" type="curve"/>
      <point x="621" y="656" type="line"/>
      <point x="627" y="679"/>
      <point x="626" y="700"/>
      <point x="607" y="700" type="curve"/>
      <point x="209" y="700" type="line"/>
      <point x="207" y="691" type="line" smooth="yes"/>
      <point x="199" y="659"/>
      <point x="202" y="645"/>
      <point x="220" y="645" type="curve" smooth="yes"/>
    </contour>
    <contour>
      <point x="234" y="-10" type="line"/>
      <point x="291" y="213"/>
      <point x="577" y="480"/>
      <point x="619" y="645" type="curve" smooth="yes"/>
      <point x="623" y="663"/>
      <point x="593" y="663"/>
      <point x="561" y="662" type="curve"/>
      <point x="519" y="494"/>
      <point x="230" y="219"/>
      <point x="179" y="16" type="curve" smooth="yes"/>
      <point x="175" y="-3"/>
      <point x="200" y="-10"/>
      <point x="223" y="-10" type="curve" smooth="yes"/>
    </contour>
    <contour>
      <point x="186" y="478" type="curve"/>
      <point x="213" y="587"/>
      <point x="260" y="687"/>
      <point x="262" y="695" type="curve"/>
      <point x="267" y="714"/>
      <point x="246" y="720"/>
      <point x="223" y="720" type="curve" smooth="yes"/>
      <point x="213" y="720" type="line"/>
      <point x="179" y="649"/>
      <point x="153" y="574"/>
      <point x="135" y="503" type="curve"/>
      <point x="130" y="483"/>
      <point x="149" y="478"/>
      <point x="173" y="478" type="curve" smooth="yes"/>
      <point x="177" y="478"/>
      <point x="182" y="478"/>
    </contour>
  </outline>
</glyph>
<glyph name="eight" format="1">
  <advance width="600"/>
  <unicode hex="0038"/>
  <outline>
    <contour>
      <point x="377" y="317" type="curve" smooth="yes"/>
      <point x="301" y="347" type="line" smooth="yes"/>
      <point x="198" y="388"/>
      <point x="184" y="464"/>
      <point x="201" y="529" type="curve" smooth="yes"/>
      <point x="205" y="548"/>
      <point x="210" y="564"/>
      <point x="218" y="592" type="curve"/>
      <point x="191" y="582"/>
      <point x="156" y="563"/>
      <point x="146" y="524" type="curve" smooth="yes"/>
      <point x="126" y="443"/>
      <point x="157" y="354"/>
      <point x="276" y="305" type="curve" smooth="yes"/>
      <point x="353" y="273" type="line" smooth="yes"/>
      <point x="444" y="235"/>
      <point x="462" y="189"/>
      <point x="441" y="109" type="curve" smooth="yes"/>
      <point x="440" y="103"/>
      <point x="438" y="95"/>
      <point x="437" y="89" type="curve"/>
      <point x="456" y="94"/>
      <point x="492" y="125"/>
      <point x="498" y="145" type="curve"/>
      <point x="514" y="211"/>
      <point x="479" y="276"/>
    </contour>
    <contour>
      <point x="247" y="-20" type="curve" smooth="yes"/>
      <point x="394" y="-20"/>
      <point x="469" y="32"/>
      <point x="495" y="137" type="curve" smooth="yes"/>
      <point x="498" y="145" type="line" smooth="yes"/>
      <point x="503" y="165"/>
      <point x="478" y="203"/>
      <point x="460" y="205" type="curve"/>
      <point x="459" y="195"/>
      <point x="458" y="188"/>
      <point x="455" y="172" type="curve" smooth="yes"/>
      <point x="433" y="79"/>
      <point x="381" y="33"/>
      <point x="252" y="33" type="curve" smooth="yes"/>
      <point x="156" y="33"/>
      <point x="122" y="62"/>
      <point x="78" y="112" type="curve"/>
      <point x="56" y="63"/>
      <point x="140" y="-20"/>
    </contour>
    <contour>
      <point x="413" y="720" type="curve" smooth="yes"/>
      <point x="277" y="720"/>
      <point x="173" y="656"/>
      <point x="147" y="529" type="curve" smooth="yes"/>
      <point x="146" y="524" type="line" smooth="yes"/>
      <point x="140" y="493"/>
      <point x="169" y="472"/>
      <point x="186" y="467" type="curve"/>
      <point x="191" y="488"/>
      <point x="195" y="507"/>
      <point x="201" y="529" type="curve" smooth="yes"/>
      <point x="228" y="636"/>
      <point x="323" y="666"/>
      <point x="402" y="666" type="curve" smooth="yes"/>
      <point x="460" y="666"/>
      <point x="522" y="640"/>
      <point x="551" y="598" type="curve"/>
      <point x="591" y="646"/>
      <point x="473" y="720"/>
    </contour>
    <contour>
      <point x="345" y="307" type="curve" smooth="yes"/>
      <point x="428" y="307"/>
      <point x="558" y="387"/>
      <point x="589" y="508" type="curve" smooth="yes"/>
      <point x="591" y="516" type="line" smooth="yes"/>
      <point x="621" y="635"/>
      <point x="545" y="720"/>
      <point x="413" y="720" type="curve" smooth="yes"/>
      <point x="403" y="720"/>
      <point x="381" y="714"/>
      <point x="373" y="686" type="curve"/>
      <point x="495" y="686"/>
      <point x="561" y="621"/>
      <point x="535" y="515" type="curve" smooth="yes"/>
      <point x="533" y="507" type="line" smooth="yes"/>
      <point x="509" y="414"/>
      <point x="429" y="363"/>
      <point x="301" y="328" type="curve"/>
      <point x="317" y="314"/>
      <point x="327" y="307"/>
    </contour>
    <contour>
      <point x="280" y="16" type="curve"/>
      <point x="143" y="16"/>
      <point x="81" y="85"/>
      <point x="97" y="152" type="curve" smooth="yes"/>
      <point x="99" y="160" type="line" smooth="yes"/>
      <point x="118" y="235"/>
      <point x="183" y="274"/>
      <point x="314" y="299" type="curve"/>
      <point x="299" y="315"/>
      <point x="290" y="325"/>
      <point x="278" y="325" type="curve" smooth="yes"/>
      <point x="179" y="325"/>
      <point x="73" y="266"/>
      <point x="50" y="172" type="curve" smooth="yes"/>
      <point x="48" y="164" type="line" smooth="yes"/>
      <point x="25" y="76"/>
      <point x="77" y="-20"/>
      <point x="247" y="-20" type="curve" smooth="yes"/>
      <point x="261" y="-20"/>
      <point x="274" y="-8"/>
    </contour>
  </outline>
</glyph>
<glyph name="nine" format="1">
  <advance width="600"/>
  <unicode hex="0039"/>
  <outline>
    <contour>
      <point x="533" y="587" type="curve"/>
      <point x="569" y="638"/>
      <point x="493" y="720"/>
      <point x="401" y="720" type="curve"/>
      <point x="271" y="720"/>
      <point x="165" y="636"/>
      <point x="125" y="477" type="curve" smooth="yes"/>
      <point x="123" y="469" type="line" smooth="yes"/>
      <point x="97" y="366"/>
      <point x="136" y="272"/>
      <point x="194" y="290" type="curve"/>
      <point x="158" y="341"/>
      <point x="160" y="395"/>
      <point x="177" y="464" type="curve" smooth="yes"/>
      <point x="179" y="472" type="line" smooth="yes"/>
      <point x="211" y="598"/>
      <point x="291" y="668"/>
      <point x="397" y="668" type="curve" smooth="yes"/>
      <point x="462" y="668"/>
      <point x="492" y="648"/>
    </contour>
    <contour>
      <point x="424" y="121" type="curve"/>
      <point x="351" y="59"/>
      <point x="298" y="35"/>
      <point x="220" y="35" type="curve" smooth="yes"/>
      <point x="150" y="35"/>
      <point x="94" y="58"/>
      <point x="64" y="93" type="curve"/>
      <point x="60" y="93" type="line"/>
      <point x="55" y="85"/>
      <point x="51" y="78"/>
      <point x="49" y="67" type="curve" smooth="yes"/>
      <point x="45" y="48"/>
      <point x="46" y="38"/>
      <point x="53" y="29" type="curve" smooth="yes"/>
      <point x="71" y="6"/>
      <point x="138" y="-20"/>
      <point x="209" y="-20" type="curve" smooth="yes"/>
      <point x="300" y="-20"/>
      <point x="422" y="46"/>
    </contour>
    <contour>
      <point x="545" y="338" type="curve" smooth="yes"/>
      <point x="548" y="350" type="line" smooth="yes"/>
      <point x="606" y="587"/>
      <point x="562" y="720"/>
      <point x="401" y="720" type="curve" smooth="yes"/>
      <point x="383" y="720"/>
      <point x="368" y="709"/>
      <point x="365" y="688" type="curve"/>
      <point x="512" y="685"/>
      <point x="547" y="568"/>
      <point x="492" y="350" type="curve" smooth="yes"/>
      <point x="489" y="338" type="line" smooth="yes"/>
      <point x="431" y="104"/>
      <point x="351" y="14"/>
      <point x="195" y="11" type="curve"/>
      <point x="191" y="-5"/>
      <point x="199" y="-20"/>
      <point x="209" y="-20" type="curve" smooth="yes"/>
      <point x="387" y="-20"/>
      <point x="481" y="81"/>
    </contour>
    <contour>
      <point x="286" y="231" type="curve" smooth="yes"/>
      <point x="365" y="231"/>
      <point x="439" y="252"/>
      <point x="487" y="295" type="curve" smooth="yes"/>
      <point x="497" y="304"/>
      <point x="506" y="324"/>
      <point x="513" y="354" type="curve"/>
      <point x="447" y="308"/>
      <point x="371" y="284"/>
      <point x="292" y="284" type="curve" smooth="yes"/>
      <point x="179" y="284"/>
      <point x="128" y="354"/>
      <point x="158" y="474" type="curve" smooth="yes"/>
      <point x="164" y="497"/>
      <point x="170" y="513"/>
      <point x="180" y="531" type="curve"/>
      <point x="157" y="531"/>
      <point x="132" y="506"/>
      <point x="123" y="469" type="curve" smooth="yes"/>
      <point x="86" y="323"/>
      <point x="145" y="231"/>
    </contour>
  </outline>
</glyph>
<glyph name="colon" format="1">
  <advance width="600"/>
  <unicode hex="003A"/>
  <outline>
    <contour>
      <point x="401" y="412" type="curve"/>
      <point x="418" y="477" type="line" smooth="yes"/>
      <point x="427" y="513"/>
      <point x="406" y="533"/>
      <point x="356" y="533" type="curve" smooth="yes"/>
      <point x="334" y="533"/>
      <point x="316" y="528"/>
      <point x="300" y="520" type="curve"/>
      <point x="283" y="454" type="line" smooth="yes"/>
      <point x="275" y="419"/>
      <point x="295" y="398"/>
      <point x="346" y="398" type="curve" smooth="yes"/>
      <point x="368" y="398"/>
      <point x="386" y="403"/>
    </contour>
    <contour>
      <point x="301" y="8" type="curve"/>
      <point x="317" y="74" type="line" smooth="yes"/>
      <point x="326" y="109"/>
      <point x="305" y="129"/>
      <point x="255" y="129" type="curve" smooth="yes"/>
      <point x="233" y="129"/>
      <point x="215" y="125"/>
      <point x="199" y="116" type="curve"/>
      <point x="182" y="51" type="line" smooth="yes"/>
      <point x="174" y="15"/>
      <point x="194" y="-5"/>
      <point x="245" y="-5" type="curve" smooth="yes"/>
      <point x="267" y="-5"/>
      <point x="285" y="0"/>
    </contour>
  </outline>
</glyph>
<glyph name="semicolon" format="1">
  <advance width="600"/>
  <unicode hex="003B"/>
  <outline>
    <contour>
      <point x="401" y="411" type="curve"/>
      <point x="418" y="476" type="line" smooth="yes"/>
      <point x="426" y="512"/>
      <point x="406" y="532"/>
      <point x="355" y="532" type="curve" smooth="yes"/>
      <point x="333" y="532"/>
      <point x="315" y="527"/>
      <point x="299" y="518" type="curve"/>
      <point x="283" y="453" type="line" smooth="yes"/>
      <point x="274" y="418"/>
      <point x="295" y="397"/>
      <point x="345" y="397" type="curve" smooth="yes"/>
      <point x="367" y="397"/>
      <point x="385" y="402"/>
    </contour>
    <contour>
      <point x="129" y="-191" type="curve" smooth="yes"/>
      <point x="141" y="-191"/>
      <point x="147" y="-188"/>
      <point x="155" y="-182" type="curve"/>
      <point x="217" y="-133"/>
      <point x="289" y="-36"/>
      <point x="322" y="97" type="curve"/>
      <point x="329" y="126"/>
      <point x="307" y="134"/>
      <point x="282" y="134" type="curve" smooth="yes"/>
      <point x="267" y="134"/>
      <point x="255" y="132"/>
      <point x="243" y="127" type="curve"/>
      <point x="206" y="-23"/>
      <point x="174" y="-83"/>
      <point x="90" y="-178" type="curve"/>
      <point x="102" y="-187"/>
      <point x="112" y="-191"/>
    </contour>
  </outline>
</glyph>
<glyph name="less" format="1">
  <advance width="600"/>
  <unicode hex="003C"/>
  <outline>
    <contour>
      <point x="584" y="508" type="curve"/>
      <point x="587" y="519" type="line"/>
      <point x="593" y="546"/>
      <point x="585" y="560"/>
      <point x="572" y="560" type="curve" smooth="yes"/>
      <point x="559" y="560"/>
      <point x="524" y="552"/>
      <point x="473" y="536" type="curve" smooth="yes"/>
      <point x="309" y="483"/>
      <point x="195" y="419"/>
      <point x="85" y="325" type="curve"/>
      <point x="78" y="295" type="line"/>
      <point x="75" y="284"/>
      <point x="90" y="274"/>
      <point x="114" y="288" type="curve"/>
      <point x="268" y="405"/>
      <point x="354" y="455"/>
    </contour>
    <contour>
      <point x="462" y="35" type="curve"/>
      <point x="466" y="41"/>
      <point x="469" y="48"/>
      <point x="471" y="56" type="curve" smooth="yes"/>
      <point x="475" y="75"/>
      <point x="473" y="91"/>
      <point x="460" y="96" type="curve" smooth="yes"/>
      <point x="279" y="150"/>
      <point x="224" y="192"/>
      <point x="125" y="304" type="curve" smooth="yes"/>
      <point x="120" y="310"/>
      <point x="119" y="317"/>
      <point x="120" y="322" type="curve" smooth="yes"/>
      <point x="121" y="326"/>
      <point x="123" y="332"/>
      <point x="125" y="342" type="curve"/>
      <point x="98" y="330"/>
      <point x="83" y="317"/>
      <point x="79" y="299" type="curve" smooth="yes"/>
      <point x="76" y="289" type="line" smooth="yes"/>
      <point x="72" y="270"/>
      <point x="78" y="259"/>
      <point x="95" y="242" type="curve" smooth="yes"/>
      <point x="183" y="151"/>
      <point x="254" y="85"/>
    </contour>
  </outline>
</glyph>
<glyph name="equal" format="1">
  <advance width="600"/>
  <unicode hex="003D"/>
  <outline>
    <contour>
      <point x="107" y="453" type="line"/>
      <point x="106" y="450"/>
      <point x="105" y="445"/>
      <point x="104" y="442" type="curve" smooth="yes"/>
      <point x="100" y="424"/>
      <point x="100" y="412"/>
      <point x="106" y="403" type="curve" smooth="yes"/>
      <point x="109" y="399"/>
      <point x="113" y="397"/>
      <point x="121" y="397" type="curve"/>
      <point x="574" y="397" type="line"/>
      <point x="576" y="401"/>
      <point x="577" y="406"/>
      <point x="578" y="410" type="curve" smooth="yes"/>
      <point x="584" y="435"/>
      <point x="583" y="453"/>
      <point x="563" y="453" type="curve"/>
    </contour>
    <contour>
      <point x="512" y="147" type="line"/>
      <point x="513" y="150"/>
      <point x="514" y="155"/>
      <point x="515" y="158" type="curve" smooth="yes"/>
      <point x="519" y="176"/>
      <point x="519" y="188"/>
      <point x="513" y="197" type="curve" smooth="yes"/>
      <point x="510" y="201"/>
      <point x="506" y="203"/>
      <point x="498" y="203" type="curve"/>
      <point x="45" y="203" type="line"/>
      <point x="43" y="199"/>
      <point x="42" y="194"/>
      <point x="41" y="190" type="curve" smooth="yes"/>
      <point x="35" y="165"/>
      <point x="36" y="147"/>
      <point x="56" y="147" type="curve"/>
    </contour>
  </outline>
</glyph>
<glyph name="greater" format="1">
  <advance width="600"/>
  <unicode hex="003E"/>
  <outline>
    <contour>
      <point x="34" y="92" type="curve"/>
      <point x="32" y="81" type="line"/>
      <point x="25" y="54"/>
      <point x="33" y="40"/>
      <point x="46" y="40" type="curve" smooth="yes"/>
      <point x="59" y="40"/>
      <point x="95" y="48"/>
      <point x="145" y="64" type="curve" smooth="yes"/>
      <point x="309" y="117"/>
      <point x="423" y="181"/>
      <point x="533" y="275" type="curve"/>
      <point x="541" y="305" type="line"/>
      <point x="543" y="316"/>
      <point x="529" y="326"/>
      <point x="505" y="312" type="curve"/>
      <point x="351" y="195"/>
      <point x="264" y="145"/>
    </contour>
    <contour>
      <point x="156" y="565" type="curve"/>
      <point x="152" y="558"/>
      <point x="150" y="552"/>
      <point x="148" y="544" type="curve" smooth="yes"/>
      <point x="143" y="525"/>
      <point x="145" y="508"/>
      <point x="158" y="504" type="curve" smooth="yes"/>
      <point x="340" y="450"/>
      <point x="394" y="408"/>
      <point x="493" y="296" type="curve" smooth="yes"/>
      <point x="498" y="289"/>
      <point x="500" y="283"/>
      <point x="498" y="277" type="curve" smooth="yes"/>
      <point x="497" y="274"/>
      <point x="496" y="267"/>
      <point x="493" y="258" type="curve"/>
      <point x="520" y="270"/>
      <point x="535" y="283"/>
      <point x="540" y="301" type="curve" smooth="yes"/>
      <point x="542" y="311" type="line" smooth="yes"/>
      <point x="547" y="330"/>
      <point x="541" y="341"/>
      <point x="523" y="358" type="curve" smooth="yes"/>
      <point x="436" y="449"/>
      <point x="364" y="515"/>
    </contour>
  </outline>
</glyph>
<glyph name="question" format="1">
  <advance width="600"/>
  <unicode hex="003F"/>
  <outline>
    <contour>
      <point x="419" y="720" type="curve" smooth="yes"/>
      <point x="351" y="720"/>
      <point x="289" y="696"/>
      <point x="243" y="660" type="curve" smooth="yes"/>
      <point x="204" y="630"/>
      <point x="175" y="595"/>
      <point x="166" y="560" type="curve" smooth="yes"/>
      <point x="162" y="543"/>
      <point x="171" y="531"/>
      <point x="180" y="522" type="curve"/>
      <point x="185" y="522" type="line"/>
      <point x="232" y="606"/>
      <point x="304" y="665"/>
      <point x="406" y="665" type="curve" smooth="yes"/>
      <point x="506" y="665"/>
      <point x="563" y="617"/>
      <point x="547" y="553" type="curve" smooth="yes"/>
      <point x="541" y="533"/>
      <point x="539" y="524"/>
      <point x="533" y="512" type="curve"/>
      <point x="561" y="511"/>
      <point x="578" y="543"/>
      <point x="582" y="559" type="curve" smooth="yes"/>
      <point x="602" y="636"/>
      <point x="569" y="720"/>
    </contour>
    <contour>
      <point x="503" y="674" type="curve"/>
      <point x="523" y="639"/>
      <point x="539" y="610"/>
      <point x="525" y="557" type="curve" smooth="yes"/>
      <point x="512" y="503"/>
      <point x="480" y="461"/>
      <point x="406" y="416" type="curve" smooth="yes"/>
      <point x="380" y="400" type="line" smooth="yes"/>
      <point x="314" y="359"/>
      <point x="263" y="313"/>
      <point x="252" y="269" type="curve" smooth="yes"/>
      <point x="251" y="264" type="line" smooth="yes"/>
      <point x="248" y="250"/>
      <point x="258" y="238"/>
      <point x="293" y="238" type="curve" smooth="yes"/>
      <point x="299" y="238" type="line"/>
      <point x="301" y="247" type="line" smooth="yes"/>
      <point x="312" y="289"/>
      <point x="331" y="312"/>
      <point x="412" y="363" type="curve" smooth="yes"/>
      <point x="438" y="379" type="line" smooth="yes"/>
      <point x="521" y="432"/>
      <point x="563" y="481"/>
      <point x="581" y="552" type="curve" smooth="yes"/>
      <point x="582" y="559" type="line" smooth="yes"/>
      <point x="596" y="615"/>
      <point x="567" y="688"/>
    </contour>
    <contour>
      <point x="283" y="8" type="curve"/>
      <point x="299" y="72" type="line" smooth="yes"/>
      <point x="308" y="108"/>
      <point x="288" y="128"/>
      <point x="237" y="128" type="curve" smooth="yes"/>
      <point x="215" y="128"/>
      <point x="197" y="124"/>
      <point x="181" y="115" type="curve"/>
      <point x="165" y="51" type="line" smooth="yes"/>
      <point x="156" y="15"/>
      <point x="177" y="-5"/>
      <point x="227" y="-5" type="curve" smooth="yes"/>
      <point x="250" y="-5"/>
      <point x="267" y="0"/>
    </contour>
  </outline>
</glyph>
<glyph name="at" format="1">
  <advance width="600"/>
  <unicode hex="0040"/>
  <outline>
    <contour>
      <point x="551" y="512" type="curve" smooth="yes"/>
      <point x="540" y="527"/>
      <point x="512" y="537"/>
      <point x="464" y="537" type="curve" smooth="yes"/>
      <point x="431" y="537"/>
      <point x="398" y="526"/>
      <point x="369" y="503" type="curve" smooth="yes"/>
      <point x="352" y="489"/>
      <point x="344" y="462"/>
      <point x="353" y="450" type="curve"/>
      <point x="392" y="475"/>
      <point x="419" y="486"/>
      <point x="454" y="486" type="curve" smooth="yes"/>
      <point x="496" y="486"/>
      <point x="515" y="480"/>
      <point x="537" y="459" type="curve"/>
      <point x="556" y="489"/>
      <point x="556" y="505"/>
    </contour>
    <contour>
      <point x="466" y="149" type="curve"/>
      <point x="411" y="91"/>
      <point x="352" y="64"/>
      <point x="313" y="64" type="curve" smooth="yes"/>
      <point x="268" y="64"/>
      <point x="248" y="92"/>
      <point x="273" y="188" type="curve" smooth="yes"/>
      <point x="274" y="193" type="line" smooth="yes"/>
      <point x="317" y="368"/>
      <point x="342" y="421"/>
      <point x="422" y="502" type="curve"/>
      <point x="403" y="510"/>
      <point x="376" y="508"/>
      <point x="369" y="503" type="curve" smooth="yes"/>
      <point x="306" y="452"/>
      <point x="257" y="353"/>
      <point x="218" y="194" type="curve" smooth="yes"/>
      <point x="216" y="188" type="line" smooth="yes"/>
      <point x="187" y="71"/>
      <point x="214" y="10"/>
      <point x="296" y="10" type="curve" smooth="yes"/>
      <point x="332" y="10"/>
      <point x="374" y="22"/>
      <point x="442" y="77" type="curve" smooth="yes"/>
      <point x="458" y="90"/>
      <point x="468" y="119"/>
    </contour>
    <contour>
      <point x="477" y="17" type="line"/>
      <point x="475" y="47"/>
      <point x="477" y="59"/>
      <point x="488" y="105" type="curve"/>
      <point x="591" y="516" type="line" smooth="yes"/>
      <point x="634" y="687"/>
      <point x="595" y="760"/>
      <point x="470" y="760" type="curve" smooth="yes"/>
      <point x="449" y="760"/>
      <point x="445" y="741"/>
      <point x="442" y="726" type="curve"/>
      <point x="565" y="711"/>
      <point x="573" y="662"/>
      <point x="534" y="505" type="curve" smooth="yes"/>
      <point x="425" y="67" type="line" smooth="yes"/>
      <point x="416" y="32"/>
      <point x="437" y="17"/>
      <point x="471" y="17" type="curve" smooth="yes"/>
    </contour>
    <contour>
      <point x="44" y="195" type="curve" smooth="yes"/>
      <point x="43" y="189" type="line" smooth="yes"/>
      <point x="6" y="43"/>
      <point x="-1" y="-68"/>
      <point x="45" y="-130" type="curve" smooth="yes"/>
      <point x="66" y="-157"/>
      <point x="89" y="-150"/>
      <point x="112" y="-132" type="curve"/>
      <point x="47" y="-35"/>
      <point x="54" y="25"/>
      <point x="94" y="183" type="curve" smooth="yes"/>
      <point x="96" y="192" type="line" smooth="yes"/>
      <point x="181" y="529"/>
      <point x="326" y="707"/>
      <point x="454" y="707" type="curve" smooth="yes"/>
      <point x="504" y="707"/>
      <point x="534" y="694"/>
      <point x="563" y="662" type="curve"/>
      <point x="573" y="670"/>
      <point x="578" y="677"/>
      <point x="580" y="686" type="curve" smooth="yes"/>
      <point x="588" y="717"/>
      <point x="530" y="760"/>
      <point x="470" y="760" type="curve" smooth="yes"/>
      <point x="285" y="760"/>
      <point x="130" y="538"/>
    </contour>
    <contour>
      <point x="212" y="-190" type="curve" smooth="yes"/>
      <point x="275" y="-190"/>
      <point x="336" y="-179"/>
      <point x="356" y="-163" type="curve" smooth="yes"/>
      <point x="369" y="-153"/>
      <point x="378" y="-136"/>
      <point x="383" y="-117" type="curve" smooth="yes"/>
      <point x="385" y="-109" type="line"/>
      <point x="381" y="-109" type="line"/>
      <point x="330" y="-131"/>
      <point x="286" y="-137"/>
      <point x="228" y="-137" type="curve" smooth="yes"/>
      <point x="148" y="-137"/>
      <point x="90" y="-116"/>
      <point x="54" y="-54" type="curve"/>
      <point x="39" y="-76"/>
      <point x="33" y="-113"/>
      <point x="45" y="-130" type="curve"/>
      <point x="77" y="-172"/>
      <point x="131" y="-190"/>
    </contour>
  </outline>
</glyph>
<glyph name="B" format="1">
  <advance width="600"/>
  <unicode hex="0042"/>
  <outline>
    <contour>
      <point x="93" y="17" type="curve"/>
      <point x="240" y="607" type="line" smooth="yes"/>
      <point x="253" y="659"/>
      <point x="241" y="680"/>
      <point x="202" y="680" type="curve"/>
      <point x="40" y="32" type="line"/>
      <point x="38" y="23"/>
      <point x="58" y="17"/>
    </contour>
    <contour>
      <point x="158" y="700" type="curve"/>
      <point x="156" y="696"/>
      <point x="155" y="692"/>
      <point x="155" y="687" type="curve" smooth="yes"/>
      <point x="150" y="670"/>
      <point x="150" y="659"/>
      <point x="157" y="652" type="curve" smooth="yes"/>
      <point x="161" y="648"/>
      <point x="166" y="647"/>
      <point x="170" y="647" type="curve" smooth="yes"/>
      <point x="177" y="647"/>
      <point x="187" y="648"/>
      <point x="200" y="650" type="curve" smooth="yes"/>
      <point x="255" y="659"/>
      <point x="335" y="667"/>
      <point x="390" y="667" type="curve" smooth="yes"/>
      <point x="477" y="667"/>
      <point x="520" y="655"/>
      <point x="558" y="607" type="curve"/>
      <point x="595" y="643"/>
      <point x="525" y="720"/>
      <point x="422" y="720" type="curve" smooth="yes"/>
      <point x="342" y="720"/>
      <point x="265" y="717"/>
    </contour>
    <contour>
      <point x="586" y="504" type="curve" smooth="yes"/>
      <point x="594" y="538" type="line" smooth="yes"/>
      <point x="619" y="635"/>
      <point x="564" y="720"/>
      <point x="422" y="720" type="curve" smooth="yes"/>
      <point x="416" y="720"/>
      <point x="407" y="709"/>
      <point x="404" y="695" type="curve"/>
      <point x="530" y="695"/>
      <point x="558" y="614"/>
      <point x="536" y="527" type="curve" smooth="yes"/>
      <point x="530" y="504" type="line" smooth="yes"/>
      <point x="502" y="396"/>
      <point x="413" y="338"/>
      <point x="222" y="338" type="curve" smooth="yes"/>
      <point x="194" y="338"/>
      <point x="179" y="341"/>
      <point x="162" y="350" type="curve"/>
      <point x="157" y="347"/>
      <point x="154" y="342"/>
      <point x="153" y="335" type="curve" smooth="yes"/>
      <point x="146" y="310"/>
      <point x="177" y="286"/>
      <point x="203" y="286" type="curve" smooth="yes"/>
      <point x="215" y="286" type="line" smooth="yes"/>
      <point x="411" y="286"/>
      <point x="543" y="339"/>
    </contour>
    <contour>
      <point x="504" y="180" type="curve" smooth="yes"/>
      <point x="512" y="214" type="line" smooth="yes"/>
      <point x="531" y="289"/>
      <point x="474" y="353"/>
      <point x="422" y="353" type="curve" smooth="yes"/>
      <point x="417" y="353" type="line" smooth="yes"/>
      <point x="399" y="353"/>
      <point x="371" y="338"/>
      <point x="368" y="328" type="curve"/>
      <point x="368" y="325" type="line"/>
      <point x="373" y="325" type="line"/>
      <point x="438" y="325"/>
      <point x="471" y="272"/>
      <point x="455" y="209" type="curve" smooth="yes"/>
      <point x="449" y="186" type="line" smooth="yes"/>
      <point x="426" y="92"/>
      <point x="317" y="43"/>
      <point x="220" y="43" type="curve" smooth="yes"/>
      <point x="116" y="43"/>
      <point x="92" y="53"/>
      <point x="69" y="75" type="curve"/>
      <point x="53" y="56"/>
      <point x="43" y="41"/>
      <point x="40" y="32" type="curve" smooth="yes"/>
      <point x="35" y="11"/>
      <point x="73" y="-10"/>
      <point x="205" y="-10" type="curve" smooth="yes"/>
      <point x="214" y="-10" type="line" smooth="yes"/>
      <point x="358" y="-10"/>
      <point x="473" y="60"/>
    </contour>
  </outline>
</glyph>
<glyph name="C" format="1">
  <advance width="600"/>
  <unicode hex="0043"/>
  <outline>
    <contour>
      <point x="463" y="667" type="curve" smooth="yes"/>
      <point x="546" y="667"/>
      <point x="583" y="628"/>
      <point x="566" y="555" type="curve"/>
      <point x="579" y="555"/>
      <point x="589" y="564"/>
      <point x="591" y="574" type="curve" smooth="yes"/>
      <point x="602" y="621"/>
      <point x="598" y="654"/>
      <point x="580" y="678" type="curve" smooth="yes"/>
      <point x="562" y="701"/>
      <point x="533" y="720"/>
      <point x="472" y="720" type="curve" smooth="yes"/>
      <point x="301" y="720"/>
      <point x="157" y="558"/>
      <point x="92" y="296" type="curve" smooth="yes"/>
      <point x="85" y="268" type="line" smooth="yes"/>
      <point x="73" y="222"/>
      <point x="89" y="148"/>
      <point x="115" y="151" type="curve"/>
      <point x="119" y="187"/>
      <point x="131" y="233"/>
      <point x="139" y="265" type="curve" smooth="yes"/>
      <point x="143" y="281" type="line" smooth="yes"/>
      <point x="214" y="564"/>
      <point x="349" y="667"/>
    </contour>
    <contour>
      <point x="276" y="-20" type="curve" smooth="yes"/>
      <point x="352" y="-20"/>
      <point x="402" y="-6"/>
      <point x="452" y="34" type="curve" smooth="yes"/>
      <point x="475" y="53"/>
      <point x="484" y="75"/>
      <point x="490" y="101" type="curve" smooth="yes"/>
      <point x="493" y="111"/>
      <point x="494" y="125"/>
      <point x="493" y="136" type="curve"/>
      <point x="489" y="136" type="line"/>
      <point x="432" y="63"/>
      <point x="362" y="33"/>
      <point x="276" y="33" type="curve" smooth="yes"/>
      <point x="118" y="33"/>
      <point x="106" y="171"/>
      <point x="140" y="303" type="curve"/>
      <point x="108" y="303"/>
      <point x="94" y="305"/>
      <point x="85" y="268" type="curve" smooth="yes"/>
      <point x="46" y="115"/>
      <point x="96" y="-20"/>
    </contour>
    <contour>
      <point x="555" y="428" type="curve"/>
      <point x="591" y="574" type="line" smooth="yes"/>
      <point x="610" y="654"/>
      <point x="565" y="702"/>
      <point x="527" y="681" type="curve"/>
      <point x="547" y="642"/>
      <point x="544" y="612"/>
      <point x="536" y="576" type="curve" smooth="yes"/>
      <point x="504" y="453" type="line"/>
      <point x="502" y="445"/>
      <point x="503" y="440"/>
      <point x="508" y="434" type="curve" smooth="yes"/>
      <point x="513" y="428"/>
      <point x="523" y="425"/>
      <point x="536" y="425" type="curve"/>
      <point x="545" y="425"/>
      <point x="550" y="426"/>
    </contour>
    <contour>
      <point x="465" y="711" type="move" name="top"/>
    </contour>
    <contour>
      <point x="260" y="-10" type="move" name="bottom"/>
    </contour>
  </outline>
</glyph>
<glyph name="D" format="1">
  <advance width="600"/>
  <unicode hex="0044"/>
  <outline>
    <contour>
      <point x="94" y="20" type="curve"/>
      <point x="240" y="607" type="line" smooth="yes"/>
      <point x="253" y="659"/>
      <point x="241" y="680"/>
      <point x="202" y="680" type="curve"/>
      <point x="43" y="42" type="line" smooth="yes"/>
      <point x="40" y="31"/>
      <point x="60" y="20"/>
    </contour>
    <contour>
      <point x="158" y="700" type="curve"/>
      <point x="156" y="696"/>
      <point x="155" y="692"/>
      <point x="155" y="687" type="curve"/>
      <point x="150" y="670"/>
      <point x="150" y="660"/>
      <point x="157" y="652" type="curve" smooth="yes"/>
      <point x="160" y="648"/>
      <point x="166" y="647"/>
      <point x="170" y="647" type="curve" smooth="yes"/>
      <point x="177" y="647"/>
      <point x="187" y="648"/>
      <point x="200" y="650" type="curve" smooth="yes"/>
      <point x="252" y="659"/>
      <point x="327" y="667"/>
      <point x="379" y="667" type="curve" smooth="yes"/>
      <point x="461" y="667"/>
      <point x="501" y="654"/>
      <point x="552" y="599" type="curve"/>
      <point x="570" y="639"/>
      <point x="509" y="720"/>
      <point x="403" y="720" type="curve" smooth="yes"/>
      <point x="328" y="720"/>
      <point x="258" y="716"/>
    </contour>
    <contour>
      <point x="553" y="349" type="curve" smooth="yes"/>
      <point x="567" y="401" type="line" smooth="yes"/>
      <point x="616" y="586"/>
      <point x="575" y="720"/>
      <point x="403" y="720" type="curve"/>
      <point x="392" y="720"/>
      <point x="381" y="704"/>
      <point x="378" y="690" type="curve"/>
      <point x="532" y="687"/>
      <point x="558" y="590"/>
      <point x="507" y="387" type="curve" smooth="yes"/>
      <point x="497" y="348" type="line" smooth="yes"/>
      <point x="444" y="141"/>
      <point x="328" y="44"/>
      <point x="163" y="44" type="curve" smooth="yes"/>
      <point x="123" y="44"/>
      <point x="92" y="51"/>
      <point x="65" y="72" type="curve"/>
      <point x="53" y="64"/>
      <point x="47" y="55"/>
      <point x="43" y="42" type="curve" smooth="yes"/>
      <point x="36" y="13"/>
      <point x="76" y="-10"/>
      <point x="155" y="-10" type="curve" smooth="yes"/>
      <point x="160" y="-10" type="line" smooth="yes"/>
      <point x="360" y="-10"/>
      <point x="491" y="112"/>
    </contour>
    <contour>
      <point x="399" y="711" type="move" name="top"/>
    </contour>
  </outline>
</glyph>
<glyph name="E" format="1">
  <advance width="600"/>
  <unicode hex="0045"/>
  <outline>
    <contour>
      <point x="158" y="700" type="line"/>
      <point x="156" y="697"/>
      <point x="155" y="692"/>
      <point x="155" y="689" type="curve" smooth="yes"/>
      <point x="151" y="672"/>
      <point x="151" y="660"/>
      <point x="157" y="652" type="curve" smooth="yes"/>
      <point x="160" y="649"/>
      <point x="163" y="647"/>
      <point x="168" y="647" type="curve" smooth="yes"/>
      <point x="623" y="647" type="line"/>
      <point x="627" y="652"/>
      <point x="630" y="659"/>
      <point x="631" y="666" type="curve" smooth="yes"/>
      <point x="633" y="674"/>
      <point x="635" y="686"/>
      <point x="628" y="695" type="curve" smooth="yes"/>
      <point x="626" y="698"/>
      <point x="622" y="700"/>
      <point x="616" y="700" type="curve" smooth="yes"/>
    </contour>
    <contour>
      <point x="96" y="29" type="curve"/>
      <point x="238" y="597" type="line" smooth="yes"/>
      <point x="250" y="648"/>
      <point x="242" y="672"/>
      <point x="200" y="672" type="curve"/>
      <point x="47" y="53" type="line"/>
      <point x="42" y="34"/>
      <point x="61" y="29"/>
    </contour>
    <contour>
      <point x="47" y="53" type="line"/>
      <point x="44" y="41" type="line" smooth="yes"/>
      <point x="39" y="21"/>
      <point x="49" y="0"/>
      <point x="67" y="0" type="curve" smooth="yes"/>
      <point x="464" y="0" type="line"/>
      <point x="465" y="3"/>
      <point x="466" y="6"/>
      <point x="468" y="11" type="curve" smooth="yes"/>
      <point x="475" y="40"/>
      <point x="470" y="53"/>
      <point x="453" y="53" type="curve" smooth="yes"/>
    </contour>
    <contour>
      <point x="144" y="353" type="line"/>
      <point x="134" y="315"/>
      <point x="136" y="301"/>
      <point x="156" y="301" type="curve" smooth="yes"/>
      <point x="462" y="301" type="line"/>
      <point x="462" y="304"/>
      <point x="463" y="308"/>
      <point x="464" y="311" type="curve" smooth="yes"/>
      <point x="469" y="327"/>
      <point x="468" y="338"/>
      <point x="461" y="347" type="curve" smooth="yes"/>
      <point x="458" y="351"/>
      <point x="455" y="353"/>
      <point x="449" y="353" type="curve" smooth="yes"/>
    </contour>
    <contour>
      <point x="412" y="711" type="move" name="top"/>
    </contour>
    <contour>
      <point x="464" y="-1" type="move" name="ogonek"/>
    </contour>
    <contour>
      <point x="259" y="-1" type="move" name="bottom"/>
    </contour>
  </outline>
</glyph>
<glyph name="F" format="1">
  <advance width="600"/>
  <unicode hex="0046"/>
  <outline>
    <contour>
      <point x="99" y="-7" type="curve"/>
      <point x="97" y="22"/>
      <point x="98" y="34"/>
      <point x="110" y="81" type="curve" smooth="yes"/>
      <point x="239" y="597" type="line"/>
      <point x="252" y="652"/>
      <point x="242" y="678"/>
      <point x="203" y="678" type="curve"/>
      <point x="44" y="41" type="line" smooth="yes"/>
      <point x="36" y="9"/>
      <point x="52" y="-7"/>
      <point x="92" y="-7" type="curve" smooth="yes"/>
      <point x="94" y="-7"/>
      <point x="96" y="-7"/>
    </contour>
    <contour>
      <point x="158" y="700" type="line"/>
      <point x="156" y="697"/>
      <point x="155" y="692"/>
      <point x="155" y="689" type="curve" smooth="yes"/>
      <point x="151" y="671"/>
      <point x="151" y="660"/>
      <point x="157" y="652" type="curve" smooth="yes"/>
      <point x="160" y="649"/>
      <point x="163" y="647"/>
      <point x="169" y="647" type="curve"/>
      <point x="624" y="647" type="line"/>
      <point x="627" y="652"/>
      <point x="630" y="659"/>
      <point x="631" y="666" type="curve" smooth="yes"/>
      <point x="634" y="675"/>
      <point x="634" y="686"/>
      <point x="628" y="695" type="curve" smooth="yes"/>
      <point x="626" y="698"/>
      <point x="622" y="700"/>
      <point x="616" y="700" type="curve"/>
    </contour>
    <contour>
      <point x="129" y="303" type="line"/>
      <point x="120" y="266"/>
      <point x="121" y="249"/>
      <point x="141" y="249" type="curve"/>
      <point x="487" y="249" type="line"/>
      <point x="488" y="253"/>
      <point x="489" y="257"/>
      <point x="490" y="260" type="curve"/>
      <point x="493" y="277"/>
      <point x="493" y="288"/>
      <point x="487" y="297" type="curve" smooth="yes"/>
      <point x="484" y="301"/>
      <point x="480" y="303"/>
      <point x="473" y="303" type="curve"/>
    </contour>
  </outline>
</glyph>
<glyph name="G" format="1">
  <advance width="600"/>
  <unicode hex="0047"/>
  <outline>
    <contour>
      <point x="464" y="667" type="curve" smooth="yes"/>
      <point x="552" y="667"/>
      <point x="575" y="630"/>
      <point x="559" y="567" type="curve"/>
      <point x="580" y="567"/>
      <point x="589" y="575"/>
      <point x="592" y="587" type="curve" smooth="yes"/>
      <point x="602" y="629"/>
      <point x="597" y="656"/>
      <point x="581" y="679" type="curve" smooth="yes"/>
      <point x="559" y="706"/>
      <point x="531" y="720"/>
      <point x="474" y="720" type="curve" smooth="yes"/>
      <point x="303" y="720"/>
      <point x="150" y="573"/>
      <point x="77" y="294" type="curve" smooth="yes"/>
      <point x="72" y="276" type="line" smooth="yes"/>
      <point x="58" y="221"/>
      <point x="74" y="138"/>
      <point x="109" y="121" type="curve"/>
      <point x="106" y="166"/>
      <point x="114" y="214"/>
      <point x="128" y="269" type="curve" smooth="yes"/>
      <point x="132" y="285" type="line" smooth="yes"/>
      <point x="192" y="527"/>
      <point x="328" y="667"/>
    </contour>
    <contour>
      <point x="259" y="33" type="curve" smooth="yes"/>
      <point x="135" y="33"/>
      <point x="78" y="120"/>
      <point x="127" y="305" type="curve"/>
      <point x="99" y="305"/>
      <point x="79" y="301"/>
      <point x="72" y="276" type="curve" smooth="yes"/>
      <point x="26" y="92"/>
      <point x="93" y="-20"/>
      <point x="255" y="-20" type="curve" smooth="yes"/>
      <point x="377" y="-20"/>
      <point x="475" y="51"/>
      <point x="507" y="181" type="curve" smooth="yes"/>
      <point x="509" y="189" type="line" smooth="yes"/>
      <point x="524" y="244"/>
      <point x="513" y="277"/>
      <point x="470" y="277" type="curve"/>
      <point x="470" y="255"/>
      <point x="467" y="229"/>
      <point x="459" y="197" type="curve" smooth="yes"/>
      <point x="434" y="100"/>
      <point x="358" y="33"/>
    </contour>
    <contour>
      <point x="298" y="301" type="line"/>
      <point x="295" y="298"/>
      <point x="292" y="292"/>
      <point x="291" y="286" type="curve" smooth="yes"/>
      <point x="288" y="273"/>
      <point x="289" y="264"/>
      <point x="295" y="256" type="curve" smooth="yes"/>
      <point x="298" y="251"/>
      <point x="305" y="249"/>
      <point x="315" y="249" type="curve"/>
      <point x="561" y="249" type="line"/>
      <point x="563" y="259" type="line" smooth="yes"/>
      <point x="570" y="288"/>
      <point x="566" y="301"/>
      <point x="549" y="301" type="curve" smooth="yes"/>
    </contour>
    <contour>
      <point x="564" y="478" type="curve"/>
      <point x="592" y="587" type="line" smooth="yes"/>
      <point x="606" y="645"/>
      <point x="576" y="690"/>
      <point x="532" y="676" type="curve"/>
      <point x="546" y="638"/>
      <point x="543" y="615"/>
      <point x="537" y="591" type="curve" smooth="yes"/>
      <point x="515" y="504" type="line" smooth="yes"/>
      <point x="510" y="484"/>
      <point x="518" y="476"/>
      <point x="547" y="476" type="curve" smooth="yes"/>
      <point x="553" y="476"/>
      <point x="560" y="477"/>
    </contour>
    <contour>
      <point x="428" y="711" type="move" name="top"/>
    </contour>
    <contour>
      <point x="250" y="-1" type="move" name="bottom"/>
    </contour>
  </outline>
</glyph>
<glyph name="H" format="1">
  <advance width="600"/>
  <unicode hex="0048"/>
  <outline>
    <contour>
      <point x="193" y="707" type="curve"/>
      <point x="190" y="672"/>
      <point x="182" y="637"/>
      <point x="173" y="599" type="curve" smooth="yes"/>
      <point x="27" y="15" type="line" smooth="yes"/>
      <point x="22" y="-4"/>
      <point x="39" y="-10"/>
      <point x="65" y="-10" type="curve" smooth="yes"/>
      <point x="68" y="-10"/>
      <point x="73" y="-10"/>
      <point x="76" y="-10" type="curve"/>
      <point x="242" y="649" type="line" smooth="yes"/>
      <point x="247" y="672"/>
      <point x="250" y="689"/>
      <point x="241" y="701" type="curve" smooth="yes"/>
      <point x="236" y="707"/>
      <point x="229" y="710"/>
      <point x="213" y="710" type="curve" smooth="yes"/>
      <point x="206" y="710"/>
      <point x="200" y="709"/>
    </contour>
    <contour>
      <point x="460" y="-7" type="curve"/>
      <point x="463" y="28"/>
      <point x="471" y="63"/>
      <point x="480" y="101" type="curve" smooth="yes"/>
      <point x="626" y="685" type="line" smooth="yes"/>
      <point x="630" y="704"/>
      <point x="613" y="710"/>
      <point x="587" y="710" type="curve" smooth="yes"/>
      <point x="584" y="710"/>
      <point x="580" y="710"/>
      <point x="577" y="710" type="curve"/>
      <point x="412" y="51" type="line" smooth="yes"/>
      <point x="406" y="28"/>
      <point x="404" y="11"/>
      <point x="412" y="-1" type="curve" smooth="yes"/>
      <point x="416" y="-7"/>
      <point x="423" y="-10"/>
      <point x="439" y="-10" type="curve" smooth="yes"/>
      <point x="446" y="-10"/>
      <point x="453" y="-9"/>
    </contour>
    <contour>
      <point x="59" y="305" type="line"/>
      <point x="57" y="294" type="line" smooth="yes"/>
      <point x="52" y="277"/>
      <point x="52" y="266"/>
      <point x="59" y="257" type="curve" smooth="yes"/>
      <point x="62" y="254"/>
      <point x="65" y="252"/>
      <point x="70" y="252" type="curve"/>
      <point x="492" y="252" type="line"/>
      <point x="502" y="292"/>
      <point x="476" y="305"/>
      <point x="426" y="305" type="curve" smooth="yes"/>
    </contour>
    <contour>
      <point x="400" y="711" type="move" name="top"/>
    </contour>
  </outline>
</glyph>
<glyph name="I" format="1">
  <advance width="600"/>
  <unicode hex="0049"/>
  <outline>
    <contour>
      <point x="268" y="26" type="curve"/>
      <point x="411" y="597" type="line" smooth="yes"/>
      <point x="423" y="647"/>
      <point x="415" y="670"/>
      <point x="373" y="670" type="curve"/>
      <point x="231" y="103" type="line" smooth="yes"/>
      <point x="219" y="52"/>
      <point x="227" y="26"/>
    </contour>
    <contour>
      <point x="180" y="700" type="line"/>
      <point x="177" y="696"/>
      <point x="175" y="689"/>
      <point x="173" y="683" type="curve"/>
      <point x="170" y="670"/>
      <point x="171" y="662"/>
      <point x="177" y="654" type="curve" smooth="yes"/>
      <point x="181" y="649"/>
      <point x="186" y="647"/>
      <point x="196" y="647" type="curve" smooth="yes"/>
      <point x="624" y="647" type="line"/>
      <point x="627" y="652"/>
      <point x="630" y="658"/>
      <point x="631" y="663" type="curve" smooth="yes"/>
      <point x="637" y="688"/>
      <point x="632" y="700"/>
      <point x="615" y="700" type="curve" smooth="yes"/>
    </contour>
    <contour>
      <point x="19" y="53" type="line"/>
      <point x="16" y="49"/>
      <point x="13" y="42"/>
      <point x="11" y="35" type="curve"/>
      <point x="8" y="23"/>
      <point x="9" y="14"/>
      <point x="15" y="7" type="curve" smooth="yes"/>
      <point x="19" y="2"/>
      <point x="23" y="0"/>
      <point x="31" y="0" type="curve" smooth="yes"/>
      <point x="465" y="0" type="line"/>
      <point x="466" y="4"/>
      <point x="467" y="9"/>
      <point x="469" y="13" type="curve" smooth="yes"/>
      <point x="475" y="40"/>
      <point x="470" y="53"/>
      <point x="453" y="53" type="curve" smooth="yes"/>
    </contour>
    <contour>
      <point x="412" y="711" type="move" name="top"/>
    </contour>
    <contour>
      <point x="464" y="-1" type="move" name="ogonek"/>
    </contour>
    <contour>
      <point x="234" y="-1" type="move" name="bottom"/>
    </contour>
  </outline>
</glyph>
<glyph name="J" format="1">
  <advance width="600"/>
  <unicode hex="004A"/>
  <outline>
    <contour>
      <point x="258" y="700" type="line"/>
      <point x="256" y="697"/>
      <point x="255" y="692"/>
      <point x="255" y="689" type="curve" smooth="yes"/>
      <point x="251" y="672"/>
      <point x="251" y="662"/>
      <point x="257" y="653" type="curve" smooth="yes"/>
      <point x="261" y="649"/>
      <point x="265" y="647"/>
      <point x="274" y="647" type="curve" smooth="yes"/>
      <point x="565" y="647" type="line"/>
      <point x="575" y="686"/>
      <point x="572" y="700"/>
      <point x="552" y="700" type="curve"/>
    </contour>
    <contour>
      <point x="485" y="215" type="curve" smooth="yes"/>
      <point x="599" y="675" type="line" smooth="yes"/>
      <point x="603" y="691"/>
      <point x="591" y="700"/>
      <point x="560" y="700" type="curve" smooth="yes"/>
      <point x="549" y="700" type="line"/>
      <point x="432" y="230" type="line" smooth="yes"/>
      <point x="405" y="125"/>
      <point x="382" y="91"/>
      <point x="298" y="32" type="curve"/>
      <point x="347" y="13"/>
      <point x="447" y="69"/>
    </contour>
    <contour>
      <point x="222" y="33" type="curve" smooth="yes"/>
      <point x="145" y="33"/>
      <point x="107" y="54"/>
      <point x="63" y="85" type="curve"/>
      <point x="59" y="85" type="line"/>
      <point x="55" y="80"/>
      <point x="52" y="74"/>
      <point x="50" y="67" type="curve"/>
      <point x="46" y="49"/>
      <point x="47" y="34"/>
      <point x="53" y="26" type="curve" smooth="yes"/>
      <point x="76" y="-4"/>
      <point x="140" y="-20"/>
      <point x="212" y="-20" type="curve" smooth="yes"/>
      <point x="219" y="-20" type="line" smooth="yes"/>
      <point x="368" y="-20"/>
      <point x="443" y="52"/>
      <point x="485" y="215" type="curve"/>
      <point x="487" y="228"/>
      <point x="484" y="250"/>
      <point x="458" y="250" type="curve"/>
      <point x="418" y="102"/>
      <point x="336" y="33"/>
    </contour>
    <contour>
      <point x="409" y="711" type="move" name="top"/>
    </contour>
  </outline>
</glyph>
<glyph name="L" format="1">
  <advance width="600"/>
  <unicode hex="004C"/>
  <outline>
    <contour>
      <point x="94" y="23" type="curve"/>
      <point x="251" y="649" type="line" smooth="yes"/>
      <point x="256" y="672"/>
      <point x="259" y="689"/>
      <point x="250" y="701" type="curve" smooth="yes"/>
      <point x="245" y="707"/>
      <point x="238" y="710"/>
      <point x="222" y="710" type="curve" smooth="yes"/>
      <point x="215" y="710"/>
      <point x="209" y="709"/>
      <point x="202" y="707" type="curve"/>
      <point x="199" y="672"/>
      <point x="191" y="637"/>
      <point x="182" y="599" type="curve" smooth="yes"/>
      <point x="45" y="54" type="line" smooth="yes"/>
      <point x="41" y="35"/>
      <point x="64" y="23"/>
    </contour>
    <contour>
      <point x="45" y="54" type="line"/>
      <point x="43" y="44" type="line" smooth="yes"/>
      <point x="39" y="24"/>
      <point x="48" y="0"/>
      <point x="66" y="0" type="curve" smooth="yes"/>
      <point x="465" y="0" type="line"/>
      <point x="467" y="4"/>
      <point x="468" y="9"/>
      <point x="469" y="13" type="curve" smooth="yes"/>
      <point x="476" y="41"/>
      <point x="470" y="54"/>
      <point x="453" y="54" type="curve" smooth="yes"/>
    </contour>
    <contour>
      <point x="478" y="550" type="move" name="caronslovak"/>
    </contour>
    <contour>
      <point x="239" y="711" type="move" name="top"/>
    </contour>
    <contour>
      <point x="400" y="400" type="move" name="dot"/>
    </contour>
    <contour>
      <point x="244" y="-1" type="move" name="bottom"/>
    </contour>
  </outline>
</glyph>
<glyph name="M" format="1">
  <advance width="600"/>
  <unicode hex="004D"/>
  <outline>
    <contour>
      <point x="65" y="-10" type="curve"/>
      <point x="83" y="59"/>
      <point x="100" y="128"/>
      <point x="117" y="197" type="curve" smooth="yes"/>
      <point x="160" y="367"/>
      <point x="210" y="578"/>
      <point x="239" y="691" type="curve" smooth="yes"/>
      <point x="241" y="697"/>
      <point x="240" y="701"/>
      <point x="237" y="704" type="curve" smooth="yes"/>
      <point x="234" y="708"/>
      <point x="233" y="710"/>
      <point x="226" y="710" type="curve" smooth="yes"/>
      <point x="214" y="710"/>
      <point x="199" y="709"/>
      <point x="182" y="705" type="curve"/>
      <point x="179" y="670"/>
      <point x="172" y="636"/>
      <point x="163" y="600" type="curve" smooth="yes"/>
      <point x="16" y="15" type="line" smooth="yes"/>
      <point x="15" y="10"/>
      <point x="16" y="5"/>
      <point x="19" y="2" type="curve" smooth="yes"/>
      <point x="25" y="-7"/>
      <point x="37" y="-10"/>
      <point x="54" y="-10" type="curve" smooth="yes"/>
      <point x="57" y="-10"/>
      <point x="61" y="-10"/>
    </contour>
    <contour>
      <point x="462" y="-7" type="curve"/>
      <point x="465" y="28"/>
      <point x="471" y="63"/>
      <point x="480" y="100" type="curve" smooth="yes"/>
      <point x="627" y="685" type="line" smooth="yes"/>
      <point x="628" y="691"/>
      <point x="628" y="695"/>
      <point x="625" y="698" type="curve" smooth="yes"/>
      <point x="618" y="706"/>
      <point x="599" y="710"/>
      <point x="567" y="710" type="curve" smooth="yes"/>
      <point x="564" y="710" type="line"/>
      <point x="576" y="702"/>
      <point x="576" y="695"/>
      <point x="570" y="670" type="curve" smooth="yes"/>
      <point x="538" y="541"/>
      <point x="471" y="281"/>
      <point x="447" y="186" type="curve" smooth="yes"/>
      <point x="435" y="135"/>
      <point x="422" y="85"/>
      <point x="409" y="34" type="curve" smooth="yes"/>
      <point x="405" y="17"/>
      <point x="405" y="8"/>
      <point x="409" y="2" type="curve" smooth="yes"/>
      <point x="415" y="-7"/>
      <point x="424" y="-10"/>
      <point x="441" y="-10" type="curve"/>
      <point x="448" y="-10"/>
      <point x="456" y="-9"/>
    </contour>
    <contour>
      <point x="226" y="710" type="line"/>
      <point x="199" y="458"/>
      <point x="217" y="267"/>
      <point x="266" y="203" type="curve"/>
      <point x="269" y="199"/>
      <point x="277" y="196"/>
      <point x="282" y="196" type="curve"/>
      <point x="291" y="196"/>
      <point x="303" y="221"/>
      <point x="303" y="243" type="curve"/>
      <point x="259" y="328"/>
      <point x="255" y="521"/>
      <point x="272" y="684" type="curve"/>
      <point x="273" y="701"/>
      <point x="257" y="710"/>
      <point x="229" y="710" type="curve"/>
    </contour>
    <contour>
      <point x="564" y="710" type="curve" smooth="yes"/>
      <point x="557" y="710"/>
      <point x="548" y="709"/>
      <point x="541" y="707" type="curve"/>
      <point x="466" y="496"/>
      <point x="368" y="339"/>
      <point x="278" y="249" type="curve"/>
      <point x="273" y="244"/>
      <point x="275" y="196"/>
      <point x="282" y="196" type="curve"/>
      <point x="291" y="196" type="line"/>
      <point x="387" y="274"/>
      <point x="519" y="487"/>
      <point x="576" y="669" type="curve"/>
      <point x="587" y="702"/>
      <point x="587" y="710"/>
    </contour>
  </outline>
</glyph>
<glyph name="N" format="1">
  <advance width="600"/>
  <unicode hex="004E"/>
  <outline>
    <contour>
      <point x="67" y="-8" type="curve"/>
      <point x="183" y="457" type="line"/>
      <point x="210" y="565"/>
      <point x="236" y="698"/>
      <point x="230" y="706" type="curve" smooth="yes"/>
      <point x="228" y="709"/>
      <point x="227" y="710"/>
      <point x="225" y="710" type="curve"/>
      <point x="213" y="710"/>
      <point x="202" y="710"/>
      <point x="183" y="707" type="curve"/>
      <point x="180" y="672"/>
      <point x="170" y="622"/>
      <point x="164" y="599" type="curve" smooth="yes"/>
      <point x="17" y="15" type="line"/>
      <point x="13" y="-4"/>
      <point x="31" y="-10"/>
      <point x="48" y="-10" type="curve"/>
      <point x="55" y="-10"/>
      <point x="62" y="-9"/>
    </contour>
    <contour>
      <point x="452" y="-10" type="line"/>
      <point x="626" y="685" type="line"/>
      <point x="631" y="704"/>
      <point x="613" y="710"/>
      <point x="589" y="710" type="curve"/>
      <point x="578" y="710" type="line"/>
      <point x="421" y="85" type="line"/>
      <point x="414" y="57"/>
      <point x="412" y="5"/>
      <point x="417" y="-2" type="curve" smooth="yes"/>
      <point x="422" y="-8"/>
      <point x="425" y="-10"/>
      <point x="434" y="-10" type="curve"/>
    </contour>
    <contour>
      <point x="225" y="710" type="line"/>
      <point x="223" y="692"/>
      <point x="223" y="671"/>
      <point x="222" y="652" type="curve" smooth="yes"/>
      <point x="208" y="357"/>
      <point x="323" y="107"/>
      <point x="404" y="-1" type="curve"/>
      <point x="409" y="-7"/>
      <point x="416" y="-10"/>
      <point x="434" y="-10" type="curve" smooth="yes"/>
      <point x="438" y="-10"/>
      <point x="436" y="-10"/>
      <point x="440" y="-10" type="curve"/>
      <point x="443" y="-10"/>
      <point x="445" y="5"/>
      <point x="448" y="20" type="curve"/>
      <point x="318" y="234"/>
      <point x="265" y="417"/>
      <point x="270" y="679" type="curve"/>
      <point x="270" y="694"/>
      <point x="256" y="710"/>
      <point x="228" y="710" type="curve"/>
    </contour>
    <contour>
      <point x="412" y="711" type="move" name="top"/>
    </contour>
    <contour>
      <point x="230" y="-1" type="move" name="bottom"/>
    </contour>
  </outline>
</glyph>
<glyph name="O" format="1">
  <advance width="600"/>
  <unicode hex="004F"/>
  <outline>
    <contour>
      <point x="407" y="720" type="curve" smooth="yes"/>
      <point x="252" y="720"/>
      <point x="144" y="580"/>
      <point x="84" y="343" type="curve" smooth="yes"/>
      <point x="76" y="311" type="line" smooth="yes"/>
      <point x="25" y="107"/>
      <point x="88" y="-20"/>
      <point x="249" y="-20" type="curve" smooth="yes"/>
      <point x="262" y="-20"/>
      <point x="273" y="-7"/>
      <point x="278" y="13" type="curve"/>
      <point x="129" y="19"/>
      <point x="87" y="132"/>
      <point x="133" y="313" type="curve" smooth="yes"/>
      <point x="138" y="336" type="line" smooth="yes"/>
      <point x="190" y="543"/>
      <point x="276" y="667"/>
      <point x="404" y="667" type="curve" smooth="yes"/>
      <point x="441" y="667"/>
      <point x="474" y="657"/>
      <point x="511" y="637" type="curve"/>
      <point x="532" y="671"/>
      <point x="482" y="720"/>
    </contour>
    <contour>
      <point x="249" y="-20" type="curve" smooth="yes"/>
      <point x="404" y="-20"/>
      <point x="499" y="102"/>
      <point x="552" y="312" type="curve" smooth="yes"/>
      <point x="560" y="343" type="line" smooth="yes"/>
      <point x="616" y="566"/>
      <point x="569" y="720"/>
      <point x="407" y="720" type="curve" smooth="yes"/>
      <point x="394" y="720"/>
      <point x="381" y="707"/>
      <point x="376" y="687" type="curve"/>
      <point x="523" y="681"/>
      <point x="553" y="540"/>
      <point x="503" y="338" type="curve" smooth="yes"/>
      <point x="497" y="315" type="line" smooth="yes"/>
      <point x="452" y="135"/>
      <point x="374" y="33"/>
      <point x="246" y="33" type="curve" smooth="yes"/>
      <point x="209" y="33"/>
      <point x="178" y="41"/>
      <point x="143" y="63" type="curve"/>
      <point x="108" y="35"/>
      <point x="169" y="-20"/>
    </contour>
    <contour>
      <point x="412" y="711" type="move" name="top"/>
    </contour>
    <contour>
      <point x="325" y="-1" type="move" name="ogonek"/>
    </contour>
    <contour>
      <point x="234" y="-1" type="move" name="bottom"/>
    </contour>
  </outline>
</glyph>
<glyph name="P" format="1">
  <advance width="600"/>
  <unicode hex="0050"/>
  <outline>
    <contour>
      <point x="94" y="-7" type="curve"/>
      <point x="97" y="28"/>
      <point x="105" y="63"/>
      <point x="114" y="101" type="curve" smooth="yes"/>
      <point x="240" y="607" type="line" smooth="yes"/>
      <point x="253" y="659"/>
      <point x="242" y="680"/>
      <point x="203" y="680" type="curve"/>
      <point x="46" y="51" type="line" smooth="yes"/>
      <point x="40" y="28"/>
      <point x="38" y="11"/>
      <point x="46" y="-1" type="curve" smooth="yes"/>
      <point x="50" y="-7"/>
      <point x="57" y="-10"/>
      <point x="73" y="-10" type="curve" smooth="yes"/>
      <point x="80" y="-10"/>
      <point x="87" y="-9"/>
    </contour>
    <contour>
      <point x="158" y="700" type="curve"/>
      <point x="156" y="696"/>
      <point x="155" y="692"/>
      <point x="155" y="687" type="curve"/>
      <point x="150" y="670"/>
      <point x="150" y="660"/>
      <point x="157" y="652" type="curve" smooth="yes"/>
      <point x="160" y="648"/>
      <point x="166" y="647"/>
      <point x="170" y="647" type="curve" smooth="yes"/>
      <point x="177" y="647"/>
      <point x="187" y="648"/>
      <point x="200" y="650" type="curve" smooth="yes"/>
      <point x="252" y="659"/>
      <point x="327" y="667"/>
      <point x="379" y="667" type="curve" smooth="yes"/>
      <point x="470" y="667"/>
      <point x="509" y="651"/>
      <point x="555" y="597" type="curve"/>
      <point x="583" y="653"/>
      <point x="492" y="720"/>
      <point x="406" y="720" type="curve" smooth="yes"/>
      <point x="331" y="720"/>
      <point x="258" y="716"/>
    </contour>
    <contour>
      <point x="572" y="449" type="curve" smooth="yes"/>
      <point x="588" y="515" type="line" smooth="yes"/>
      <point x="617" y="630"/>
      <point x="552" y="720"/>
      <point x="406" y="720" type="curve"/>
      <point x="384" y="720"/>
      <point x="372" y="708"/>
      <point x="369" y="693" type="curve"/>
      <point x="495" y="692"/>
      <point x="562" y="632"/>
      <point x="531" y="508" type="curve" smooth="yes"/>
      <point x="520" y="462" type="line" smooth="yes"/>
      <point x="487" y="331"/>
      <point x="339" y="239"/>
      <point x="188" y="239" type="curve" smooth="yes"/>
      <point x="152" y="239"/>
      <point x="144" y="239"/>
      <point x="136" y="239" type="curve"/>
      <point x="131" y="236"/>
      <point x="128" y="233"/>
      <point x="127" y="227" type="curve" smooth="yes"/>
      <point x="121" y="207"/>
      <point x="154" y="186"/>
      <point x="180" y="186" type="curve" smooth="yes"/>
      <point x="184" y="186" type="line" smooth="yes"/>
      <point x="373" y="186"/>
      <point x="533" y="292"/>
    </contour>
  </outline>
</glyph>
<glyph name="Q" format="1">
  <advance width="600"/>
  <unicode hex="0051"/>
  <outline>
    <contour>
      <point x="407" y="720" type="curve" smooth="yes"/>
      <point x="252" y="720"/>
      <point x="144" y="580"/>
      <point x="84" y="343" type="curve" smooth="yes"/>
      <point x="76" y="311" type="line" smooth="yes"/>
      <point x="25" y="107"/>
      <point x="88" y="-20"/>
      <point x="249" y="-20" type="curve" smooth="yes"/>
      <point x="262" y="-20"/>
      <point x="273" y="-7"/>
      <point x="278" y="13" type="curve"/>
      <point x="129" y="19"/>
      <point x="87" y="132"/>
      <point x="133" y="313" type="curve" smooth="yes"/>
      <point x="138" y="336" type="line" smooth="yes"/>
      <point x="190" y="543"/>
      <point x="276" y="667"/>
      <point x="404" y="667" type="curve" smooth="yes"/>
      <point x="441" y="667"/>
      <point x="474" y="657"/>
      <point x="511" y="637" type="curve"/>
      <point x="532" y="671"/>
      <point x="482" y="720"/>
    </contour>
    <contour>
      <point x="249" y="-20" type="curve" smooth="yes"/>
      <point x="404" y="-20"/>
      <point x="499" y="102"/>
      <point x="552" y="312" type="curve" smooth="yes"/>
      <point x="560" y="343" type="line" smooth="yes"/>
      <point x="616" y="566"/>
      <point x="569" y="720"/>
      <point x="407" y="720" type="curve" smooth="yes"/>
      <point x="394" y="720"/>
      <point x="381" y="707"/>
      <point x="376" y="687" type="curve"/>
      <point x="523" y="681"/>
      <point x="553" y="540"/>
      <point x="503" y="338" type="curve" smooth="yes"/>
      <point x="497" y="315" type="line" smooth="yes"/>
      <point x="452" y="135"/>
      <point x="374" y="33"/>
      <point x="246" y="33" type="curve" smooth="yes"/>
      <point x="209" y="33"/>
      <point x="178" y="41"/>
      <point x="143" y="63" type="curve"/>
      <point x="108" y="35"/>
      <point x="169" y="-20"/>
    </contour>
    <contour>
      <point x="339" y="40" type="line"/>
      <point x="308" y="23"/>
      <point x="290" y="4"/>
      <point x="293" y="-5" type="curve" smooth="yes"/>
      <point x="327" y="-78" type="line" smooth="yes"/>
      <point x="354" y="-134"/>
      <point x="379" y="-156"/>
      <point x="418" y="-156" type="curve" smooth="yes"/>
      <point x="421" y="-156" type="line" smooth="yes"/>
      <point x="458" y="-156"/>
      <point x="480" y="-137"/>
      <point x="488" y="-107" type="curve" smooth="yes"/>
      <point x="491" y="-95"/>
      <point x="492" y="-84"/>
      <point x="492" y="-75" type="curve"/>
      <point x="488" y="-75" type="line"/>
      <point x="476" y="-85"/>
      <point x="459" y="-92"/>
      <point x="443" y="-92" type="curve" smooth="yes"/>
      <point x="419" y="-92"/>
      <point x="398" y="-82"/>
      <point x="382" y="-50" type="curve" smooth="yes"/>
    </contour>
  </outline>
</glyph>
<glyph name="R" format="1">
  <advance width="600"/>
  <unicode hex="0052"/>
  <outline>
    <contour>
      <point x="94" y="-7" type="curve"/>
      <point x="97" y="28"/>
      <point x="105" y="63"/>
      <point x="114" y="101" type="curve" smooth="yes"/>
      <point x="240" y="607" type="line" smooth="yes"/>
      <point x="253" y="659"/>
      <point x="242" y="680"/>
      <point x="203" y="680" type="curve"/>
      <point x="46" y="51" type="line" smooth="yes"/>
      <point x="40" y="28"/>
      <point x="38" y="11"/>
      <point x="46" y="-1" type="curve" smooth="yes"/>
      <point x="50" y="-7"/>
      <point x="57" y="-10"/>
      <point x="73" y="-10" type="curve" smooth="yes"/>
      <point x="80" y="-10"/>
      <point x="87" y="-9"/>
    </contour>
    <contour>
      <point x="158" y="700" type="curve"/>
      <point x="156" y="696"/>
      <point x="155" y="691"/>
      <point x="155" y="687" type="curve"/>
      <point x="150" y="670"/>
      <point x="150" y="660"/>
      <point x="157" y="652" type="curve" smooth="yes"/>
      <point x="160" y="648"/>
      <point x="166" y="647"/>
      <point x="170" y="647" type="curve" smooth="yes"/>
      <point x="177" y="647"/>
      <point x="187" y="648"/>
      <point x="200" y="650" type="curve" smooth="yes"/>
      <point x="252" y="659"/>
      <point x="328" y="667"/>
      <point x="379" y="667" type="curve" smooth="yes"/>
      <point x="470" y="667"/>
      <point x="509" y="651"/>
      <point x="556" y="596" type="curve"/>
      <point x="583" y="653"/>
      <point x="493" y="720"/>
      <point x="405" y="720" type="curve" smooth="yes"/>
      <point x="331" y="720"/>
      <point x="258" y="716"/>
    </contour>
    <contour>
      <point x="571" y="449" type="curve" smooth="yes"/>
      <point x="588" y="515" type="line" smooth="yes"/>
      <point x="616" y="628"/>
      <point x="553" y="720"/>
      <point x="405" y="720" type="curve"/>
      <point x="384" y="720"/>
      <point x="371" y="708"/>
      <point x="368" y="693" type="curve"/>
      <point x="494" y="691"/>
      <point x="561" y="632"/>
      <point x="531" y="508" type="curve" smooth="yes"/>
      <point x="519" y="462" type="line" smooth="yes"/>
      <point x="489" y="340"/>
      <point x="346" y="254"/>
      <point x="187" y="254" type="curve" smooth="yes"/>
      <point x="151" y="254"/>
      <point x="143" y="254"/>
      <point x="135" y="255" type="curve"/>
      <point x="130" y="251"/>
      <point x="126" y="247"/>
      <point x="125" y="242" type="curve" smooth="yes"/>
      <point x="120" y="221"/>
      <point x="151" y="201"/>
      <point x="177" y="201" type="curve" smooth="yes"/>
      <point x="181" y="201" type="line" smooth="yes"/>
      <point x="372" y="201"/>
      <point x="536" y="303"/>
    </contour>
    <contour>
      <point x="288" y="257" type="line"/>
      <point x="259" y="240"/>
      <point x="244" y="219"/>
      <point x="248" y="210" type="curve" smooth="yes"/>
      <point x="335" y="51" type="line" smooth="yes"/>
      <point x="362" y="0"/>
      <point x="389" y="-20"/>
      <point x="429" y="-20" type="curve" smooth="yes"/>
      <point x="432" y="-20" type="line" smooth="yes"/>
      <point x="467" y="-20"/>
      <point x="482" y="-3"/>
      <point x="489" y="24" type="curve" smooth="yes"/>
      <point x="491" y="34"/>
      <point x="492" y="45"/>
      <point x="492" y="54" type="curve"/>
      <point x="488" y="54" type="line"/>
      <point x="474" y="43"/>
      <point x="458" y="35"/>
      <point x="442" y="35" type="curve" smooth="yes"/>
      <point x="419" y="35"/>
      <point x="401" y="49"/>
      <point x="383" y="81" type="curve" smooth="yes"/>
    </contour>
    <contour>
      <point x="412" y="711" type="move" name="top"/>
    </contour>
    <contour>
      <point x="234" y="-1" type="move" name="bottom"/>
    </contour>
  </outline>
</glyph>
<glyph name="T" format="1">
  <advance width="600"/>
  <unicode hex="0054"/>
  <outline>
    <contour>
      <point x="161" y="700" type="line"/>
      <point x="158" y="696"/>
      <point x="156" y="690"/>
      <point x="153" y="683" type="curve" smooth="yes"/>
      <point x="150" y="671"/>
      <point x="151" y="662"/>
      <point x="158" y="654" type="curve" smooth="yes"/>
      <point x="161" y="649"/>
      <point x="167" y="647"/>
      <point x="177" y="647" type="curve" smooth="yes"/>
      <point x="644" y="647" type="line"/>
      <point x="646" y="651"/>
      <point x="649" y="657"/>
      <point x="651" y="663" type="curve" smooth="yes"/>
      <point x="656" y="687"/>
      <point x="652" y="700"/>
      <point x="635" y="700" type="curve" smooth="yes"/>
    </contour>
    <contour>
      <point x="267" y="-7" type="curve"/>
      <point x="270" y="28"/>
      <point x="278" y="63"/>
      <point x="287" y="101" type="curve" smooth="yes"/>
      <point x="412" y="602" type="line" smooth="yes"/>
      <point x="426" y="656"/>
      <point x="416" y="677"/>
      <point x="376" y="677" type="curve"/>
      <point x="219" y="51" type="line" smooth="yes"/>
      <point x="213" y="28"/>
      <point x="211" y="11"/>
      <point x="219" y="-1" type="curve" smooth="yes"/>
      <point x="224" y="-7"/>
      <point x="231" y="-10"/>
      <point x="246" y="-10" type="curve" smooth="yes"/>
      <point x="254" y="-10"/>
      <point x="260" y="-9"/>
    </contour>
    <contour>
      <point x="411" y="711" type="move" name="top"/>
    </contour>
    <contour>
      <point x="234" y="-1" type="move" name="bottom"/>
    </contour>
  </outline>
</glyph>
<glyph name="U" format="1">
  <advance width="600"/>
  <unicode hex="0055"/>
  <outline>
    <contour>
      <point x="171" y="706" type="curve"/>
      <point x="172" y="671"/>
      <point x="165" y="628"/>
      <point x="151" y="571" type="curve" smooth="yes"/>
      <point x="48" y="159" type="line"/>
      <point x="38" y="120"/>
      <point x="52" y="118"/>
      <point x="82" y="118" type="curve"/>
      <point x="133" y="282"/>
      <point x="167" y="388"/>
      <point x="205" y="543" type="curve" smooth="yes"/>
      <point x="207" y="551" type="line"/>
      <point x="237" y="673"/>
      <point x="225" y="710"/>
      <point x="195" y="710" type="curve"/>
      <point x="186" y="710"/>
      <point x="179" y="709"/>
    </contour>
    <contour>
      <point x="177" y="-19" type="curve" smooth="yes"/>
      <point x="273" y="-19"/>
      <point x="354" y="22"/>
      <point x="433" y="129" type="curve" smooth="yes"/>
      <point x="453" y="157"/>
      <point x="465" y="188"/>
      <point x="463" y="219" type="curve"/>
      <point x="347" y="73"/>
      <point x="275" y="32"/>
      <point x="191" y="32" type="curve" smooth="yes"/>
      <point x="114" y="32"/>
      <point x="77" y="79"/>
      <point x="97" y="193" type="curve"/>
      <point x="59" y="183"/>
      <point x="51" y="172"/>
      <point x="48" y="159" type="curve" smooth="yes"/>
      <point x="24" y="63"/>
      <point x="74" y="-19"/>
    </contour>
    <contour>
      <point x="460" y="-7" type="curve"/>
      <point x="463" y="28"/>
      <point x="471" y="63"/>
      <point x="480" y="100" type="curve" smooth="yes"/>
      <point x="626" y="685" type="line" smooth="yes"/>
      <point x="631" y="704"/>
      <point x="614" y="710"/>
      <point x="589" y="710" type="curve" smooth="yes"/>
      <point x="585" y="710"/>
      <point x="580" y="710"/>
      <point x="577" y="710" type="curve"/>
      <point x="417" y="71" type="line" smooth="yes"/>
      <point x="408" y="35"/>
      <point x="406" y="12"/>
      <point x="415" y="-1" type="curve" smooth="yes"/>
      <point x="419" y="-7"/>
      <point x="426" y="-10"/>
      <point x="441" y="-10" type="curve" smooth="yes"/>
      <point x="447" y="-10"/>
      <point x="454" y="-9"/>
    </contour>
    <contour>
      <point x="412" y="711" type="move" name="top"/>
    </contour>
    <contour>
      <point x="460" y="-8" type="move" name="ogonek"/>
    </contour>
    <contour>
      <point x="406" y="688" type="move" name="ring"/>
    </contour>
    <contour>
      <point x="228" y="-1" type="move" name="bottom"/>
    </contour>
  </outline>
</glyph>
<glyph name="V" format="1">
  <advance width="600"/>
  <unicode hex="0056"/>
  <outline>
    <contour>
      <point x="185" y="710" type="curve"/>
      <point x="174" y="710" type="line"/>
      <point x="94" y="319"/>
      <point x="95" y="142"/>
      <point x="190" y="15" type="curve" smooth="yes"/>
      <point x="202" y="-2"/>
      <point x="214" y="-10"/>
      <point x="233" y="-10" type="curve" smooth="yes"/>
      <point x="241" y="-10" type="line" smooth="yes"/>
      <point x="259" y="-10"/>
      <point x="270" y="4"/>
      <point x="281" y="20" type="curve"/>
      <point x="274" y="20"/>
      <point x="270" y="20"/>
      <point x="265" y="20" type="curve" smooth="yes"/>
      <point x="260" y="20"/>
      <point x="256" y="21"/>
      <point x="251" y="28" type="curve"/>
      <point x="149" y="160"/>
      <point x="145" y="293"/>
      <point x="227" y="689" type="curve"/>
      <point x="229" y="703"/>
      <point x="215" y="710"/>
    </contour>
    <contour>
      <point x="602" y="710" type="curve"/>
      <point x="591" y="710" type="line"/>
      <point x="463" y="294"/>
      <point x="405" y="157"/>
      <point x="228" y="27" type="curve"/>
      <point x="213" y="16"/>
      <point x="207" y="-10"/>
      <point x="237" y="-10" type="curve"/>
      <point x="263" y="-10" type="line"/>
      <point x="444" y="119"/>
      <point x="524" y="299"/>
      <point x="640" y="680" type="curve"/>
      <point x="644" y="695"/>
      <point x="630" y="710"/>
    </contour>
  </outline>
</glyph>
<glyph name="W" format="1">
  <advance width="600"/>
  <unicode hex="0057"/>
  <outline>
    <contour>
      <point x="156" y="710" type="curve"/>
      <point x="32" y="264"/>
      <point x="26" y="111"/>
      <point x="94" y="6" type="curve"/>
      <point x="102" y="-5"/>
      <point x="110" y="-10"/>
      <point x="121" y="-10" type="curve"/>
      <point x="130" y="-10" type="line" smooth="yes"/>
      <point x="137" y="-10"/>
      <point x="140" y="19"/>
      <point x="142" y="26" type="curve"/>
      <point x="80" y="137"/>
      <point x="86" y="218"/>
      <point x="203" y="690" type="curve"/>
      <point x="204" y="694"/>
      <point x="204" y="698"/>
      <point x="201" y="701" type="curve" smooth="yes"/>
      <point x="197" y="705"/>
      <point x="183" y="710"/>
      <point x="167" y="710" type="curve"/>
      <point x="163" y="710"/>
      <point x="159" y="710"/>
    </contour>
    <contour>
      <point x="611" y="710" type="curve"/>
      <point x="512" y="245"/>
      <point x="454" y="155"/>
      <point x="343" y="34" type="curve"/>
      <point x="336" y="-3"/>
      <point x="340" y="-10"/>
      <point x="344" y="-10" type="curve"/>
      <point x="373" y="-10" type="line"/>
      <point x="514" y="144"/>
      <point x="563" y="252"/>
      <point x="663" y="685" type="curve"/>
      <point x="665" y="694"/>
      <point x="665" y="698"/>
      <point x="662" y="702" type="curve" smooth="yes"/>
      <point x="658" y="707"/>
      <point x="648" y="710"/>
      <point x="622" y="710" type="curve"/>
      <point x="619" y="710"/>
      <point x="614" y="710"/>
    </contour>
    <contour>
      <point x="371" y="596" type="curve"/>
      <point x="355" y="596" type="line"/>
      <point x="285" y="316"/>
      <point x="237" y="169"/>
      <point x="110" y="17" type="curve"/>
      <point x="108" y="8"/>
      <point x="113" y="-10"/>
      <point x="121" y="-10" type="curve"/>
      <point x="142" y="-10" type="line"/>
      <point x="281" y="135"/>
      <point x="343" y="348"/>
      <point x="396" y="563" type="curve"/>
      <point x="402" y="586"/>
      <point x="394" y="596"/>
    </contour>
    <contour>
      <point x="371" y="596" type="curve"/>
      <point x="362" y="596" type="line"/>
      <point x="274" y="258"/>
      <point x="271" y="88"/>
      <point x="318" y="-1" type="curve"/>
      <point x="321" y="-7"/>
      <point x="328" y="-10"/>
      <point x="335" y="-10" type="curve"/>
      <point x="354" y="-10" type="line"/>
      <point x="359" y="-10"/>
      <point x="363" y="5"/>
      <point x="368" y="24" type="curve"/>
      <point x="309" y="99"/>
      <point x="341" y="309"/>
      <point x="407" y="573" type="curve"/>
      <point x="410" y="585"/>
      <point x="402" y="596"/>
    </contour>
    <contour>
      <point x="411" y="711" type="move" name="top"/>
    </contour>
  </outline>
</glyph>
<glyph name="X" format="1">
  <advance width="600"/>
  <unicode hex="0058"/>
  <outline>
    <contour>
      <point x="467" y="-6" type="curve" smooth="yes"/>
      <point x="479" y="-6"/>
      <point x="492" y="-4"/>
      <point x="503" y="0" type="curve"/>
      <point x="436" y="73"/>
      <point x="367" y="181"/>
      <point x="317" y="305" type="curve" smooth="yes"/>
      <point x="314" y="314"/>
      <point x="310" y="322"/>
      <point x="306" y="331" type="curve" smooth="yes"/>
      <point x="254" y="460"/>
      <point x="233" y="597"/>
      <point x="219" y="685" type="curve" smooth="yes"/>
      <point x="217" y="699"/>
      <point x="202" y="706"/>
      <point x="168" y="706" type="curve" smooth="yes"/>
      <point x="154" y="706" type="line"/>
      <point x="172" y="584"/>
      <point x="204" y="426"/>
      <point x="256" y="295" type="curve" smooth="yes"/>
      <point x="259" y="288"/>
      <point x="263" y="280"/>
      <point x="265" y="273" type="curve" smooth="yes"/>
      <point x="314" y="158"/>
      <point x="381" y="66"/>
      <point x="426" y="11" type="curve" smooth="yes"/>
      <point x="436" y="-1"/>
      <point x="443" y="-6"/>
    </contour>
    <contour>
      <point x="616" y="706" type="curve"/>
      <point x="609" y="706" type="line"/>
      <point x="518" y="562"/>
      <point x="418" y="449"/>
      <point x="275" y="325" type="curve"/>
      <point x="252" y="304"/>
      <point x="286" y="287"/>
      <point x="316" y="291" type="curve"/>
      <point x="463" y="419"/>
      <point x="565" y="531"/>
      <point x="664" y="678" type="curve"/>
      <point x="668" y="684"/>
      <point x="668" y="691"/>
      <point x="664" y="695" type="curve" smooth="yes"/>
      <point x="655" y="704"/>
      <point x="635" y="706"/>
    </contour>
    <contour>
      <point x="25" y="-6" type="curve" smooth="yes"/>
      <point x="31" y="-6" type="line"/>
      <point x="103" y="102"/>
      <point x="199" y="204"/>
      <point x="300" y="285" type="curve"/>
      <point x="325" y="306"/>
      <point x="287" y="323"/>
      <point x="256" y="319" type="curve"/>
      <point x="142" y="225"/>
      <point x="52" y="128"/>
      <point x="-25" y="22" type="curve"/>
      <point x="-32" y="13"/>
      <point x="-30" y="8"/>
      <point x="-26" y="4" type="curve" smooth="yes"/>
      <point x="-19" y="-3"/>
      <point x="-1" y="-6"/>
    </contour>
  </outline>
</glyph>
<glyph name="Y" format="1">
  <advance width="600"/>
  <unicode hex="0059"/>
  <outline>
    <contour>
      <point x="153" y="710" type="line"/>
      <point x="132" y="445"/>
      <point x="169" y="357"/>
      <point x="263" y="232" type="curve"/>
      <point x="267" y="227"/>
      <point x="276" y="226"/>
      <point x="283" y="226" type="curve"/>
      <point x="295" y="226"/>
      <point x="302" y="237"/>
      <point x="309" y="259" type="curve"/>
      <point x="218" y="376"/>
      <point x="187" y="454"/>
      <point x="206" y="689" type="curve"/>
      <point x="207" y="703"/>
      <point x="194" y="710"/>
      <point x="164" y="710" type="curve" smooth="yes"/>
    </contour>
    <contour>
      <point x="610" y="710" type="line"/>
      <point x="525" y="485"/>
      <point x="438" y="384"/>
      <point x="281" y="262" type="curve"/>
      <point x="250" y="238"/>
      <point x="276" y="226"/>
      <point x="283" y="226" type="curve"/>
      <point x="314" y="226" type="line"/>
      <point x="474" y="353"/>
      <point x="574" y="462"/>
      <point x="659" y="680" type="curve"/>
      <point x="664" y="695"/>
      <point x="650" y="710"/>
      <point x="621" y="710" type="curve"/>
    </contour>
    <contour>
      <point x="264" y="-7" type="curve"/>
      <point x="266" y="28"/>
      <point x="274" y="63"/>
      <point x="283" y="101" type="curve" smooth="yes"/>
      <point x="319" y="243" type="line" smooth="yes"/>
      <point x="325" y="264"/>
      <point x="298" y="268"/>
      <point x="269" y="268" type="curve"/>
      <point x="215" y="51" type="line" smooth="yes"/>
      <point x="209" y="28"/>
      <point x="207" y="10"/>
      <point x="215" y="-1" type="curve" smooth="yes"/>
      <point x="220" y="-7"/>
      <point x="227" y="-10"/>
      <point x="243" y="-10" type="curve" smooth="yes"/>
      <point x="250" y="-10"/>
      <point x="257" y="-9"/>
    </contour>
    <contour>
      <point x="412" y="711" type="move" name="top"/>
    </contour>
  </outline>
</glyph>
<glyph name="Z" format="1">
  <advance width="600"/>
  <unicode hex="005A"/>
  <outline>
    <contour>
      <point x="226" y="700" type="line"/>
      <point x="224" y="697"/>
      <point x="222" y="691"/>
      <point x="221" y="685" type="curve" smooth="yes"/>
      <point x="216" y="670"/>
      <point x="216" y="661"/>
      <point x="223" y="652" type="curve" smooth="yes"/>
      <point x="226" y="649"/>
      <point x="230" y="647"/>
      <point x="235" y="647" type="curve" smooth="yes"/>
      <point x="546" y="647" type="line" smooth="yes"/>
      <point x="590" y="647"/>
      <point x="607" y="638"/>
      <point x="621" y="621" type="curve" smooth="yes"/>
      <point x="635" y="631"/>
      <point x="640" y="637"/>
      <point x="642" y="645" type="curve"/>
      <point x="644" y="649" type="line" smooth="yes"/>
      <point x="651" y="673"/>
      <point x="635" y="700"/>
      <point x="571" y="700" type="curve" smooth="yes"/>
    </contour>
    <contour>
      <point x="598" y="674" type="curve"/>
      <point x="484" y="435"/>
      <point x="273" y="234"/>
      <point x="7" y="53" type="curve"/>
      <point x="-1" y="22"/>
      <point x="41" y="19"/>
      <point x="68" y="37" type="curve" smooth="yes"/>
      <point x="433" y="275"/>
      <point x="623" y="570"/>
      <point x="642" y="645" type="curve"/>
      <point x="647" y="664"/>
      <point x="623" y="671"/>
    </contour>
    <contour>
      <point x="480" y="0" type="line"/>
      <point x="481" y="3"/>
      <point x="482" y="8"/>
      <point x="483" y="11" type="curve" smooth="yes"/>
      <point x="488" y="29"/>
      <point x="487" y="39"/>
      <point x="480" y="48" type="curve" smooth="yes"/>
      <point x="477" y="51"/>
      <point x="473" y="53"/>
      <point x="467" y="53" type="curve" smooth="yes"/>
      <point x="196" y="53" type="line" smooth="yes"/>
      <point x="146" y="53"/>
      <point x="61" y="53"/>
      <point x="7" y="53" type="curve"/>
      <point x="4" y="43" type="line" smooth="yes"/>
      <point x="0" y="18"/>
      <point x="-1" y="0"/>
      <point x="18" y="0" type="curve" smooth="yes"/>
    </contour>
    <contour>
      <point x="203" y="517" type="curve"/>
      <point x="225" y="607"/>
      <point x="263" y="688"/>
      <point x="265" y="695" type="curve"/>
      <point x="270" y="714"/>
      <point x="252" y="720"/>
      <point x="229" y="720" type="curve" smooth="yes"/>
      <point x="219" y="720" type="line"/>
      <point x="192" y="662"/>
      <point x="168" y="600"/>
      <point x="154" y="542" type="curve"/>
      <point x="149" y="522"/>
      <point x="166" y="516"/>
      <point x="190" y="516" type="curve" smooth="yes"/>
      <point x="194" y="516"/>
      <point x="199" y="516"/>
    </contour>
    <contour>
      <point x="412" y="711" type="move" name="top"/>
    </contour>
  </outline>
</glyph>
<glyph name="bracketleft" format="1">
  <advance width="600"/>
  <unicode hex="005B"/>
  <outline>
    <contour>
      <point x="301" y="649" type="curve" smooth="yes"/>
      <point x="112" y="-106" type="line" smooth="yes"/>
      <point x="109" y="-118"/>
      <point x="137" y="-120"/>
      <point x="164" y="-120" type="curve"/>
      <point x="374" y="718" type="line" smooth="yes"/>
      <point x="379" y="740"/>
      <point x="378" y="760"/>
      <point x="350" y="760" type="curve" smooth="yes"/>
      <point x="339" y="760"/>
      <point x="330" y="759"/>
      <point x="320" y="756" type="curve"/>
      <point x="317" y="721"/>
      <point x="310" y="687"/>
    </contour>
    <contour>
      <point x="618" y="705" type="line"/>
      <point x="621" y="710"/>
      <point x="624" y="717"/>
      <point x="626" y="724" type="curve" smooth="yes"/>
      <point x="628" y="733"/>
      <point x="629" y="746"/>
      <point x="623" y="755" type="curve" smooth="yes"/>
      <point x="620" y="758"/>
      <point x="616" y="760"/>
      <point x="611" y="760" type="curve" smooth="yes"/>
      <point x="350" y="760" type="line"/>
      <point x="343" y="731"/>
      <point x="344" y="705"/>
      <point x="405" y="705" type="curve"/>
    </contour>
    <contour>
      <point x="404" y="-161" type="line"/>
      <point x="405" y="-157"/>
      <point x="407" y="-152"/>
      <point x="408" y="-148" type="curve" smooth="yes"/>
      <point x="415" y="-119"/>
      <point x="410" y="-106"/>
      <point x="393" y="-106" type="curve" smooth="yes"/>
      <point x="112" y="-106" type="line"/>
      <point x="109" y="-116" type="line" smooth="yes"/>
      <point x="104" y="-137"/>
      <point x="114" y="-161"/>
      <point x="132" y="-161" type="curve" smooth="yes"/>
    </contour>
  </outline>
</glyph>
<glyph name="bracketright" format="1">
  <advance width="600"/>
  <unicode hex="005D"/>
  <outline>
    <contour>
      <point x="317" y="-50" type="curve" smooth="yes"/>
      <point x="506" y="705" type="line" smooth="yes"/>
      <point x="509" y="717"/>
      <point x="481" y="719"/>
      <point x="454" y="719" type="curve"/>
      <point x="244" y="-119" type="line" smooth="yes"/>
      <point x="239" y="-141"/>
      <point x="240" y="-161"/>
      <point x="268" y="-161" type="curve" smooth="yes"/>
      <point x="279" y="-161"/>
      <point x="288" y="-160"/>
      <point x="298" y="-157" type="curve"/>
      <point x="301" y="-122"/>
      <point x="308" y="-88"/>
    </contour>
    <contour>
      <point x="0" y="-106" type="line"/>
      <point x="-3" y="-111"/>
      <point x="-6" y="-118"/>
      <point x="-8" y="-125" type="curve" smooth="yes"/>
      <point x="-10" y="-134"/>
      <point x="-11" y="-147"/>
      <point x="-5" y="-156" type="curve" smooth="yes"/>
      <point x="-2" y="-159"/>
      <point x="2" y="-161"/>
      <point x="7" y="-161" type="curve" smooth="yes"/>
      <point x="268" y="-161" type="line"/>
      <point x="275" y="-132"/>
      <point x="274" y="-106"/>
      <point x="213" y="-106" type="curve"/>
    </contour>
    <contour>
      <point x="214" y="760" type="line"/>
      <point x="213" y="756"/>
      <point x="211" y="751"/>
      <point x="210" y="747" type="curve" smooth="yes"/>
      <point x="203" y="718"/>
      <point x="208" y="705"/>
      <point x="225" y="705" type="curve" smooth="yes"/>
      <point x="506" y="705" type="line"/>
      <point x="509" y="715" type="line" smooth="yes"/>
      <point x="514" y="736"/>
      <point x="504" y="760"/>
      <point x="486" y="760" type="curve" smooth="yes"/>
    </contour>
  </outline>
</glyph>
<glyph name="asciicircum" format="1">
  <advance width="600"/>
  <unicode hex="005E"/>
  <outline>
    <contour>
      <point x="149" y="375" type="line"/>
      <point x="235" y="548"/>
      <point x="299" y="620"/>
      <point x="427" y="729" type="curve"/>
      <point x="439" y="741"/>
      <point x="435" y="752"/>
      <point x="422" y="760" type="curve"/>
      <point x="396" y="760" type="line"/>
      <point x="298" y="686"/>
      <point x="222" y="603"/>
      <point x="145" y="474" type="curve" smooth="yes"/>
      <point x="122" y="435"/>
      <point x="108" y="407"/>
      <point x="105" y="396" type="curve" smooth="yes"/>
      <point x="102" y="385"/>
      <point x="113" y="375"/>
      <point x="139" y="375" type="curve"/>
    </contour>
    <contour>
      <point x="548" y="377" type="curve"/>
      <point x="552" y="565"/>
      <point x="519" y="647"/>
      <point x="462" y="735" type="curve" smooth="yes"/>
      <point x="451" y="752"/>
      <point x="442" y="760"/>
      <point x="426" y="760" type="curve" smooth="yes"/>
      <point x="418" y="760" type="line" smooth="yes"/>
      <point x="403" y="760"/>
      <point x="388" y="747"/>
      <point x="374" y="729" type="curve"/>
      <point x="379" y="729"/>
      <point x="383" y="729"/>
      <point x="384" y="729" type="curve" smooth="yes"/>
      <point x="389" y="729"/>
      <point x="394" y="726"/>
      <point x="398" y="720" type="curve" smooth="yes"/>
      <point x="471" y="618"/>
      <point x="488" y="558"/>
      <point x="494" y="392" type="curve" smooth="yes"/>
      <point x="494" y="381"/>
      <point x="509" y="375"/>
      <point x="529" y="375" type="curve" smooth="yes"/>
      <point x="536" y="375"/>
      <point x="542" y="376"/>
    </contour>
  </outline>
</glyph>
<glyph name="underscore" format="1">
  <advance width="600"/>
  <unicode hex="005F"/>
  <outline>
    <contour>
      <point x="-31" y="-97" type="line"/>
      <point x="-32" y="-100"/>
      <point x="-33" y="-105"/>
      <point x="-33" y="-108" type="curve" smooth="yes"/>
      <point x="-38" y="-126"/>
      <point x="-38" y="-138"/>
      <point x="-31" y="-147" type="curve" smooth="yes"/>
      <point x="-29" y="-151"/>
      <point x="-24" y="-153"/>
      <point x="-17" y="-153" type="curve"/>
      <point x="437" y="-153" type="line"/>
      <point x="438" y="-149"/>
      <point x="439" y="-144"/>
      <point x="440" y="-140" type="curve" smooth="yes"/>
      <point x="446" y="-115"/>
      <point x="445" y="-97"/>
      <point x="425" y="-97" type="curve"/>
    </contour>
  </outline>
</glyph>
<glyph name="grave" format="1">
  <advance width="600"/>
  <unicode hex="0060"/>
  <outline>
    <contour>
      <point x="435" y="408" type="curve"/>
      <point x="399" y="503"/>
      <point x="385" y="588"/>
      <point x="395" y="712" type="curve"/>
      <point x="386" y="718"/>
      <point x="376" y="720"/>
      <point x="360" y="720" type="curve" smooth="yes"/>
      <point x="336" y="720"/>
      <point x="309" y="712"/>
      <point x="302" y="683" type="curve" smooth="yes"/>
      <point x="283" y="609"/>
      <point x="328" y="453"/>
      <point x="367" y="404" type="curve" smooth="yes"/>
      <point x="371" y="398"/>
      <point x="376" y="396"/>
      <point x="388" y="396" type="curve" smooth="yes"/>
      <point x="406" y="396"/>
      <point x="419" y="399"/>
    </contour>
  </outline>
</glyph>
<glyph name="a" format="1">
  <advance width="600"/>
  <unicode hex="0061"/>
  <outline>
    <contour>
      <point x="358" y="537" type="curve" smooth="yes"/>
      <point x="224" y="537"/>
      <point x="117" y="439"/>
      <point x="60" y="214" type="curve" smooth="yes"/>
      <point x="56" y="197" type="line" smooth="yes"/>
      <point x="42" y="142"/>
      <point x="55" y="57"/>
      <point x="86" y="57" type="curve" smooth="yes"/>
      <point x="96" y="57"/>
      <point x="102" y="58"/>
      <point x="105" y="63" type="curve"/>
      <point x="94" y="114"/>
      <point x="102" y="157"/>
      <point x="114" y="204" type="curve" smooth="yes"/>
      <point x="116" y="213" type="line" smooth="yes"/>
      <point x="161" y="392"/>
      <point x="235" y="484"/>
      <point x="343" y="484" type="curve" smooth="yes"/>
      <point x="412" y="484"/>
      <point x="442" y="455"/>
      <point x="478" y="396" type="curve"/>
      <point x="485" y="398"/>
      <point x="492" y="413"/>
      <point x="493" y="420" type="curve" smooth="yes"/>
      <point x="505" y="474"/>
      <point x="445" y="537"/>
    </contour>
    <contour>
      <point x="165" y="-10" type="curve" smooth="yes"/>
      <point x="254" y="-10"/>
      <point x="356" y="64"/>
      <point x="424" y="179" type="curve" smooth="yes"/>
      <point x="445" y="215"/>
      <point x="450" y="247"/>
      <point x="446" y="272" type="curve"/>
      <point x="334" y="102"/>
      <point x="251" y="44"/>
      <point x="175" y="44" type="curve" smooth="yes"/>
      <point x="115" y="44"/>
      <point x="85" y="109"/>
      <point x="101" y="210" type="curve"/>
      <point x="69" y="210"/>
      <point x="58" y="204"/>
      <point x="56" y="197" type="curve" smooth="yes"/>
      <point x="25" y="70"/>
      <point x="65" y="-10"/>
    </contour>
    <contour>
      <point x="559" y="529" type="line"/>
      <point x="555" y="531"/>
      <point x="550" y="532"/>
      <point x="543" y="532" type="curve" smooth="yes"/>
      <point x="523" y="532"/>
      <point x="503" y="527"/>
      <point x="498" y="507" type="curve" smooth="yes"/>
      <point x="392" y="81" type="line" smooth="yes"/>
      <point x="380" y="35"/>
      <point x="410" y="8"/>
      <point x="453" y="23" type="curve"/>
      <point x="440" y="41"/>
      <point x="440" y="52"/>
      <point x="449" y="88" type="curve"/>
    </contour>
    <contour>
      <point x="507" y="51" type="line"/>
      <point x="503" y="51" type="line"/>
      <point x="492" y="44"/>
      <point x="480" y="42"/>
      <point x="468" y="42" type="curve" smooth="yes"/>
      <point x="446" y="42"/>
      <point x="429" y="55"/>
      <point x="440" y="104" type="curve"/>
      <point x="408" y="106"/>
      <point x="396" y="100"/>
      <point x="392" y="81" type="curve" smooth="yes"/>
      <point x="378" y="28"/>
      <point x="398" y="-10"/>
      <point x="446" y="-10" type="curve" smooth="yes"/>
      <point x="449" y="-10" type="line" smooth="yes"/>
      <point x="476" y="-10"/>
      <point x="496" y="10"/>
      <point x="505" y="44" type="curve"/>
    </contour>
  </outline>
</glyph>
<glyph name="d" format="1">
  <advance width="600"/>
  <unicode hex="0064"/>
  <outline>
    <contour>
      <point x="352" y="537" type="curve" smooth="yes"/>
      <point x="218" y="537"/>
      <point x="120" y="450"/>
      <point x="60" y="212" type="curve" smooth="yes"/>
      <point x="56" y="196" type="line" smooth="yes"/>
      <point x="42" y="141"/>
      <point x="53" y="57"/>
      <point x="84" y="57" type="curve" smooth="yes"/>
      <point x="92" y="57"/>
      <point x="99" y="60"/>
      <point x="102" y="65" type="curve"/>
      <point x="99" y="117"/>
      <point x="102" y="156"/>
      <point x="113" y="204" type="curve" smooth="yes"/>
      <point x="117" y="218" type="line" smooth="yes"/>
      <point x="160" y="389"/>
      <point x="236" y="484"/>
      <point x="344" y="484" type="curve" smooth="yes"/>
      <point x="413" y="484"/>
      <point x="449" y="458"/>
      <point x="479" y="391" type="curve"/>
      <point x="486" y="393"/>
      <point x="494" y="407"/>
      <point x="495" y="414" type="curve" smooth="yes"/>
      <point x="506" y="466"/>
      <point x="446" y="537"/>
    </contour>
    <contour>
      <point x="171" y="-10" type="curve" smooth="yes"/>
      <point x="263" y="-10"/>
      <point x="360" y="66"/>
      <point x="425" y="177" type="curve" smooth="yes"/>
      <point x="445" y="213"/>
      <point x="451" y="252"/>
      <point x="448" y="276" type="curve"/>
      <point x="339" y="105"/>
      <point x="253" y="44"/>
      <point x="175" y="44" type="curve" smooth="yes"/>
      <point x="108" y="44"/>
      <point x="82" y="96"/>
      <point x="100" y="207" type="curve"/>
      <point x="68" y="207"/>
      <point x="58" y="204"/>
      <point x="56" y="196" type="curve" smooth="yes"/>
      <point x="24" y="74"/>
      <point x="64" y="-10"/>
    </contour>
    <contour>
      <point x="551" y="755" type="curve"/>
      <point x="553" y="727"/>
      <point x="552" y="713"/>
      <point x="540" y="667" type="curve" smooth="yes"/>
      <point x="390" y="77" type="line"/>
      <point x="382" y="45"/>
      <point x="378" y="22"/>
      <point x="388" y="9" type="curve" smooth="yes"/>
      <point x="396" y="-2"/>
      <point x="408" y="-4"/>
      <point x="419" y="-4" type="curve" smooth="yes"/>
      <point x="424" y="-4"/>
      <point x="431" y="-3"/>
      <point x="436" y="-1" type="curve"/>
      <point x="435" y="27"/>
      <point x="436" y="41"/>
      <point x="448" y="87" type="curve" smooth="yes"/>
      <point x="600" y="685" type="line"/>
      <point x="607" y="712"/>
      <point x="610" y="733"/>
      <point x="601" y="745" type="curve" smooth="yes"/>
      <point x="593" y="756"/>
      <point x="582" y="758"/>
      <point x="571" y="758" type="curve" smooth="yes"/>
      <point x="565" y="758"/>
      <point x="557" y="757"/>
    </contour>
    <contour>
      <point x="666" y="711" type="move" name="caronslovak"/>
    </contour>
  </outline>
</glyph>
<glyph name="e" format="1">
  <advance width="600"/>
  <unicode hex="0065"/>
  <outline>
    <contour>
      <point x="381" y="484" type="curve" smooth="yes"/>
      <point x="436" y="484"/>
      <point x="468" y="471"/>
      <point x="501" y="435" type="curve"/>
      <point x="509" y="445"/>
      <point x="514" y="453"/>
      <point x="515" y="460" type="curve"/>
      <point x="522" y="486"/>
      <point x="468" y="537"/>
      <point x="390" y="537" type="curve"/>
      <point x="262" y="537"/>
      <point x="132" y="457"/>
      <point x="83" y="262" type="curve" smooth="yes"/>
      <point x="79" y="247" type="line" smooth="yes"/>
      <point x="38" y="89"/>
      <point x="128" y="-10"/>
      <point x="283" y="-10" type="curve" smooth="yes"/>
      <point x="301" y="-10"/>
      <point x="311" y="11"/>
      <point x="314" y="22" type="curve"/>
      <point x="151" y="22"/>
      <point x="104" y="128"/>
      <point x="133" y="232" type="curve" smooth="yes"/>
      <point x="137" y="247" type="line" smooth="yes"/>
      <point x="176" y="395"/>
      <point x="270" y="484"/>
    </contour>
    <contour>
      <point x="454" y="37" type="curve" smooth="yes"/>
      <point x="467" y="51"/>
      <point x="475" y="67"/>
      <point x="480" y="87" type="curve" smooth="yes"/>
      <point x="482" y="96"/>
      <point x="483" y="103"/>
      <point x="482" y="113" type="curve"/>
      <point x="478" y="113" type="line"/>
      <point x="420" y="64"/>
      <point x="376" y="44"/>
      <point x="288" y="44" type="curve" smooth="yes"/>
      <point x="186" y="44"/>
      <point x="155" y="76"/>
      <point x="117" y="126" type="curve"/>
      <point x="86" y="74"/>
      <point x="180" y="-10"/>
      <point x="283" y="-10" type="curve" smooth="yes"/>
      <point x="382" y="-10"/>
      <point x="422" y="9"/>
    </contour>
    <contour>
      <point x="301" y="205" type="line" smooth="yes"/>
      <point x="449" y="205"/>
      <point x="524" y="264"/>
      <point x="546" y="351" type="curve" smooth="yes"/>
      <point x="548" y="359" type="line" smooth="yes"/>
      <point x="569" y="446"/>
      <point x="513" y="537"/>
      <point x="390" y="537" type="curve" smooth="yes"/>
      <point x="370" y="537"/>
      <point x="358" y="523"/>
      <point x="353" y="500" type="curve"/>
      <point x="457" y="500"/>
      <point x="510" y="435"/>
      <point x="493" y="363" type="curve" smooth="yes"/>
      <point x="491" y="355" type="line" smooth="yes"/>
      <point x="475" y="294"/>
      <point x="414" y="255"/>
      <point x="303" y="255" type="curve" smooth="yes"/>
      <point x="219" y="255"/>
      <point x="171" y="266"/>
      <point x="133" y="291" type="curve"/>
      <point x="121" y="267"/>
      <point x="121" y="257"/>
      <point x="129" y="248" type="curve" smooth="yes"/>
      <point x="146" y="226"/>
      <point x="214" y="205"/>
      <point x="293" y="205" type="curve" smooth="yes"/>
    </contour>
    <contour>
      <point x="392" y="538" type="move" name="top"/>
    </contour>
    <contour>
      <point x="441" y="38" type="move" name="ogonek"/>
    </contour>
    <contour>
      <point x="234" y="-1" type="move" name="bottom"/>
    </contour>
  </outline>
</glyph>
<glyph name="f" format="1">
  <advance width="600"/>
  <unicode hex="0066"/>
  <outline>
    <contour>
      <point x="346" y="651" type="curve"/>
      <point x="394" y="692"/>
      <point x="440" y="708"/>
      <point x="511" y="708" type="curve" smooth="yes"/>
      <point x="567" y="708"/>
      <point x="612" y="693"/>
      <point x="649" y="674" type="curve"/>
      <point x="653" y="674" type="line"/>
      <point x="656" y="679"/>
      <point x="657" y="686"/>
      <point x="658" y="691" type="curve"/>
      <point x="663" y="711"/>
      <point x="661" y="724"/>
      <point x="657" y="730" type="curve" smooth="yes"/>
      <point x="648" y="742"/>
      <point x="594" y="761"/>
      <point x="524" y="761" type="curve" smooth="yes"/>
      <point x="436" y="761"/>
      <point x="327" y="687"/>
    </contour>
    <contour>
      <point x="274" y="561" type="curve"/>
      <point x="124" y="-39" type="line" smooth="yes"/>
      <point x="109" y="-98"/>
      <point x="125" y="-110"/>
      <point x="152" y="-110" type="curve"/>
      <point x="160" y="-110"/>
      <point x="169" y="-109"/>
      <point x="176" y="-106" type="curve"/>
      <point x="175" y="-71"/>
      <point x="177" y="-49"/>
      <point x="190" y="1" type="curve"/>
      <point x="320" y="523" type="line"/>
      <point x="323" y="534"/>
      <point x="325" y="544"/>
      <point x="329" y="555" type="curve"/>
      <point x="360" y="673"/>
      <point x="413" y="728"/>
      <point x="532" y="730" type="curve"/>
      <point x="543" y="754"/>
      <point x="533" y="761"/>
      <point x="524" y="761" type="curve" smooth="yes"/>
      <point x="379" y="761"/>
      <point x="309" y="701"/>
    </contour>
    <contour>
      <point x="139" y="525" type="line"/>
      <point x="138" y="522"/>
      <point x="137" y="518"/>
      <point x="136" y="515" type="curve" smooth="yes"/>
      <point x="131" y="498"/>
      <point x="132" y="487"/>
      <point x="139" y="478" type="curve" smooth="yes"/>
      <point x="142" y="474"/>
      <point x="148" y="472"/>
      <point x="160" y="472" type="curve"/>
      <point x="555" y="472" type="line"/>
      <point x="555" y="475"/>
      <point x="557" y="480"/>
      <point x="558" y="484" type="curve" smooth="yes"/>
      <point x="563" y="508"/>
      <point x="563" y="525"/>
      <point x="543" y="525" type="curve"/>
    </contour>
  </outline>
</glyph>
<glyph name="g" format="1">
  <advance width="600"/>
  <unicode hex="0067"/>
  <outline>
    <contour>
      <point x="352" y="537" type="curve" smooth="yes"/>
      <point x="218" y="537"/>
      <point x="119" y="455"/>
      <point x="61" y="216" type="curve" smooth="yes"/>
      <point x="56" y="196" type="line" smooth="yes"/>
      <point x="43" y="142"/>
      <point x="54" y="57"/>
      <point x="85" y="57" type="curve" smooth="yes"/>
      <point x="92" y="57"/>
      <point x="99" y="60"/>
      <point x="103" y="65" type="curve"/>
      <point x="99" y="117"/>
      <point x="102" y="157"/>
      <point x="114" y="204" type="curve" smooth="yes"/>
      <point x="118" y="219" type="line" smooth="yes"/>
      <point x="162" y="391"/>
      <point x="237" y="484"/>
      <point x="345" y="484" type="curve" smooth="yes"/>
      <point x="414" y="484"/>
      <point x="449" y="458"/>
      <point x="480" y="391" type="curve"/>
      <point x="487" y="393"/>
      <point x="495" y="407"/>
      <point x="495" y="414" type="curve" smooth="yes"/>
      <point x="508" y="466"/>
      <point x="446" y="537"/>
    </contour>
    <contour>
      <point x="172" y="-10" type="curve" smooth="yes"/>
      <point x="264" y="-10"/>
      <point x="360" y="66"/>
      <point x="425" y="177" type="curve" smooth="yes"/>
      <point x="446" y="213"/>
      <point x="452" y="252"/>
      <point x="448" y="276" type="curve"/>
      <point x="339" y="105"/>
      <point x="253" y="44"/>
      <point x="176" y="44" type="curve" smooth="yes"/>
      <point x="108" y="44"/>
      <point x="82" y="96"/>
      <point x="101" y="207" type="curve"/>
      <point x="69" y="207"/>
      <point x="57" y="201"/>
      <point x="56" y="196" type="curve" smooth="yes"/>
      <point x="24" y="70"/>
      <point x="65" y="-10"/>
    </contour>
    <contour>
      <point x="426" y="0" type="curve" smooth="yes"/>
      <point x="538" y="441" type="line" smooth="yes"/>
      <point x="550" y="488"/>
      <point x="556" y="502"/>
      <point x="572" y="529" type="curve"/>
      <point x="567" y="531"/>
      <point x="561" y="532"/>
      <point x="555" y="532" type="curve" smooth="yes"/>
      <point x="544" y="532"/>
      <point x="530" y="530"/>
      <point x="516" y="519" type="curve" smooth="yes"/>
      <point x="501" y="507"/>
      <point x="493" y="485"/>
      <point x="486" y="457" type="curve" smooth="yes"/>
      <point x="370" y="1" type="line" smooth="yes"/>
      <point x="341" y="-115"/>
      <point x="314" y="-147"/>
      <point x="239" y="-199" type="curve"/>
      <point x="272" y="-237"/>
      <point x="393" y="-129"/>
    </contour>
    <contour>
      <point x="157" y="-197" type="curve" smooth="yes"/>
      <point x="88" y="-197"/>
      <point x="56" y="-188"/>
      <point x="14" y="-157" type="curve"/>
      <point x="10" y="-157" type="line"/>
      <point x="6" y="-162"/>
      <point x="2" y="-170"/>
      <point x="0" y="-177" type="curve" smooth="yes"/>
      <point x="-3" y="-193"/>
      <point x="-1" y="-204"/>
      <point x="5" y="-211" type="curve" smooth="yes"/>
      <point x="21" y="-232"/>
      <point x="69" y="-250"/>
      <point x="135" y="-250" type="curve" smooth="yes"/>
      <point x="299" y="-250"/>
      <point x="381" y="-180"/>
      <point x="426" y="0" type="curve" smooth="yes"/>
      <point x="427" y="10"/>
      <point x="414" y="17"/>
      <point x="400" y="17" type="curve"/>
      <point x="332" y="-172"/>
      <point x="239" y="-197"/>
    </contour>
  </outline>
</glyph>
<glyph name="h" format="1">
  <advance width="600"/>
  <unicode hex="0068"/>
  <outline>
    <contour>
      <point x="84" y="-5" type="curve"/>
      <point x="259" y="683" type="line" smooth="yes"/>
      <point x="266" y="711"/>
      <point x="269" y="732"/>
      <point x="260" y="745" type="curve" smooth="yes"/>
      <point x="252" y="755"/>
      <point x="241" y="758"/>
      <point x="228" y="758" type="curve" smooth="yes"/>
      <point x="223" y="758"/>
      <point x="216" y="757"/>
      <point x="210" y="755" type="curve"/>
      <point x="212" y="727"/>
      <point x="211" y="713"/>
      <point x="199" y="667" type="curve" smooth="yes"/>
      <point x="34" y="20" type="line" smooth="yes"/>
      <point x="29" y="0"/>
      <point x="47" y="-5"/>
      <point x="71" y="-5" type="curve" smooth="yes"/>
      <point x="75" y="-5"/>
      <point x="80" y="-5"/>
    </contour>
    <contour>
      <point x="431" y="538" type="curve" smooth="yes"/>
      <point x="347" y="538"/>
      <point x="241" y="452"/>
      <point x="159" y="335" type="curve" smooth="yes"/>
      <point x="136" y="299"/>
      <point x="125" y="262"/>
      <point x="132" y="219" type="curve"/>
      <point x="215" y="357"/>
      <point x="331" y="484"/>
      <point x="426" y="484" type="curve" smooth="yes"/>
      <point x="477" y="484"/>
      <point x="495" y="447"/>
      <point x="485" y="369" type="curve"/>
      <point x="520" y="371"/>
      <point x="528" y="380"/>
      <point x="531" y="392" type="curve" smooth="yes"/>
      <point x="550" y="466"/>
      <point x="518" y="538"/>
    </contour>
    <contour>
      <point x="444" y="0" type="curve"/>
      <point x="445" y="44"/>
      <point x="452" y="78"/>
      <point x="464" y="125" type="curve" smooth="yes"/>
      <point x="531" y="392" type="line"/>
      <point x="540" y="424"/>
      <point x="531" y="444"/>
      <point x="498" y="444" type="curve"/>
      <point x="449" y="290"/>
      <point x="431" y="241"/>
      <point x="406" y="140" type="curve" smooth="yes"/>
      <point x="404" y="132" type="line" smooth="yes"/>
      <point x="378" y="28"/>
      <point x="399" y="-2"/>
      <point x="428" y="-2" type="curve" smooth="yes"/>
      <point x="434" y="-2"/>
      <point x="440" y="-1"/>
    </contour>
    <contour>
      <point x="239" y="730" type="move" name="top"/>
    </contour>
  </outline>
</glyph>
<glyph name="i" format="1">
  <advance width="600"/>
  <unicode hex="0069"/>
  <outline>
    <contour>
      <point x="142" y="527" type="curve"/>
      <point x="138" y="521"/>
      <point x="135" y="514"/>
      <point x="133" y="507" type="curve" smooth="yes"/>
      <point x="128" y="486"/>
      <point x="134" y="473"/>
      <point x="149" y="473" type="curve" smooth="yes"/>
      <point x="171" y="473"/>
      <point x="241" y="484"/>
      <point x="360" y="484" type="curve"/>
      <point x="370" y="521"/>
      <point x="369" y="537"/>
      <point x="350" y="537" type="curve"/>
      <point x="291" y="537"/>
      <point x="228" y="534"/>
    </contour>
    <contour>
      <point x="396" y="527" type="curve" smooth="yes"/>
      <point x="388" y="534"/>
      <point x="375" y="537"/>
      <point x="357" y="537" type="curve" smooth="yes"/>
      <point x="350" y="537" type="line"/>
      <point x="251" y="142" type="line" smooth="yes"/>
      <point x="227" y="47"/>
      <point x="286" y="-9"/>
      <point x="327" y="17" type="curve"/>
      <point x="294" y="60"/>
      <point x="291" y="78"/>
      <point x="310" y="155" type="curve" smooth="yes"/>
      <point x="398" y="511" type="line" smooth="yes"/>
      <point x="401" y="519"/>
      <point x="400" y="523"/>
    </contour>
    <contour>
      <point x="502" y="86" type="curve"/>
      <point x="498" y="86" type="line"/>
      <point x="461" y="52"/>
      <point x="425" y="35"/>
      <point x="379" y="35" type="curve"/>
      <point x="306" y="35"/>
      <point x="264" y="61"/>
      <point x="292" y="178" type="curve"/>
      <point x="269" y="177"/>
      <point x="254" y="156"/>
      <point x="251" y="142" type="curve" smooth="yes"/>
      <point x="227" y="42"/>
      <point x="266" y="-19"/>
      <point x="367" y="-19" type="curve" smooth="yes"/>
      <point x="372" y="-19" type="line" smooth="yes"/>
      <point x="424" y="-19"/>
      <point x="459" y="-6"/>
      <point x="479" y="13" type="curve" smooth="yes"/>
      <point x="490" y="25"/>
      <point x="497" y="37"/>
      <point x="501" y="57" type="curve"/>
      <point x="503" y="68"/>
      <point x="503" y="77"/>
    </contour>
    <contour>
      <point x="452" y="664" type="curve"/>
      <point x="466" y="717" type="line" smooth="yes"/>
      <point x="471" y="741"/>
      <point x="454" y="754"/>
      <point x="421" y="754" type="curve" smooth="yes"/>
      <point x="408" y="754"/>
      <point x="397" y="753"/>
      <point x="388" y="751" type="curve"/>
      <point x="375" y="697" type="line" smooth="yes"/>
      <point x="368" y="673"/>
      <point x="386" y="661"/>
      <point x="419" y="661" type="curve" smooth="yes"/>
      <point x="431" y="661"/>
      <point x="442" y="662"/>
    </contour>
  </outline>
</glyph>
<glyph name="j" format="1">
  <advance width="600"/>
  <unicode hex="006A"/>
  <outline>
    <contour>
      <point x="146" y="527" type="curve"/>
      <point x="142" y="521"/>
      <point x="140" y="514"/>
      <point x="137" y="507" type="curve" smooth="yes"/>
      <point x="133" y="486"/>
      <point x="137" y="473"/>
      <point x="153" y="473" type="curve" smooth="yes"/>
      <point x="183" y="473"/>
      <point x="284" y="483"/>
      <point x="453" y="484" type="curve"/>
      <point x="463" y="521"/>
      <point x="461" y="537"/>
      <point x="442" y="537" type="curve" smooth="yes"/>
      <point x="360" y="537"/>
      <point x="269" y="537"/>
    </contour>
    <contour>
      <point x="361" y="0" type="curve" smooth="yes"/>
      <point x="491" y="511" type="line" smooth="yes"/>
      <point x="493" y="517"/>
      <point x="492" y="521"/>
      <point x="489" y="525" type="curve" smooth="yes"/>
      <point x="482" y="533"/>
      <point x="466" y="537"/>
      <point x="448" y="537" type="curve" smooth="yes"/>
      <point x="442" y="537" type="line"/>
      <point x="306" y="-2" type="line" smooth="yes"/>
      <point x="276" y="-118"/>
      <point x="250" y="-145"/>
      <point x="175" y="-196" type="curve"/>
      <point x="202" y="-227"/>
      <point x="315" y="-170"/>
    </contour>
    <contour>
      <point x="94" y="-197" type="curve" smooth="yes"/>
      <point x="26" y="-197"/>
      <point x="-8" y="-188"/>
      <point x="-50" y="-156" type="curve"/>
      <point x="-54" y="-156" type="line"/>
      <point x="-57" y="-162"/>
      <point x="-60" y="-171"/>
      <point x="-62" y="-178" type="curve" smooth="yes"/>
      <point x="-65" y="-193"/>
      <point x="-65" y="-205"/>
      <point x="-60" y="-212" type="curve" smooth="yes"/>
      <point x="-44" y="-233"/>
      <point x="7" y="-250"/>
      <point x="73" y="-250" type="curve" smooth="yes"/>
      <point x="235" y="-250"/>
      <point x="316" y="-180"/>
      <point x="361" y="0" type="curve" smooth="yes"/>
      <point x="363" y="5"/>
      <point x="339" y="17"/>
      <point x="336" y="17" type="curve"/>
      <point x="269" y="-172"/>
      <point x="177" y="-197"/>
    </contour>
    <contour>
      <point x="540" y="664" type="curve"/>
      <point x="554" y="717" type="line" smooth="yes"/>
      <point x="560" y="741"/>
      <point x="543" y="754"/>
      <point x="510" y="754" type="curve" smooth="yes"/>
      <point x="497" y="754"/>
      <point x="486" y="753"/>
      <point x="476" y="751" type="curve"/>
      <point x="463" y="697" type="line" smooth="yes"/>
      <point x="457" y="673"/>
      <point x="474" y="661"/>
      <point x="506" y="661" type="curve" smooth="yes"/>
      <point x="519" y="661"/>
      <point x="531" y="662"/>
    </contour>
  </outline>
</glyph>
<glyph name="l" format="1">
  <advance width="600"/>
  <unicode hex="006C"/>
  <outline>
    <contour>
      <point x="197" y="750" type="curve"/>
      <point x="193" y="744"/>
      <point x="191" y="738"/>
      <point x="189" y="730" type="curve" smooth="yes"/>
      <point x="184" y="709"/>
      <point x="190" y="696"/>
      <point x="205" y="696" type="curve" smooth="yes"/>
      <point x="226" y="696"/>
      <point x="297" y="707"/>
      <point x="416" y="707" type="curve"/>
      <point x="426" y="744"/>
      <point x="425" y="760"/>
      <point x="405" y="760" type="curve"/>
      <point x="347" y="760"/>
      <point x="284" y="757"/>
    </contour>
    <contour>
      <point x="452" y="750" type="curve" smooth="yes"/>
      <point x="444" y="757"/>
      <point x="431" y="760"/>
      <point x="412" y="760" type="curve" smooth="yes"/>
      <point x="405" y="760" type="line"/>
      <point x="250" y="142" type="line" smooth="yes"/>
      <point x="227" y="47"/>
      <point x="285" y="-9"/>
      <point x="327" y="17" type="curve"/>
      <point x="294" y="60"/>
      <point x="290" y="78"/>
      <point x="309" y="155" type="curve" smooth="yes"/>
      <point x="454" y="734" type="line" smooth="yes"/>
      <point x="456" y="742"/>
      <point x="455" y="746"/>
    </contour>
    <contour>
      <point x="502" y="86" type="curve"/>
      <point x="498" y="86" type="line"/>
      <point x="459" y="52"/>
      <point x="423" y="35"/>
      <point x="374" y="35" type="curve"/>
      <point x="306" y="35"/>
      <point x="265" y="61"/>
      <point x="293" y="178" type="curve"/>
      <point x="271" y="177"/>
      <point x="254" y="156"/>
      <point x="250" y="142" type="curve" smooth="yes"/>
      <point x="227" y="42"/>
      <point x="266" y="-19"/>
      <point x="367" y="-19" type="curve" smooth="yes"/>
      <point x="372" y="-19" type="line" smooth="yes"/>
      <point x="424" y="-19"/>
      <point x="459" y="-6"/>
      <point x="479" y="14" type="curve" smooth="yes"/>
      <point x="491" y="26"/>
      <point x="497" y="38"/>
      <point x="501" y="57" type="curve"/>
      <point x="503" y="68"/>
      <point x="503" y="77"/>
    </contour>
  </outline>
</glyph>
<glyph name="m" format="1">
  <advance width="600"/>
  <unicode hex="006D"/>
  <outline>
    <contour>
      <point x="34" y="-6" type="curve"/>
      <point x="152" y="455" type="line" smooth="yes"/>
      <point x="159" y="485"/>
      <point x="163" y="507"/>
      <point x="154" y="519" type="curve" smooth="yes"/>
      <point x="145" y="530"/>
      <point x="134" y="532"/>
      <point x="123" y="532" type="curve" smooth="yes"/>
      <point x="117" y="532"/>
      <point x="111" y="531"/>
      <point x="104" y="529" type="curve"/>
      <point x="106" y="501"/>
      <point x="105" y="487"/>
      <point x="93" y="441" type="curve" smooth="yes"/>
      <point x="-14" y="19" type="line" smooth="yes"/>
      <point x="-19" y="-1"/>
      <point x="-2" y="-6"/>
      <point x="21" y="-6" type="curve" smooth="yes"/>
      <point x="26" y="-6"/>
      <point x="30" y="-6"/>
    </contour>
    <contour>
      <point x="296" y="537" type="curve" smooth="yes"/>
      <point x="240" y="537"/>
      <point x="179" y="494"/>
      <point x="117" y="386" type="curve" smooth="yes"/>
      <point x="99" y="355"/>
      <point x="101" y="335"/>
      <point x="106" y="310" type="curve"/>
      <point x="188" y="445"/>
      <point x="238" y="483"/>
      <point x="283" y="483" type="curve" smooth="yes"/>
      <point x="318" y="483"/>
      <point x="329" y="464"/>
      <point x="325" y="417" type="curve"/>
      <point x="363" y="417"/>
      <point x="366" y="416"/>
      <point x="369" y="430" type="curve" smooth="yes"/>
      <point x="380" y="476"/>
      <point x="363" y="537"/>
    </contour>
    <contour>
      <point x="259" y="0" type="curve"/>
      <point x="369" y="430" type="line" smooth="yes"/>
      <point x="376" y="460"/>
      <point x="367" y="475"/>
      <point x="337" y="474" type="curve"/>
      <point x="288" y="317"/>
      <point x="261" y="224"/>
      <point x="236" y="124" type="curve" smooth="yes"/>
      <point x="234" y="119" type="line" smooth="yes"/>
      <point x="208" y="16"/>
      <point x="221" y="-3"/>
      <point x="243" y="-3" type="curve" smooth="yes"/>
      <point x="249" y="-3"/>
      <point x="253" y="-2"/>
    </contour>
    <contour>
      <point x="523" y="537" type="curve" smooth="yes"/>
      <point x="465" y="537"/>
      <point x="392" y="488"/>
      <point x="338" y="389" type="curve" smooth="yes"/>
      <point x="314" y="347"/>
      <point x="315" y="334"/>
      <point x="329" y="320" type="curve"/>
      <point x="396" y="422"/>
      <point x="460" y="483"/>
      <point x="507" y="483" type="curve" smooth="yes"/>
      <point x="544" y="483"/>
      <point x="550" y="458"/>
      <point x="545" y="407" type="curve"/>
      <point x="583" y="407"/>
      <point x="588" y="413"/>
      <point x="590" y="426" type="curve" smooth="yes"/>
      <point x="605" y="483"/>
      <point x="581" y="537"/>
    </contour>
    <contour>
      <point x="494" y="0" type="curve"/>
      <point x="496" y="44"/>
      <point x="502" y="78"/>
      <point x="514" y="126" type="curve" smooth="yes"/>
      <point x="590" y="426" type="line" smooth="yes"/>
      <point x="599" y="459"/>
      <point x="588" y="478"/>
      <point x="560" y="478" type="curve"/>
      <point x="510" y="321"/>
      <point x="483" y="227"/>
      <point x="457" y="125" type="curve" smooth="yes"/>
      <point x="455" y="120" type="line" smooth="yes"/>
      <point x="429" y="15"/>
      <point x="449" y="-2"/>
      <point x="474" y="-2" type="curve" smooth="yes"/>
      <point x="484" y="-2"/>
      <point x="490" y="-1"/>
    </contour>
  </outline>
</glyph>
<glyph name="p" format="1">
  <advance width="600"/>
  <unicode hex="0070"/>
  <outline>
    <contour>
      <point x="39" y="-219" type="curve"/>
      <point x="209" y="451" type="line" smooth="yes"/>
      <point x="217" y="483"/>
      <point x="222" y="506"/>
      <point x="212" y="519" type="curve" smooth="yes"/>
      <point x="203" y="529"/>
      <point x="192" y="532"/>
      <point x="181" y="532" type="curve"/>
      <point x="175" y="532"/>
      <point x="169" y="531"/>
      <point x="163" y="529" type="curve"/>
      <point x="164" y="501"/>
      <point x="163" y="487"/>
      <point x="151" y="441" type="curve" smooth="yes"/>
      <point x="-11" y="-196" type="line" smooth="yes"/>
      <point x="-16" y="-216"/>
      <point x="1" y="-221"/>
      <point x="22" y="-221" type="curve"/>
      <point x="28" y="-221"/>
      <point x="34" y="-220"/>
    </contour>
    <contour>
      <point x="427" y="537" type="curve" smooth="yes"/>
      <point x="335" y="537"/>
      <point x="238" y="461"/>
      <point x="174" y="350" type="curve" smooth="yes"/>
      <point x="153" y="314"/>
      <point x="147" y="275"/>
      <point x="151" y="250" type="curve"/>
      <point x="266" y="431"/>
      <point x="355" y="483"/>
      <point x="424" y="483" type="curve" smooth="yes"/>
      <point x="491" y="483"/>
      <point x="515" y="425"/>
      <point x="499" y="320" type="curve"/>
      <point x="531" y="314"/>
      <point x="541" y="324"/>
      <point x="543" y="332" type="curve" smooth="yes"/>
      <point x="577" y="462"/>
      <point x="534" y="537"/>
    </contour>
    <contour>
      <point x="246" y="-10" type="curve" smooth="yes"/>
      <point x="379" y="-10"/>
      <point x="478" y="71"/>
      <point x="538" y="311" type="curve" smooth="yes"/>
      <point x="543" y="332" type="line" smooth="yes"/>
      <point x="557" y="386"/>
      <point x="544" y="470"/>
      <point x="512" y="470" type="curve" smooth="yes"/>
      <point x="504" y="470"/>
      <point x="498" y="468"/>
      <point x="494" y="461" type="curve"/>
      <point x="501" y="410"/>
      <point x="497" y="369"/>
      <point x="485" y="323" type="curve" smooth="yes"/>
      <point x="481" y="305" type="line" smooth="yes"/>
      <point x="437" y="128"/>
      <point x="362" y="43"/>
      <point x="254" y="43" type="curve" smooth="yes"/>
      <point x="185" y="43"/>
      <point x="150" y="69"/>
      <point x="119" y="136" type="curve"/>
      <point x="112" y="134"/>
      <point x="104" y="120"/>
      <point x="104" y="112" type="curve" smooth="yes"/>
      <point x="92" y="63"/>
      <point x="157" y="-10"/>
    </contour>
  </outline>
</glyph>
<glyph name="q" format="1">
  <advance width="600"/>
  <unicode hex="0071"/>
  <outline>
    <contour>
      <point x="352" y="537" type="curve" smooth="yes"/>
      <point x="218" y="537"/>
      <point x="119" y="455"/>
      <point x="61" y="216" type="curve" smooth="yes"/>
      <point x="56" y="196" type="line" smooth="yes"/>
      <point x="43" y="142"/>
      <point x="51" y="58"/>
      <point x="82" y="58" type="curve" smooth="yes"/>
      <point x="90" y="58"/>
      <point x="97" y="62"/>
      <point x="101" y="67" type="curve"/>
      <point x="97" y="119"/>
      <point x="102" y="157"/>
      <point x="114" y="204" type="curve" smooth="yes"/>
      <point x="118" y="221" type="line" smooth="yes"/>
      <point x="161" y="395"/>
      <point x="237" y="484"/>
      <point x="345" y="484" type="curve" smooth="yes"/>
      <point x="414" y="484"/>
      <point x="449" y="458"/>
      <point x="480" y="391" type="curve"/>
      <point x="487" y="393"/>
      <point x="495" y="407"/>
      <point x="495" y="414" type="curve" smooth="yes"/>
      <point x="507" y="463"/>
      <point x="441" y="537"/>
    </contour>
    <contour>
      <point x="172" y="-10" type="curve" smooth="yes"/>
      <point x="264" y="-10"/>
      <point x="360" y="66"/>
      <point x="425" y="177" type="curve" smooth="yes"/>
      <point x="446" y="213"/>
      <point x="452" y="252"/>
      <point x="448" y="276" type="curve"/>
      <point x="337" y="96"/>
      <point x="245" y="44"/>
      <point x="176" y="44" type="curve" smooth="yes"/>
      <point x="110" y="44"/>
      <point x="83" y="97"/>
      <point x="101" y="207" type="curve"/>
      <point x="69" y="207"/>
      <point x="58" y="204"/>
      <point x="56" y="196" type="curve" smooth="yes"/>
      <point x="24" y="70"/>
      <point x="65" y="-10"/>
    </contour>
    <contour>
      <point x="370" y="-219" type="curve"/>
      <point x="538" y="441" type="line" smooth="yes"/>
      <point x="550" y="487"/>
      <point x="556" y="501"/>
      <point x="572" y="529" type="curve"/>
      <point x="567" y="531"/>
      <point x="561" y="532"/>
      <point x="555" y="532" type="curve" smooth="yes"/>
      <point x="544" y="532"/>
      <point x="531" y="529"/>
      <point x="517" y="519" type="curve" smooth="yes"/>
      <point x="501" y="506"/>
      <point x="493" y="483"/>
      <point x="485" y="452" type="curve" smooth="yes"/>
      <point x="320" y="-195" type="line" smooth="yes"/>
      <point x="316" y="-216"/>
      <point x="333" y="-221"/>
      <point x="353" y="-221" type="curve" smooth="yes"/>
      <point x="360" y="-221"/>
      <point x="365" y="-220"/>
    </contour>
  </outline>
</glyph>
<glyph name="r" format="1">
  <advance width="600"/>
  <unicode hex="0072"/>
  <outline>
    <contour>
      <point x="133" y="527" type="curve"/>
      <point x="129" y="520"/>
      <point x="126" y="514"/>
      <point x="124" y="506" type="curve" smooth="yes"/>
      <point x="119" y="484"/>
      <point x="126" y="473"/>
      <point x="141" y="473" type="curve" smooth="yes"/>
      <point x="160" y="473"/>
      <point x="193" y="484"/>
      <point x="303" y="484" type="curve"/>
      <point x="313" y="525"/>
      <point x="310" y="537"/>
      <point x="294" y="537" type="curve" smooth="yes"/>
      <point x="233" y="537"/>
      <point x="198" y="534"/>
    </contour>
    <contour>
      <point x="213" y="-2" type="curve"/>
      <point x="211" y="32"/>
      <point x="214" y="55"/>
      <point x="226" y="105" type="curve" smooth="yes"/>
      <point x="317" y="461" type="line" smooth="yes"/>
      <point x="329" y="507"/>
      <point x="320" y="537"/>
      <point x="294" y="537" type="curve" smooth="yes"/>
      <point x="290" y="537"/>
      <point x="285" y="537"/>
      <point x="280" y="533" type="curve"/>
      <point x="160" y="64" type="line" smooth="yes"/>
      <point x="145" y="5"/>
      <point x="162" y="-6"/>
      <point x="189" y="-6" type="curve" smooth="yes"/>
      <point x="197" y="-6"/>
      <point x="205" y="-5"/>
    </contour>
    <contour>
      <point x="246" y="213" type="curve"/>
      <point x="343" y="393"/>
      <point x="447" y="483"/>
      <point x="529" y="483" type="curve" smooth="yes"/>
      <point x="560" y="483"/>
      <point x="576" y="478"/>
      <point x="589" y="470" type="curve"/>
      <point x="593" y="470" type="line"/>
      <point x="598" y="479"/>
      <point x="603" y="489"/>
      <point x="607" y="500" type="curve"/>
      <point x="614" y="528"/>
      <point x="592" y="541"/>
      <point x="545" y="541" type="curve" smooth="yes"/>
      <point x="541" y="541" type="line" smooth="yes"/>
      <point x="446" y="541"/>
      <point x="340" y="456"/>
      <point x="273" y="333" type="curve" smooth="yes"/>
      <point x="249" y="289"/>
      <point x="242" y="247"/>
    </contour>
  </outline>
</glyph>
<glyph name="s" format="1">
  <advance width="600"/>
  <unicode hex="0073"/>
  <outline>
    <contour>
      <point x="423" y="540" type="curve" smooth="yes"/>
      <point x="419" y="540" type="line" smooth="yes"/>
      <point x="283" y="540"/>
      <point x="164" y="478"/>
      <point x="140" y="381" type="curve" smooth="yes"/>
      <point x="131" y="345"/>
      <point x="173" y="320"/>
      <point x="188" y="320" type="curve"/>
      <point x="185" y="339"/>
      <point x="189" y="359"/>
      <point x="194" y="378" type="curve" smooth="yes"/>
      <point x="210" y="440"/>
      <point x="313" y="484"/>
      <point x="412" y="484" type="curve" smooth="yes"/>
      <point x="463" y="484"/>
      <point x="497" y="476"/>
      <point x="528" y="460" type="curve"/>
      <point x="532" y="460" type="line"/>
      <point x="535" y="466"/>
      <point x="537" y="471"/>
      <point x="539" y="477" type="curve"/>
      <point x="543" y="494"/>
      <point x="544" y="504"/>
      <point x="534" y="517" type="curve" smooth="yes"/>
      <point x="525" y="530"/>
      <point x="486" y="540"/>
    </contour>
    <contour>
      <point x="364" y="271" type="curve" smooth="yes"/>
      <point x="279" y="287" type="line" smooth="yes"/>
      <point x="188" y="305"/>
      <point x="186" y="345"/>
      <point x="194" y="378" type="curve" smooth="yes"/>
      <point x="196" y="388"/>
      <point x="202" y="406"/>
      <point x="212" y="426" type="curve"/>
      <point x="170" y="413"/>
      <point x="146" y="405"/>
      <point x="140" y="381" type="curve"/>
      <point x="125" y="322"/>
      <point x="156" y="264"/>
      <point x="253" y="243" type="curve" smooth="yes"/>
      <point x="340" y="226" type="line" smooth="yes"/>
      <point x="428" y="207"/>
      <point x="436" y="169"/>
      <point x="421" y="105" type="curve" smooth="yes"/>
      <point x="419" y="98"/>
      <point x="417" y="91"/>
      <point x="415" y="85" type="curve"/>
      <point x="441" y="91"/>
      <point x="471" y="114"/>
      <point x="476" y="130" type="curve" smooth="yes"/>
      <point x="492" y="194"/>
      <point x="458" y="254"/>
    </contour>
    <contour>
      <point x="245" y="43" type="curve" smooth="yes"/>
      <point x="145" y="43"/>
      <point x="100" y="55"/>
      <point x="50" y="101" type="curve"/>
      <point x="46" y="101" type="line"/>
      <point x="44" y="98"/>
      <point x="42" y="92"/>
      <point x="40" y="83" type="curve" smooth="yes"/>
      <point x="35" y="66"/>
      <point x="37" y="52"/>
      <point x="45" y="40" type="curve" smooth="yes"/>
      <point x="65" y="12"/>
      <point x="134" y="-10"/>
      <point x="225" y="-10" type="curve" smooth="yes"/>
      <point x="231" y="-10" type="line" smooth="yes"/>
      <point x="359" y="-10"/>
      <point x="451" y="34"/>
      <point x="476" y="130" type="curve" smooth="yes"/>
      <point x="479" y="146"/>
      <point x="461" y="163"/>
      <point x="439" y="164" type="curve"/>
      <point x="437" y="157"/>
      <point x="436" y="152"/>
      <point x="435" y="147" type="curve" smooth="yes"/>
      <point x="420" y="89"/>
      <point x="362" y="43"/>
    </contour>
    <contour>
      <point x="383" y="538" type="move" name="top"/>
    </contour>
    <contour>
      <point x="253" y="-1" type="move" name="bottom"/>
    </contour>
  </outline>
</glyph>
<glyph name="t" format="1">
  <advance width="600"/>
  <unicode hex="0074"/>
  <outline>
    <contour>
      <point x="308" y="700" type="curve"/>
      <point x="171" y="154" type="line" smooth="yes"/>
      <point x="151" y="74"/>
      <point x="195" y="9"/>
      <point x="245" y="24" type="curve"/>
      <point x="215" y="68"/>
      <point x="213" y="99"/>
      <point x="231" y="171" type="curve" smooth="yes"/>
      <point x="358" y="678" type="line" smooth="yes"/>
      <point x="362" y="696"/>
      <point x="345" y="703"/>
      <point x="326" y="703" type="curve" smooth="yes"/>
      <point x="320" y="703"/>
      <point x="314" y="702"/>
    </contour>
    <contour>
      <point x="487" y="106" type="curve"/>
      <point x="483" y="106" type="line"/>
      <point x="430" y="60"/>
      <point x="376" y="34"/>
      <point x="309" y="34" type="curve" smooth="yes"/>
      <point x="244" y="34"/>
      <point x="200" y="66"/>
      <point x="204" y="175" type="curve"/>
      <point x="185" y="174"/>
      <point x="174" y="165"/>
      <point x="171" y="154" type="curve" smooth="yes"/>
      <point x="147" y="53"/>
      <point x="188" y="-20"/>
      <point x="307" y="-20" type="curve" smooth="yes"/>
      <point x="314" y="-20" type="line" smooth="yes"/>
      <point x="371" y="-20"/>
      <point x="426" y="-2"/>
      <point x="454" y="24" type="curve" smooth="yes"/>
      <point x="469" y="38"/>
      <point x="477" y="58"/>
      <point x="484" y="81" type="curve" smooth="yes"/>
      <point x="486" y="89"/>
      <point x="487" y="98"/>
    </contour>
    <contour>
      <point x="139" y="527" type="line"/>
      <point x="138" y="524"/>
      <point x="137" y="519"/>
      <point x="136" y="515" type="curve" smooth="yes"/>
      <point x="132" y="498"/>
      <point x="133" y="486"/>
      <point x="139" y="480" type="curve" smooth="yes"/>
      <point x="143" y="475"/>
      <point x="149" y="473"/>
      <point x="159" y="473" type="curve" smooth="yes"/>
      <point x="578" y="473" type="line"/>
      <point x="579" y="478"/>
      <point x="581" y="483"/>
      <point x="582" y="488" type="curve" smooth="yes"/>
      <point x="588" y="511"/>
      <point x="582" y="527"/>
      <point x="562" y="527" type="curve" smooth="yes"/>
    </contour>
    <contour>
      <point x="546" y="700" type="move" name="caronslovak"/>
    </contour>
    <contour>
      <point x="291" y="-1" type="move" name="bottom"/>
    </contour>
  </outline>
</glyph>
<glyph name="u" format="1">
  <advance width="600"/>
  <unicode hex="0075"/>
  <outline>
    <contour>
      <point x="513" y="532" type="curve"/>
      <point x="397" y="75" type="line" smooth="yes"/>
      <point x="389" y="44"/>
      <point x="385" y="20"/>
      <point x="395" y="7" type="curve" smooth="yes"/>
      <point x="403" y="-3"/>
      <point x="414" y="-6"/>
      <point x="426" y="-6" type="curve" smooth="yes"/>
      <point x="431" y="-6"/>
      <point x="438" y="-5"/>
      <point x="444" y="-3" type="curve"/>
      <point x="442" y="25"/>
      <point x="443" y="39"/>
      <point x="456" y="85" type="curve" smooth="yes"/>
      <point x="563" y="507" type="line" smooth="yes"/>
      <point x="568" y="527"/>
      <point x="550" y="532"/>
      <point x="526" y="532" type="curve" smooth="yes"/>
      <point x="522" y="532"/>
      <point x="517" y="532"/>
    </contour>
    <contour>
      <point x="166" y="-11" type="curve" smooth="yes"/>
      <point x="249" y="-11"/>
      <point x="355" y="75"/>
      <point x="437" y="192" type="curve" smooth="yes"/>
      <point x="460" y="228"/>
      <point x="471" y="265"/>
      <point x="465" y="308" type="curve"/>
      <point x="381" y="169"/>
      <point x="264" y="43"/>
      <point x="171" y="43" type="curve" smooth="yes"/>
      <point x="119" y="43"/>
      <point x="102" y="79"/>
      <point x="112" y="157" type="curve"/>
      <point x="74" y="155"/>
      <point x="67" y="142"/>
      <point x="64" y="130" type="curve" smooth="yes"/>
      <point x="46" y="60"/>
      <point x="80" y="-11"/>
    </contour>
    <contour>
      <point x="153" y="527" type="curve"/>
      <point x="151" y="483"/>
      <point x="145" y="449"/>
      <point x="132" y="401" type="curve" smooth="yes"/>
      <point x="64" y="130" type="line"/>
      <point x="56" y="98"/>
      <point x="64" y="83"/>
      <point x="98" y="83" type="curve"/>
      <point x="148" y="237"/>
      <point x="163" y="291"/>
      <point x="188" y="392" type="curve" smooth="yes"/>
      <point x="190" y="397" type="line" smooth="yes"/>
      <point x="217" y="502"/>
      <point x="197" y="529"/>
      <point x="168" y="529" type="curve" smooth="yes"/>
      <point x="162" y="529"/>
      <point x="157" y="528"/>
    </contour>
    <contour>
      <point x="368" y="538" type="move" name="top"/>
    </contour>
    <contour>
      <point x="446" y="-1" type="move" name="ogonek"/>
    </contour>
    <contour>
      <point x="234" y="-1" type="move" name="bottom"/>
    </contour>
  </outline>
</glyph>
<glyph name="v" format="1">
  <advance width="600"/>
  <unicode hex="0076"/>
  <outline>
    <contour>
      <point x="544" y="531" type="curve" smooth="yes"/>
      <point x="533" y="531" type="line"/>
      <point x="439" y="229"/>
      <point x="368" y="127"/>
      <point x="218" y="29" type="curve"/>
      <point x="199" y="16"/>
      <point x="213" y="-10"/>
      <point x="230" y="-10" type="curve"/>
      <point x="258" y="-10" type="line"/>
      <point x="406" y="86"/>
      <point x="486" y="203"/>
      <point x="582" y="500" type="curve"/>
      <point x="587" y="516"/>
      <point x="572" y="531"/>
    </contour>
    <contour>
      <point x="153" y="531" type="curve" smooth="yes"/>
      <point x="142" y="531" type="line"/>
      <point x="94" y="257"/>
      <point x="106" y="117"/>
      <point x="181" y="15" type="curve"/>
      <point x="194" y="-2"/>
      <point x="208" y="-10"/>
      <point x="227" y="-10" type="curve" smooth="yes"/>
      <point x="233" y="-10" type="line" smooth="yes"/>
      <point x="253" y="-10"/>
      <point x="261" y="-1"/>
      <point x="277" y="20" type="curve"/>
      <point x="268" y="20"/>
      <point x="261" y="20"/>
      <point x="258" y="20" type="curve" smooth="yes"/>
      <point x="252" y="20"/>
      <point x="247" y="22"/>
      <point x="244" y="26" type="curve"/>
      <point x="156" y="131"/>
      <point x="151" y="260"/>
      <point x="193" y="505" type="curve"/>
      <point x="198" y="524"/>
      <point x="181" y="531"/>
    </contour>
  </outline>
</glyph>
<glyph name="w" format="1">
  <advance width="600"/>
  <unicode hex="0077"/>
  <outline>
    <contour>
      <point x="132" y="537" type="curve"/>
      <point x="41" y="201"/>
      <point x="47" y="86"/>
      <point x="93" y="7" type="curve" smooth="yes"/>
      <point x="101" y="-5"/>
      <point x="110" y="-10"/>
      <point x="121" y="-10" type="curve" smooth="yes"/>
      <point x="129" y="-10" type="line" smooth="yes"/>
      <point x="137" y="-10"/>
      <point x="143" y="17"/>
      <point x="144" y="25" type="curve" smooth="yes"/>
      <point x="97" y="103"/>
      <point x="96" y="187"/>
      <point x="181" y="517" type="curve"/>
      <point x="182" y="521"/>
      <point x="182" y="524"/>
      <point x="179" y="528" type="curve" smooth="yes"/>
      <point x="174" y="532"/>
      <point x="161" y="537"/>
      <point x="143" y="537" type="curve"/>
      <point x="139" y="537"/>
      <point x="135" y="537"/>
    </contour>
    <contour>
      <point x="338" y="449" type="curve" smooth="yes"/>
      <point x="323" y="449" type="line"/>
      <point x="270" y="237"/>
      <point x="208" y="125"/>
      <point x="108" y="19" type="curve"/>
      <point x="109" y="3"/>
      <point x="115" y="-10"/>
      <point x="124" y="-10" type="curve"/>
      <point x="142" y="-10" type="line"/>
      <point x="227" y="76"/>
      <point x="312" y="232"/>
      <point x="357" y="414" type="curve" smooth="yes"/>
      <point x="363" y="438"/>
      <point x="361" y="449"/>
    </contour>
    <contour>
      <point x="338" y="449" type="curve" smooth="yes"/>
      <point x="333" y="449" type="line"/>
      <point x="286" y="265"/>
      <point x="269" y="101"/>
      <point x="321" y="1" type="curve" smooth="yes"/>
      <point x="325" y="-5"/>
      <point x="332" y="-10"/>
      <point x="341" y="-10" type="curve" smooth="yes"/>
      <point x="356" y="-10" type="line" smooth="yes"/>
      <point x="361" y="-10"/>
      <point x="363" y="2"/>
      <point x="366" y="21" type="curve" smooth="yes"/>
      <point x="319" y="92"/>
      <point x="324" y="254"/>
      <point x="367" y="426" type="curve" smooth="yes"/>
      <point x="370" y="438"/>
      <point x="369" y="449"/>
    </contour>
    <contour>
      <point x="550" y="537" type="curve"/>
      <point x="479" y="214"/>
      <point x="439" y="139"/>
      <point x="344" y="34" type="curve"/>
      <point x="343" y="4"/>
      <point x="343" y="-10"/>
      <point x="350" y="-10" type="curve"/>
      <point x="365" y="-10" type="line"/>
      <point x="473" y="97"/>
      <point x="521" y="188"/>
      <point x="601" y="513" type="curve"/>
      <point x="602" y="520"/>
      <point x="602" y="524"/>
      <point x="600" y="527" type="curve" smooth="yes"/>
      <point x="593" y="534"/>
      <point x="577" y="537"/>
      <point x="564" y="537" type="curve"/>
      <point x="560" y="537"/>
      <point x="554" y="537"/>
    </contour>
    <contour>
      <point x="368" y="538" type="move" name="top"/>
    </contour>
  </outline>
</glyph>
<glyph name="y" format="1">
  <advance width="600"/>
  <unicode hex="0079"/>
  <outline>
    <contour>
      <point x="153" y="527" type="curve"/>
      <point x="151" y="483"/>
      <point x="145" y="449"/>
      <point x="132" y="401" type="curve" smooth="yes"/>
      <point x="64" y="130" type="line"/>
      <point x="56" y="98"/>
      <point x="64" y="83"/>
      <point x="98" y="83" type="curve"/>
      <point x="147" y="237"/>
      <point x="162" y="291"/>
      <point x="188" y="392" type="curve" smooth="yes"/>
      <point x="190" y="397" type="line" smooth="yes"/>
      <point x="217" y="502"/>
      <point x="197" y="529"/>
      <point x="168" y="529" type="curve" smooth="yes"/>
      <point x="162" y="529"/>
      <point x="157" y="528"/>
    </contour>
    <contour>
      <point x="166" y="-11" type="curve" smooth="yes"/>
      <point x="249" y="-11"/>
      <point x="355" y="75"/>
      <point x="437" y="192" type="curve" smooth="yes"/>
      <point x="460" y="228"/>
      <point x="471" y="265"/>
      <point x="465" y="308" type="curve"/>
      <point x="381" y="169"/>
      <point x="264" y="43"/>
      <point x="171" y="43" type="curve" smooth="yes"/>
      <point x="119" y="43"/>
      <point x="102" y="79"/>
      <point x="112" y="157" type="curve"/>
      <point x="74" y="155"/>
      <point x="67" y="142"/>
      <point x="64" y="130" type="curve" smooth="yes"/>
      <point x="46" y="60"/>
      <point x="80" y="-11"/>
    </contour>
    <contour>
      <point x="433" y="0" type="curve" smooth="yes"/>
      <point x="561" y="507" type="line" smooth="yes"/>
      <point x="567" y="527"/>
      <point x="549" y="532"/>
      <point x="528" y="532" type="curve" smooth="yes"/>
      <point x="521" y="532"/>
      <point x="516" y="531"/>
      <point x="512" y="529" type="curve"/>
      <point x="377" y="1" type="line" smooth="yes"/>
      <point x="348" y="-115"/>
      <point x="321" y="-147"/>
      <point x="247" y="-199" type="curve"/>
      <point x="280" y="-237"/>
      <point x="401" y="-129"/>
    </contour>
    <contour>
      <point x="164" y="-197" type="curve" smooth="yes"/>
      <point x="95" y="-197"/>
      <point x="63" y="-188"/>
      <point x="22" y="-157" type="curve"/>
      <point x="18" y="-157" type="line"/>
      <point x="13" y="-162"/>
      <point x="9" y="-170"/>
      <point x="7" y="-177" type="curve" smooth="yes"/>
      <point x="4" y="-193"/>
      <point x="7" y="-204"/>
      <point x="12" y="-211" type="curve" smooth="yes"/>
      <point x="27" y="-232"/>
      <point x="75" y="-250"/>
      <point x="142" y="-250" type="curve" smooth="yes"/>
      <point x="306" y="-250"/>
      <point x="388" y="-180"/>
      <point x="433" y="0" type="curve" smooth="yes"/>
      <point x="435" y="5"/>
      <point x="411" y="17"/>
      <point x="407" y="17" type="curve"/>
      <point x="340" y="-172"/>
      <point x="247" y="-197"/>
    </contour>
  </outline>
</glyph>
<glyph name="z" format="1">
  <advance width="600"/>
  <unicode hex="007A"/>
  <outline>
    <contour>
      <point x="153" y="527" type="line"/>
      <point x="151" y="523"/>
      <point x="150" y="519"/>
      <point x="149" y="515" type="curve" smooth="yes"/>
      <point x="144" y="497"/>
      <point x="146" y="488"/>
      <point x="152" y="479" type="curve" smooth="yes"/>
      <point x="154" y="476"/>
      <point x="159" y="473"/>
      <point x="165" y="473" type="curve" smooth="yes"/>
      <point x="503" y="473" type="line" smooth="yes"/>
      <point x="523" y="473"/>
      <point x="545" y="476"/>
      <point x="565" y="484" type="curve"/>
      <point x="566" y="486" type="line" smooth="yes"/>
      <point x="570" y="503"/>
      <point x="568" y="513"/>
      <point x="561" y="521" type="curve" smooth="yes"/>
      <point x="559" y="525"/>
      <point x="556" y="527"/>
      <point x="550" y="527" type="curve" smooth="yes"/>
    </contour>
    <contour>
      <point x="516" y="501" type="curve"/>
      <point x="414" y="353"/>
      <point x="228" y="173"/>
      <point x="35" y="46" type="curve"/>
      <point x="28" y="21"/>
      <point x="80" y="19"/>
      <point x="109" y="37" type="curve" smooth="yes"/>
      <point x="328" y="183"/>
      <point x="557" y="451"/>
      <point x="565" y="484" type="curve"/>
      <point x="569" y="498"/>
      <point x="549" y="501"/>
    </contour>
    <contour>
      <point x="442" y="0" type="line"/>
      <point x="443" y="4"/>
      <point x="445" y="9"/>
      <point x="446" y="13" type="curve"/>
      <point x="452" y="38"/>
      <point x="450" y="53"/>
      <point x="430" y="53" type="curve" smooth="yes"/>
      <point x="113" y="53" type="line" smooth="yes"/>
      <point x="87" y="53"/>
      <point x="63" y="52"/>
      <point x="35" y="46" type="curve"/>
      <point x="34" y="43" type="line" smooth="yes"/>
      <point x="27" y="24"/>
      <point x="30" y="14"/>
      <point x="37" y="5" type="curve" smooth="yes"/>
      <point x="39" y="2"/>
      <point x="42" y="0"/>
      <point x="48" y="0" type="curve" smooth="yes"/>
    </contour>
    <contour>
      <point x="368" y="538" type="move" name="top"/>
    </contour>
  </outline>
</glyph>
<glyph name="braceleft" format="1">
  <advance width="600"/>
  <unicode hex="007B"/>
  <outline>
    <contour>
      <point x="560" y="715" type="curve" smooth="yes"/>
      <point x="583" y="715"/>
      <point x="597" y="714"/>
      <point x="616" y="707" type="curve"/>
      <point x="620" y="707" type="line"/>
      <point x="622" y="713"/>
      <point x="624" y="718"/>
      <point x="626" y="726" type="curve"/>
      <point x="632" y="750"/>
      <point x="623" y="770"/>
      <point x="586" y="770" type="curve" smooth="yes"/>
      <point x="581" y="770" type="line" smooth="yes"/>
      <point x="457" y="770"/>
      <point x="358" y="733"/>
      <point x="339" y="657" type="curve" smooth="yes"/>
      <point x="338" y="654" type="line" smooth="yes"/>
      <point x="335" y="642"/>
      <point x="349" y="628"/>
      <point x="367" y="628" type="curve"/>
      <point x="398" y="694"/>
      <point x="468" y="715"/>
    </contour>
    <contour>
      <point x="405" y="471" type="curve" smooth="yes"/>
      <point x="426" y="555"/>
      <point x="383" y="619"/>
      <point x="392" y="656" type="curve" smooth="yes"/>
      <point x="396" y="674"/>
      <point x="405" y="685"/>
      <point x="418" y="703" type="curve"/>
      <point x="387" y="704"/>
      <point x="349" y="698"/>
      <point x="339" y="657" type="curve" smooth="yes"/>
      <point x="338" y="653" type="line" smooth="yes"/>
      <point x="323" y="592"/>
      <point x="369" y="548"/>
      <point x="349" y="467" type="curve" smooth="yes"/>
      <point x="330" y="390"/>
      <point x="260" y="326"/>
      <point x="137" y="326" type="curve" smooth="yes"/>
      <point x="132" y="326" type="line"/>
      <point x="130" y="316" type="line" smooth="yes"/>
      <point x="125" y="296"/>
      <point x="128" y="285"/>
      <point x="136" y="285" type="curve" smooth="yes"/>
      <point x="143" y="285" type="line" smooth="yes"/>
      <point x="266" y="285"/>
      <point x="374" y="347"/>
    </contour>
    <contour>
      <point x="319" y="127" type="curve" smooth="yes"/>
      <point x="350" y="251"/>
      <point x="274" y="316"/>
      <point x="151" y="316" type="curve" smooth="yes"/>
      <point x="143" y="316"/>
      <point x="136" y="317"/>
      <point x="130" y="319" type="curve"/>
      <point x="128" y="311" type="line" smooth="yes"/>
      <point x="123" y="290"/>
      <point x="125" y="272"/>
      <point x="142" y="272" type="curve" smooth="yes"/>
      <point x="144" y="272" type="line" smooth="yes"/>
      <point x="246" y="272"/>
      <point x="284" y="207"/>
      <point x="265" y="132" type="curve" smooth="yes"/>
      <point x="244" y="50"/>
      <point x="175" y="1"/>
      <point x="160" y="-60" type="curve" smooth="yes"/>
      <point x="159" y="-62" type="line" smooth="yes"/>
      <point x="147" y="-111"/>
      <point x="189" y="-114"/>
      <point x="219" y="-114" type="curve"/>
      <point x="207" y="-95"/>
      <point x="208" y="-80"/>
      <point x="213" y="-59" type="curve" smooth="yes"/>
      <point x="222" y="-22"/>
      <point x="298" y="43"/>
    </contour>
    <contour>
      <point x="356" y="-116" type="curve" smooth="yes"/>
      <point x="238" y="-116"/>
      <point x="196" y="-98"/>
      <point x="198" y="-22" type="curve"/>
      <point x="180" y="-25"/>
      <point x="164" y="-43"/>
      <point x="160" y="-60" type="curve" smooth="yes"/>
      <point x="159" y="-62" type="line" smooth="yes"/>
      <point x="138" y="-148"/>
      <point x="224" y="-172"/>
      <point x="354" y="-172" type="curve" smooth="yes"/>
      <point x="360" y="-172" type="line" smooth="yes"/>
      <point x="390" y="-172"/>
      <point x="407" y="-150"/>
      <point x="416" y="-116" type="curve"/>
      <point x="418" y="-108" type="line"/>
      <point x="414" y="-108" type="line"/>
      <point x="395" y="-113"/>
      <point x="379" y="-116"/>
    </contour>
  </outline>
</glyph>
<glyph name="bar" format="1">
  <advance width="600"/>
  <unicode hex="007C"/>
  <outline>
    <contour>
      <point x="389" y="760" type="curve"/>
      <point x="386" y="725"/>
      <point x="379" y="690"/>
      <point x="369" y="653" type="curve" smooth="yes"/>
      <point x="172" y="-135" type="line" smooth="yes"/>
      <point x="168" y="-154"/>
      <point x="185" y="-160"/>
      <point x="211" y="-160" type="curve" smooth="yes"/>
      <point x="214" y="-160"/>
      <point x="219" y="-160"/>
      <point x="222" y="-160" type="curve"/>
      <point x="438" y="703" type="line" smooth="yes"/>
      <point x="443" y="725"/>
      <point x="446" y="742"/>
      <point x="437" y="754" type="curve" smooth="yes"/>
      <point x="433" y="760"/>
      <point x="425" y="763"/>
      <point x="409" y="763" type="curve" smooth="yes"/>
      <point x="402" y="763"/>
      <point x="396" y="762"/>
    </contour>
  </outline>
</glyph>
<glyph name="braceright" format="1">
  <advance width="600"/>
  <unicode hex="007D"/>
  <outline>
    <contour>
      <point x="58" y="-117" type="curve" smooth="yes"/>
      <point x="35" y="-117"/>
      <point x="21" y="-116"/>
      <point x="2" y="-109" type="curve"/>
      <point x="-2" y="-109" type="line"/>
      <point x="-4" y="-115"/>
      <point x="-6" y="-120"/>
      <point x="-9" y="-128" type="curve"/>
      <point x="-15" y="-152"/>
      <point x="-6" y="-172"/>
      <point x="32" y="-172" type="curve" smooth="yes"/>
      <point x="37" y="-172" type="line" smooth="yes"/>
      <point x="161" y="-172"/>
      <point x="260" y="-135"/>
      <point x="279" y="-59" type="curve" smooth="yes"/>
      <point x="280" y="-56" type="line" smooth="yes"/>
      <point x="283" y="-44"/>
      <point x="269" y="-30"/>
      <point x="251" y="-30" type="curve"/>
      <point x="220" y="-96"/>
      <point x="150" y="-117"/>
    </contour>
    <contour>
      <point x="213" y="127" type="curve" smooth="yes"/>
      <point x="192" y="43"/>
      <point x="235" y="-21"/>
      <point x="226" y="-58" type="curve" smooth="yes"/>
      <point x="222" y="-76"/>
      <point x="213" y="-87"/>
      <point x="199" y="-105" type="curve"/>
      <point x="231" y="-106"/>
      <point x="269" y="-100"/>
      <point x="279" y="-59" type="curve" smooth="yes"/>
      <point x="280" y="-55" type="line" smooth="yes"/>
      <point x="295" y="6"/>
      <point x="249" y="50"/>
      <point x="269" y="131" type="curve" smooth="yes"/>
      <point x="288" y="208"/>
      <point x="358" y="272"/>
      <point x="480" y="272" type="curve" smooth="yes"/>
      <point x="486" y="272" type="line"/>
      <point x="488" y="282" type="line" smooth="yes"/>
      <point x="493" y="302"/>
      <point x="490" y="313"/>
      <point x="482" y="313" type="curve" smooth="yes"/>
      <point x="475" y="313" type="line" smooth="yes"/>
      <point x="352" y="313"/>
      <point x="244" y="251"/>
    </contour>
    <contour>
      <point x="299" y="471" type="curve" smooth="yes"/>
      <point x="268" y="347"/>
      <point x="344" y="282"/>
      <point x="467" y="282" type="curve" smooth="yes"/>
      <point x="475" y="282"/>
      <point x="481" y="281"/>
      <point x="488" y="279" type="curve"/>
      <point x="490" y="287" type="line" smooth="yes"/>
      <point x="495" y="308"/>
      <point x="493" y="326"/>
      <point x="476" y="326" type="curve" smooth="yes"/>
      <point x="474" y="326" type="line" smooth="yes"/>
      <point x="372" y="326"/>
      <point x="334" y="391"/>
      <point x="353" y="466" type="curve" smooth="yes"/>
      <point x="373" y="548"/>
      <point x="443" y="597"/>
      <point x="458" y="658" type="curve" smooth="yes"/>
      <point x="459" y="660" type="line" smooth="yes"/>
      <point x="471" y="709"/>
      <point x="429" y="712"/>
      <point x="399" y="712" type="curve"/>
      <point x="411" y="693"/>
      <point x="410" y="678"/>
      <point x="405" y="657" type="curve" smooth="yes"/>
      <point x="396" y="620"/>
      <point x="320" y="555"/>
    </contour>
    <contour>
      <point x="262" y="714" type="curve" smooth="yes"/>
      <point x="380" y="714"/>
      <point x="422" y="696"/>
      <point x="420" y="620" type="curve"/>
      <point x="438" y="623"/>
      <point x="454" y="641"/>
      <point x="458" y="658" type="curve" smooth="yes"/>
      <point x="459" y="660" type="line" smooth="yes"/>
      <point x="480" y="746"/>
      <point x="393" y="770"/>
      <point x="263" y="770" type="curve" smooth="yes"/>
      <point x="257" y="770" type="line" smooth="yes"/>
      <point x="228" y="770"/>
      <point x="211" y="748"/>
      <point x="202" y="714" type="curve"/>
      <point x="200" y="706" type="line"/>
      <point x="204" y="706" type="line"/>
      <point x="223" y="711"/>
      <point x="239" y="714"/>
    </contour>
  </outline>
</glyph>
<glyph name="asciitilde" format="1">
  <advance width="600"/>
  <unicode hex="007E"/>
  <outline>
    <contour>
      <point x="432" y="278" type="curve" smooth="yes"/>
      <point x="341" y="278"/>
      <point x="289" y="379"/>
      <point x="198" y="379" type="curve" smooth="yes"/>
      <point x="145" y="379"/>
      <point x="104" y="357"/>
      <point x="81" y="330" type="curve" smooth="yes"/>
      <point x="73" y="319"/>
      <point x="68" y="310"/>
      <point x="64" y="295" type="curve" smooth="yes"/>
      <point x="62" y="285"/>
      <point x="61" y="275"/>
      <point x="64" y="268" type="curve"/>
      <point x="68" y="268" type="line"/>
      <point x="109" y="304"/>
      <point x="145" y="322"/>
      <point x="186" y="322" type="curve" smooth="yes"/>
      <point x="277" y="322"/>
      <point x="329" y="221"/>
      <point x="421" y="221" type="curve" smooth="yes"/>
      <point x="474" y="221"/>
      <point x="514" y="243"/>
      <point x="537" y="270" type="curve" smooth="yes"/>
      <point x="545" y="281"/>
      <point x="550" y="290"/>
      <point x="554" y="305" type="curve" smooth="yes"/>
      <point x="557" y="315"/>
      <point x="557" y="325"/>
      <point x="555" y="332" type="curve"/>
      <point x="551" y="332" type="line"/>
      <point x="509" y="296"/>
      <point x="473" y="278"/>
    </contour>
  </outline>
</glyph>
